<?xml version="1.0" encoding="UTF-8" standalone="no"?>
<!-- Generator: visioncortex VTracer 0.6.12 -->

<svg
   version="1.1"
   width="1876"
   height="1385"
   id="svg37921"
   xmlns="http://www.w3.org/2000/svg"
   xmlns:svg="http://www.w3.org/2000/svg">
  <defs
     id="defs37925" />
  <path
     d="M0,0 L9,0 L15,3 L19,8 L20,12 L15,12 L12,7 L3,5 L-2,7 L-6,12 L-7,21 L-4,30 L2,33 L10,32 L14,28 L16,22 L5,22 L5,18 L20,18 L20,37 L17,37 L15,34 L11,37 L8,38 L0,38 L-8,34 L-12,27 L-13,17 L-10,8 L-6,3 Z "
     fill="#000000"
     transform="translate(1139,27)"
     id="path37763" />
  <path
     d="m 1182,40 h 4 v 35 h -5 V 50 h -8 v -3 l 7,-3 z"
     fill="#000000"
     id="path37765" />
  <path
     d="M0,0 L9,0 L15,3 L19,8 L20,12 L15,12 L12,7 L3,5 L-2,7 L-6,12 L-7,21 L-4,30 L2,33 L10,32 L14,28 L16,22 L5,22 L5,18 L20,18 L20,37 L17,37 L15,34 L11,37 L8,38 L0,38 L-8,34 L-12,27 L-13,17 L-10,8 L-6,3 Z "
     fill="#000000"
     transform="translate(1454,81)"
     id="path37767" />
  <path
     d="M0,0 L19,0 L25,4 L26,11 L23,17 L27,21 L27,30 L22,35 L19,36 L0,36 Z M5,4 L4,5 L4,15 L18,15 L21,12 L20,6 L17,4 Z M5,19 L4,20 L4,31 L5,32 L18,32 L22,29 L23,25 L20,20 L18,19 Z "
     fill="#000000"
     transform="translate(1382,82)"
     id="path37769" />
  <path
     d="m 1426,102 h 4 v 35 h -5 v -25 h -8 v -3 l 7,-3 z"
     fill="#000000"
     id="path37771" />
  <path
     d="m 1492,102 h 4 v 35 h -5 v -25 h -8 v -3 l 7,-3 z"
     fill="#000000"
     id="path37773" />
  <path
     d="M0,0 L306,0 L306,4 L4,5 L-124,133 L-122,137 L-120,139 L-64,119 L-3,97 L-1,96 L306,96 L306,100 L4,101 L-60,124 L-115,144 L-118,144 L-117,148 L-117,162 L-107,165 L-59,184 L-17,200 L3,208 L306,209 L306,213 L-1,213 L-48,195 L-94,177 L-120,167 L-122,174 L4,300 L306,301 L306,305 L0,305 L-126,179 L-130,180 L-141,184 L-151,184 L-160,181 L-167,176 L-173,167 L-175,161 L-175,155 L-447,156 L-588,579 L-583,580 L-573,589 L-569,598 L-569,602 L-175,602 L-173,594 L-167,585 L-158,579 L-152,577 L-140,577 L-132,580 L-128,579 L0,451 L305,451 L306,455 L305,456 L4,457 L-124,585 L-121,590 L-116,589 L-71,573 L-16,553 L0,547 L306,548 L306,552 L3,553 L-53,573 L-100,590 L-116,596 L-118,596 L-117,599 L-116,613 L-70,631 L-21,650 L2,659 L305,660 L306,664 L305,665 L0,665 L-49,646 L-98,627 L-119,619 L-122,625 L4,751 L305,752 L306,756 L305,757 L0,757 L-127,630 L-139,635 L-153,635 L-162,631 L-170,624 L-175,613 L-175,606 L-568,606 L-569,615 L-573,623 L-581,631 L-587,633 L-573,674 L-447,1052 L-175,1053 L-172,1043 L-163,1033 L-154,1029 L-143,1028 L-133,1031 L-129,1032 L0,903 L306,903 L306,907 L4,908 L-124,1036 L-122,1040 L-120,1042 L-67,1023 L-6,1001 L-1,999 L306,999 L306,1003 L4,1004 L-60,1027 L-115,1047 L-118,1047 L-117,1051 L-117,1065 L-107,1068 L-61,1086 L-12,1105 L3,1111 L306,1112 L306,1116 L-1,1116 L-58,1094 L-99,1078 L-120,1070 L-122,1077 L4,1203 L306,1204 L306,1208 L0,1208 L-127,1081 L-137,1086 L-141,1087 L-151,1087 L-160,1084 L-170,1075 L-174,1068 L-175,1058 L-451,1058 L-455,1048 L-592,637 L-592,635 L-605,635 L-615,630 L-620,626 L-625,618 L-627,611 L-627,602 L-624,593 L-620,587 L-612,580 L-603,577 L-593,577 L-591,568 L-452,151 L-451,150 L-175,150 L-172,140 L-164,131 L-154,126 L-144,125 L-135,127 L-129,129 Z M-153,130 L-161,134 L-168,142 L-171,149 L-171,160 L-167,169 L-163,174 L-154,179 L-150,180 L-142,180 L-132,176 L-127,172 L-122,164 L-121,160 L-121,149 L-125,140 L-134,132 L-139,130 Z M-602,581 L-612,585 L-619,592 L-622,599 L-623,609 L-620,618 L-614,626 L-604,631 L-592,631 L-584,628 L-579,624 L-574,616 L-572,605 L-574,596 L-580,588 L-585,584 L-593,581 Z M-151,581 L-160,585 L-166,590 L-170,598 L-171,601 L-171,611 L-167,621 L-159,628 L-152,631 L-140,631 L-130,626 L-124,619 L-121,612 L-121,601 L-124,593 L-130,586 L-138,582 L-141,581 Z M-153,1033 L-161,1037 L-168,1045 L-171,1052 L-171,1063 L-167,1072 L-162,1077 L-154,1082 L-143,1083 L-134,1080 L-127,1075 L-122,1067 L-121,1063 L-121,1052 L-125,1043 L-132,1036 L-139,1033 Z "
     fill="#000000"
     transform="translate(1009,97)"
     id="path37775" />
  <path
     d="M0,0 L9,0 L15,3 L19,8 L20,12 L15,12 L12,7 L3,5 L-2,7 L-6,12 L-7,21 L-4,30 L2,33 L10,32 L14,28 L16,22 L5,22 L5,18 L20,18 L20,37 L17,37 L15,34 L11,37 L8,38 L0,38 L-8,34 L-12,27 L-13,17 L-10,8 L-6,3 Z "
     fill="#000000"
     transform="translate(1139,127)"
     id="path37777" />
  <path
     d="m 1178,140 h 9 l 6,5 1,8 -4,6 -13,8 -2,4 h 19 v 4 h -24 l 1,-8 5,-5 9,-6 h 2 l 1,-8 -3,-3 h -6 l -3,3 -1,4 h -5 l 2,-8 3,-3 z"
     fill="#000000"
     id="path37779" />
  <path
     d="M0,0 L9,0 L15,3 L19,8 L20,12 L15,12 L12,7 L3,5 L-2,7 L-6,12 L-7,21 L-4,30 L2,33 L10,32 L14,28 L16,22 L5,22 L5,18 L20,18 L20,37 L17,37 L15,34 L11,37 L8,38 L0,38 L-8,34 L-12,27 L-13,17 L-10,8 L-6,3 Z "
     fill="#000000"
     transform="translate(1454,173)"
     id="path37781" />
  <path
     d="M0,0 L19,0 L25,4 L26,11 L23,17 L27,21 L27,30 L22,35 L19,36 L0,36 Z M5,4 L4,5 L4,15 L18,15 L21,12 L20,6 L17,4 Z M5,19 L4,20 L4,31 L5,32 L18,32 L22,29 L23,25 L20,20 L18,19 Z "
     fill="#000000"
     transform="translate(1382,174)"
     id="path37783" />
  <path
     d="m 1426,194 h 4 v 35 h -5 v -25 h -8 v -3 l 7,-3 z"
     fill="#000000"
     id="path37785" />
  <path
     d="m 1488,194 h 9 l 6,5 v 10 l -5,5 -11,7 -2,4 h 18 v 4 h -23 l 1,-8 5,-5 9,-6 h 2 l 1,-8 -3,-3 h -6 l -3,3 -1,4 h -5 l 2,-8 3,-3 z"
     fill="#000000"
     id="path37787" />
  <path
     d="M0,0 L19,0 L25,4 L26,11 L23,17 L27,21 L27,30 L22,35 L19,36 L0,36 Z M5,4 L4,5 L4,15 L18,15 L21,12 L20,6 L17,4 Z M5,19 L4,20 L4,31 L5,32 L18,32 L22,29 L23,25 L20,20 L18,19 Z "
     fill="#000000"
     transform="translate(686,178)"
     id="path37789" />
  <path
     d="m 732,191 h 4 v 35 h -5 v -25 h -8 v -3 l 7,-3 z"
     fill="#000000"
     id="path37791" />
  <path
     d="M0,0 L9,0 L15,3 L19,8 L20,12 L15,12 L12,7 L3,5 L-2,7 L-6,12 L-7,21 L-4,30 L2,33 L10,32 L14,28 L16,22 L5,22 L5,18 L20,18 L20,37 L17,37 L15,34 L11,37 L8,38 L0,38 L-8,34 L-12,27 L-13,17 L-10,8 L-6,3 Z "
     fill="#000000"
     transform="translate(1139,240)"
     id="path37793" />
  <path
     d="m 1177,253 h 9 l 5,3 1,2 v 8 l -3,3 4,4 1,7 -3,6 -6,3 h -8 l -6,-4 -2,-5 v -3 h 5 l 2,6 2,1 h 6 l 4,-3 -1,-7 -8,-2 v -4 l 7,-2 1,-5 -2,-3 h -7 l -2,2 -1,4 h -5 l 1,-6 4,-4 z"
     fill="#000000"
     id="path37795" />
  <path
     d="M0,0 L9,0 L15,3 L19,8 L20,12 L15,12 L12,7 L3,5 L-2,7 L-6,12 L-7,21 L-4,30 L2,33 L10,32 L14,28 L16,22 L5,22 L5,18 L20,18 L20,37 L17,37 L15,34 L11,37 L8,38 L0,38 L-8,34 L-12,27 L-13,17 L-10,8 L-6,3 Z "
     fill="#000000"
     transform="translate(1454,277)"
     id="path37797" />
  <path
     d="M0,0 L19,0 L25,4 L26,11 L23,17 L27,21 L27,30 L22,35 L19,36 L0,36 Z M5,4 L4,5 L4,15 L18,15 L21,12 L20,6 L17,4 Z M5,19 L4,20 L4,31 L5,32 L18,32 L22,29 L23,25 L20,20 L18,19 Z "
     fill="#000000"
     transform="translate(1382,278)"
     id="path37799" />
  <path
     d="m 1426,298 h 4 v 35 h -5 v -25 h -8 v -3 l 7,-3 z"
     fill="#000000"
     id="path37801" />
  <path
     d="m 1487,298 h 9 l 5,3 1,2 v 8 l -3,3 4,4 v 10 l -5,5 -3,1 h -8 l -6,-4 -2,-5 v -3 h 5 l 2,6 2,1 h 6 l 4,-3 -1,-7 -8,-2 v -4 l 7,-2 1,-5 -2,-3 h -7 l -2,2 -1,4 h -5 l 1,-6 4,-4 z"
     fill="#000000"
     id="path37803" />
  <path
     d="M0,0 L9,0 L15,3 L19,8 L20,12 L15,12 L12,7 L3,5 L-2,7 L-6,12 L-7,21 L-4,30 L2,33 L10,32 L14,28 L16,22 L5,22 L5,18 L20,18 L20,37 L17,37 L15,34 L11,37 L8,38 L0,38 L-8,34 L-12,27 L-13,17 L-10,8 L-6,3 Z "
     fill="#000000"
     transform="translate(1139,344)"
     id="path37805" />
  <path
     d="m 1185,357 h 4 v 23 h 5 v 3 h -5 v 9 h -4 l -1,-8 -15,-1 1,-6 12,-16 z m -2,8 -9,13 v 2 h 10 l 1,-1 v -14 z"
     fill="#000000"
     id="path37807" />
  <path
     d="M0,0 L9,0 L15,3 L19,8 L20,12 L15,12 L12,7 L3,5 L-2,7 L-6,12 L-7,21 L-4,30 L2,33 L10,32 L14,28 L16,22 L5,22 L5,18 L20,18 L20,37 L17,37 L15,34 L11,37 L8,38 L0,38 L-8,34 L-12,27 L-13,17 L-10,8 L-6,3 Z "
     fill="#000000"
     transform="translate(1454,382)"
     id="path37809" />
  <path
     d="M0,0 L19,0 L25,4 L26,11 L23,17 L27,21 L27,30 L22,35 L19,36 L0,36 Z M5,4 L4,5 L4,15 L18,15 L21,12 L20,6 L17,4 Z M5,19 L4,20 L4,31 L5,32 L18,32 L22,29 L23,25 L20,20 L18,19 Z "
     fill="#000000"
     transform="translate(1382,383)"
     id="path37811" />
  <path
     d="m 1426,403 h 4 v 35 h -5 v -25 h -8 v -3 l 7,-3 z"
     fill="#000000"
     id="path37813" />
  <path
     d="m 1495,403 h 4 v 23 h 4 v 3 h -4 v 9 h -4 l -1,-8 -15,-1 1,-6 12,-16 z m -2,8 -9,13 v 2 h 10 l 1,-1 v -14 z"
     fill="#000000"
     id="path37815" />
  <path
     d="M0,0 L9,0 L15,3 L19,8 L20,12 L15,12 L12,7 L3,5 L-2,7 L-6,12 L-7,21 L-4,30 L2,33 L10,32 L14,28 L16,22 L5,22 L5,18 L20,18 L20,37 L17,37 L15,34 L11,37 L8,38 L0,38 L-8,34 L-12,27 L-13,17 L-10,8 L-6,3 Z "
     fill="#000000"
     transform="translate(1139,478)"
     id="path37817" />
  <path
     d="m 1182,491 h 4 v 35 h -5 v -25 h -8 v -3 l 7,-3 z"
     fill="#000000"
     id="path37819" />
  <path
     d="M0,0 L9,0 L15,3 L19,8 L20,12 L15,12 L12,7 L3,5 L-2,7 L-6,12 L-7,21 L-4,30 L2,33 L10,32 L14,28 L16,22 L5,22 L5,18 L20,18 L20,37 L17,37 L15,34 L11,37 L8,38 L0,38 L-8,34 L-12,27 L-13,17 L-10,8 L-6,3 Z "
     fill="#000000"
     transform="translate(1454,532)"
     id="path37821" />
  <path
     d="M0,0 L19,0 L25,4 L26,11 L23,17 L27,21 L27,30 L22,35 L19,36 L0,36 Z M5,4 L4,5 L4,15 L18,15 L21,12 L20,6 L17,4 Z M5,19 L4,20 L4,31 L5,32 L18,32 L22,29 L23,25 L20,20 L18,19 Z "
     fill="#000000"
     transform="translate(1382,533)"
     id="path37823" />
  <path
     d="m 1422,553 h 9 l 6,5 1,8 -4,6 -13,8 -2,4 h 19 v 4 h -24 l 1,-8 5,-5 9,-6 h 2 l 1,-8 -3,-3 h -6 l -3,3 -1,4 h -5 l 2,-8 3,-3 z"
     fill="#000000"
     id="path37825" />
  <path
     d="m 1492,553 h 4 v 35 h -5 v -25 h -8 v -3 l 7,-3 z"
     fill="#000000"
     id="path37827" />
  <path
     d="M0,0 L9,0 L15,3 L19,8 L20,12 L15,12 L12,7 L3,5 L-2,7 L-6,12 L-7,21 L-4,30 L2,33 L10,32 L14,28 L16,22 L5,22 L5,18 L20,18 L20,37 L17,37 L15,34 L11,37 L8,38 L0,38 L-8,34 L-12,27 L-13,17 L-10,8 L-6,3 Z "
     fill="#000000"
     transform="translate(1139,578)"
     id="path37829" />
  <path
     d="m 1178,591 h 9 l 6,5 1,8 -4,6 -13,8 -2,4 h 19 v 4 h -24 l 1,-8 5,-5 9,-6 h 2 l 1,-8 -3,-3 h -6 l -3,3 -1,4 h -5 l 2,-8 3,-3 z"
     fill="#000000"
     id="path37831" />
  <path
     d="M0,0 L9,0 L15,3 L19,8 L20,12 L15,12 L12,7 L3,5 L-2,7 L-6,12 L-7,21 L-4,30 L2,33 L10,32 L14,28 L16,22 L5,22 L5,18 L20,18 L20,37 L17,37 L15,34 L11,37 L8,38 L0,38 L-8,34 L-12,27 L-13,17 L-10,8 L-6,3 Z "
     fill="#000000"
     transform="translate(1454,624)"
     id="path37833" />
  <path
     d="M0,0 L19,0 L25,4 L26,11 L23,17 L27,21 L27,30 L22,35 L19,36 L0,36 Z M5,4 L4,5 L4,15 L18,15 L21,12 L20,6 L17,4 Z M5,19 L4,20 L4,31 L5,32 L18,32 L22,29 L23,25 L20,20 L18,19 Z "
     fill="#000000"
     transform="translate(1382,625)"
     id="path37835" />
  <path
     d="m 1422,645 h 9 l 6,5 1,8 -4,6 -13,8 -2,4 h 19 v 4 h -24 l 1,-8 5,-5 9,-6 h 2 l 1,-8 -3,-3 h -6 l -3,3 -1,4 h -5 l 2,-8 3,-3 z"
     fill="#000000"
     id="path37837" />
  <path
     d="m 1488,645 h 9 l 6,5 v 10 l -5,5 -11,7 -2,4 h 18 v 4 h -23 l 1,-8 5,-5 9,-6 h 2 l 1,-8 -3,-3 h -6 l -3,3 -1,4 h -5 l 2,-8 3,-3 z"
     fill="#000000"
     id="path37839" />
  <path
     d="M0,0 L19,0 L25,4 L26,11 L23,17 L27,21 L27,30 L22,35 L19,36 L0,36 Z M5,4 L4,5 L4,15 L18,15 L21,12 L20,6 L17,4 Z M5,19 L4,20 L4,31 L5,32 L18,32 L22,29 L23,25 L20,20 L18,19 Z "
     fill="#000000"
     transform="translate(677,630)"
     id="path37841" />
  <path
     d="m 720,643 h 9 l 6,5 1,8 -4,6 -13,8 -2,4 h 19 v 4 h -24 l 1,-8 5,-5 9,-6 h 2 l 1,-8 -3,-3 h -6 l -3,3 -1,4 h -5 l 2,-8 3,-3 z"
     fill="#000000"
     id="path37843" />
  <path
     d="M0,0 L9,0 L15,3 L19,8 L20,12 L15,12 L12,7 L3,5 L-2,7 L-6,12 L-7,21 L-4,30 L2,33 L10,32 L14,28 L16,22 L5,22 L5,18 L20,18 L20,37 L17,37 L15,34 L11,37 L8,38 L0,38 L-8,34 L-12,27 L-13,17 L-10,8 L-6,3 Z "
     fill="#000000"
     transform="translate(1139,691)"
     id="path37845" />
  <path
     d="m 1177,704 h 9 l 5,3 1,2 v 8 l -3,3 4,4 1,7 -3,6 -6,3 h -8 l -6,-4 -2,-5 v -3 h 5 l 2,6 2,1 h 6 l 4,-3 -1,-7 -8,-2 v -4 l 7,-2 1,-5 -2,-3 h -7 l -2,2 -1,4 h -5 l 1,-6 4,-4 z"
     fill="#000000"
     id="path37847" />
  <path
     d="M0,0 L9,0 L15,3 L19,8 L20,12 L15,12 L12,7 L3,5 L-2,7 L-6,12 L-7,21 L-4,30 L2,33 L10,32 L14,28 L16,22 L5,22 L5,18 L20,18 L20,37 L17,37 L15,34 L11,37 L8,38 L0,38 L-8,34 L-12,27 L-13,17 L-10,8 L-6,3 Z "
     fill="#000000"
     transform="translate(1454,729)"
     id="path37849" />
  <path
     d="M0,0 L19,0 L25,4 L26,11 L23,17 L27,21 L27,30 L22,35 L19,36 L0,36 Z M5,4 L4,5 L4,15 L18,15 L21,12 L20,6 L17,4 Z M5,19 L4,20 L4,31 L5,32 L18,32 L22,29 L23,25 L20,20 L18,19 Z "
     fill="#000000"
     transform="translate(1382,730)"
     id="path37851" />
  <path
     d="m 1422,750 h 9 l 6,5 1,8 -4,6 -13,8 -2,4 h 19 v 4 h -24 l 1,-8 5,-5 9,-6 h 2 l 1,-8 -3,-3 h -6 l -3,3 -1,4 h -5 l 2,-8 3,-3 z"
     fill="#000000"
     id="path37853" />
  <path
     d="m 1487,750 h 9 l 5,3 1,2 v 8 l -3,3 4,4 v 10 l -5,5 -3,1 h -8 l -6,-4 -2,-5 v -3 h 5 l 2,6 2,1 h 6 l 4,-3 -1,-7 -8,-2 v -4 l 7,-2 1,-5 -2,-3 h -7 l -2,2 -1,4 h -5 l 1,-6 4,-4 z"
     fill="#000000"
     id="path37855" />
  <path
     d="M0,0 L9,0 L15,3 L19,8 L20,12 L15,12 L12,7 L3,5 L-2,7 L-6,12 L-7,21 L-4,30 L2,33 L10,32 L14,28 L16,22 L5,22 L5,18 L20,18 L20,37 L17,37 L15,34 L11,37 L8,38 L0,38 L-8,34 L-12,27 L-13,17 L-10,8 L-6,3 Z "
     fill="#000000"
     transform="translate(1139,796)"
     id="path37857" />
  <path
     d="m 1185,809 h 4 v 23 h 5 v 3 h -5 v 9 h -4 l -1,-8 -15,-1 1,-6 12,-16 z m -2,8 -9,13 v 2 h 10 l 1,-1 v -14 z"
     fill="#000000"
     id="path37859" />
  <path
     d="M0,0 L9,0 L15,3 L19,8 L20,12 L15,12 L12,7 L3,5 L-2,7 L-6,12 L-7,21 L-4,30 L2,33 L10,32 L14,28 L16,22 L5,22 L5,18 L20,18 L20,37 L17,37 L15,34 L11,37 L8,38 L0,38 L-8,34 L-12,27 L-13,17 L-10,8 L-6,3 Z "
     fill="#000000"
     transform="translate(1454,833)"
     id="path37861" />
  <path
     d="M0,0 L19,0 L25,4 L26,11 L23,17 L27,21 L27,30 L22,35 L19,36 L0,36 Z M5,4 L4,5 L4,15 L18,15 L21,12 L20,6 L17,4 Z M5,19 L4,20 L4,31 L5,32 L18,32 L22,29 L23,25 L20,20 L18,19 Z "
     fill="#000000"
     transform="translate(1382,834)"
     id="path37863" />
  <path
     d="m 1422,854 h 9 l 6,5 1,8 -4,6 -13,8 -2,4 h 19 v 4 h -24 l 1,-8 5,-5 9,-6 h 2 l 1,-8 -3,-3 h -6 l -3,3 -1,4 h -5 l 2,-8 3,-3 z"
     fill="#000000"
     id="path37865" />
  <path
     d="m 1495,854 h 4 v 23 h 4 v 3 h -4 v 9 h -4 l -1,-8 -15,-1 1,-6 12,-16 z m -2,8 -9,13 v 2 h 10 l 1,-1 v -14 z"
     fill="#000000"
     id="path37867" />
  <path
     d="M0,0 L9,0 L15,3 L19,8 L20,12 L15,12 L12,7 L3,5 L-2,7 L-6,12 L-7,21 L-4,30 L2,33 L10,32 L14,28 L16,22 L5,22 L5,18 L20,18 L20,37 L17,37 L15,34 L11,37 L8,38 L0,38 L-8,34 L-12,27 L-13,17 L-10,8 L-6,3 Z "
     fill="#000000"
     transform="translate(1139,930)"
     id="path37869" />
  <path
     d="m 1182,943 h 4 v 35 h -5 v -25 h -8 v -3 l 7,-3 z"
     fill="#000000"
     id="path37871" />
  <path
     d="M0,0 L9,0 L15,3 L19,8 L20,12 L15,12 L12,7 L3,5 L-2,7 L-6,12 L-7,21 L-4,30 L2,33 L10,32 L14,28 L16,22 L5,22 L5,18 L20,18 L20,37 L17,37 L15,34 L11,37 L8,38 L0,38 L-8,34 L-12,27 L-13,17 L-10,8 L-6,3 Z "
     fill="#000000"
     transform="translate(1454,984)"
     id="path37873" />
  <path
     d="M0,0 L19,0 L25,4 L26,11 L23,17 L27,21 L27,30 L22,35 L19,36 L0,36 Z M5,4 L4,5 L4,15 L18,15 L21,12 L20,6 L17,4 Z M5,19 L4,20 L4,31 L5,32 L18,32 L22,29 L23,25 L20,20 L18,19 Z "
     fill="#000000"
     transform="translate(1382,985)"
     id="path37875" />
  <path
     d="m 1421,1005 h 9 l 5,3 1,2 v 8 l -3,3 4,4 1,7 -3,6 -6,3 h -8 l -6,-4 -2,-5 v -3 h 5 l 2,6 2,1 h 6 l 4,-3 -1,-7 -8,-2 v -4 l 7,-2 1,-5 -2,-3 h -7 l -2,2 -1,4 h -5 l 1,-6 4,-4 z"
     fill="#000000"
     id="path37877" />
  <path
     d="m 1492,1005 h 4 v 35 h -5 v -25 h -8 v -3 l 7,-3 z"
     fill="#000000"
     id="path37879" />
  <path
     d="M0,0 L9,0 L15,3 L19,8 L20,12 L15,12 L12,7 L3,5 L-2,7 L-6,12 L-7,21 L-4,30 L2,33 L10,32 L14,28 L16,22 L5,22 L5,18 L20,18 L20,37 L17,37 L15,34 L11,37 L8,38 L0,38 L-8,34 L-12,27 L-13,17 L-10,8 L-6,3 Z "
     fill="#000000"
     transform="translate(1139,1030)"
     id="path37881" />
  <path
     d="m 1178,1043 h 9 l 6,5 1,8 -4,6 -13,8 -2,4 h 19 v 4 h -24 l 1,-8 5,-5 9,-6 h 2 l 1,-8 -3,-3 h -6 l -3,3 -1,4 h -5 l 2,-8 3,-3 z"
     fill="#000000"
     id="path37883" />
  <path
     d="M0,0 L9,0 L15,3 L19,8 L20,12 L15,12 L12,7 L3,5 L-2,7 L-6,12 L-7,21 L-4,30 L2,33 L10,32 L14,28 L16,22 L5,22 L5,18 L20,18 L20,37 L17,37 L15,34 L11,37 L8,38 L0,38 L-8,34 L-12,27 L-13,17 L-10,8 L-6,3 Z "
     fill="#000000"
     transform="translate(1454,1076)"
     id="path37885" />
  <path
     d="M0,0 L19,0 L25,4 L26,11 L23,17 L27,21 L27,30 L22,35 L19,36 L0,36 Z M5,4 L4,5 L4,15 L18,15 L21,12 L20,6 L17,4 Z M5,19 L4,20 L4,31 L5,32 L18,32 L22,29 L23,25 L20,20 L18,19 Z "
     fill="#000000"
     transform="translate(1382,1077)"
     id="path37887" />
  <path
     d="m 1421,1097 h 9 l 5,3 1,2 v 8 l -3,3 4,4 1,7 -3,6 -6,3 h -8 l -6,-4 -2,-5 v -3 h 5 l 2,6 2,1 h 6 l 4,-3 -1,-7 -8,-2 v -4 l 7,-2 1,-5 -2,-3 h -7 l -2,2 -1,4 h -5 l 1,-6 4,-4 z"
     fill="#000000"
     id="path37889" />
  <path
     d="m 1488,1097 h 9 l 6,5 v 10 l -5,5 -11,7 -2,4 h 18 v 4 h -23 l 1,-8 5,-5 9,-6 h 2 l 1,-8 -3,-3 h -6 l -3,3 -1,4 h -5 l 2,-8 3,-3 z"
     fill="#000000"
     id="path37891" />
  <path
     d="M0,0 L19,0 L25,4 L26,11 L23,17 L27,21 L27,30 L22,35 L19,36 L0,36 Z M5,4 L4,5 L4,15 L18,15 L21,12 L20,6 L17,4 Z M5,19 L4,20 L4,31 L5,32 L18,32 L22,29 L23,25 L20,20 L18,19 Z "
     fill="#000000"
     transform="translate(686,1081)"
     id="path37893" />
  <path
     d="m 727,1094 h 9 l 5,3 1,2 v 8 l -3,3 4,4 1,7 -3,6 -6,3 h -8 l -6,-4 -2,-5 v -3 h 5 l 2,6 2,1 h 6 l 4,-3 -1,-7 -8,-2 v -4 l 7,-2 1,-5 -2,-3 h -7 l -2,2 -1,4 h -5 l 1,-6 4,-4 z"
     fill="#000000"
     id="path37895" />
  <path
     d="M0,0 L9,0 L15,3 L19,8 L20,12 L15,12 L12,7 L3,5 L-2,7 L-6,12 L-7,21 L-4,30 L2,33 L10,32 L14,28 L16,22 L5,22 L5,18 L20,18 L20,37 L17,37 L15,34 L11,37 L8,38 L0,38 L-8,34 L-12,27 L-13,17 L-10,8 L-6,3 Z "
     fill="#000000"
     transform="translate(1139,1143)"
     id="path37897" />
  <path
     d="m 1177,1156 h 9 l 5,3 1,2 v 8 l -3,3 4,4 1,7 -3,6 -6,3 h -8 l -6,-4 -2,-5 v -3 h 5 l 2,6 2,1 h 6 l 4,-3 -1,-7 -8,-2 v -4 l 7,-2 1,-5 -2,-3 h -7 l -2,2 -1,4 h -5 l 1,-6 4,-4 z"
     fill="#000000"
     id="path37899" />
  <path
     d="M0,0 L9,0 L15,3 L19,8 L20,12 L15,12 L12,7 L3,5 L-2,7 L-6,12 L-7,21 L-4,30 L2,33 L10,32 L14,28 L16,22 L5,22 L5,18 L20,18 L20,37 L17,37 L15,34 L11,37 L8,38 L0,38 L-8,34 L-12,27 L-13,17 L-10,8 L-6,3 Z "
     fill="#000000"
     transform="translate(1454,1180)"
     id="path37901" />
  <path
     d="M0,0 L19,0 L25,4 L26,11 L23,17 L27,21 L27,30 L22,35 L19,36 L0,36 Z M5,4 L4,5 L4,15 L18,15 L21,12 L20,6 L17,4 Z M5,19 L4,20 L4,31 L5,32 L18,32 L22,29 L23,25 L20,20 L18,19 Z "
     fill="#000000"
     transform="translate(1382,1181)"
     id="path37903" />
  <path
     d="m 1421,1201 h 9 l 5,3 1,2 v 8 l -3,3 4,4 1,7 -3,6 -6,3 h -8 l -6,-4 -2,-5 v -3 h 5 l 2,6 2,1 h 6 l 4,-3 -1,-7 -8,-2 v -4 l 7,-2 1,-5 -2,-3 h -7 l -2,2 -1,4 h -5 l 1,-6 4,-4 z"
     fill="#000000"
     id="path37905" />
  <path
     d="m 1487,1201 h 9 l 5,3 1,2 v 8 l -3,3 4,4 v 10 l -5,5 -3,1 h -8 l -6,-4 -2,-5 v -3 h 5 l 2,6 2,1 h 6 l 4,-3 -1,-7 -8,-2 v -4 l 7,-2 1,-5 -2,-3 h -7 l -2,2 -1,4 h -5 l 1,-6 4,-4 z"
     fill="#000000"
     id="path37907" />
  <path
     d="M0,0 L9,0 L15,3 L19,8 L20,12 L15,12 L12,7 L3,5 L-2,7 L-6,12 L-7,21 L-4,30 L2,33 L10,32 L14,28 L16,22 L5,22 L5,18 L20,18 L20,37 L17,37 L15,34 L11,37 L8,38 L0,38 L-8,34 L-12,27 L-13,17 L-10,8 L-6,3 Z "
     fill="#000000"
     transform="translate(1139,1247)"
     id="path37909" />
  <path
     d="m 1185,1260 h 4 v 23 h 5 v 3 h -5 v 9 h -4 l -1,-8 -15,-1 1,-6 12,-16 z m -2,8 -9,13 v 2 h 10 l 1,-1 v -14 z"
     fill="#000000"
     id="path37911" />
  <path
     d="M0,0 L9,0 L15,3 L19,8 L20,12 L15,12 L12,7 L3,5 L-2,7 L-6,12 L-7,21 L-4,30 L2,33 L10,32 L14,28 L16,22 L5,22 L5,18 L20,18 L20,37 L17,37 L15,34 L11,37 L8,38 L0,38 L-8,34 L-12,27 L-13,17 L-10,8 L-6,3 Z "
     fill="#000000"
     transform="translate(1454,1285)"
     id="path37913" />
  <path
     d="M0,0 L19,0 L25,4 L26,11 L23,17 L27,21 L27,30 L22,35 L19,36 L0,36 Z M5,4 L4,5 L4,15 L18,15 L21,12 L20,6 L17,4 Z M5,19 L4,20 L4,31 L5,32 L18,32 L22,29 L23,25 L20,20 L18,19 Z "
     fill="#000000"
     transform="translate(1382,1286)"
     id="path37915" />
  <path
     d="m 1421,1306 h 9 l 5,3 1,2 v 8 l -3,3 4,4 1,7 -3,6 -6,3 h -8 l -6,-4 -2,-5 v -3 h 5 l 2,6 2,1 h 6 l 4,-3 -1,-7 -8,-2 v -4 l 7,-2 1,-5 -2,-3 h -7 l -2,2 -1,4 h -5 l 1,-6 4,-4 z"
     fill="#000000"
     id="path37917" />
  <path
     d="m 1495,1306 h 4 v 23 h 4 v 3 h -4 v 9 h -4 l -1,-8 -15,-1 1,-6 12,-16 z m -2,8 -9,13 v 2 h 10 l 1,-1 v -14 z"
     fill="#000000"
     id="path37919" />
</svg>
