<?xml version="1.0" encoding="UTF-8" standalone="no"?>
<!-- Generator: visioncortex VTracer 0.6.12 -->

<svg
   version="1.1"
   width="1876"
   height="951"
   id="svg58"
   xmlns="http://www.w3.org/2000/svg"
   xmlns:svg="http://www.w3.org/2000/svg">
  <defs
     id="defs62" />
  <path
     d="M0,0 L23,0 L23,4 L5,4 L5,14 L21,14 L21,18 L5,18 L5,33 L0,33 Z "
     fill="#000000"
     transform="translate(680,24)"
     id="path2" />
  <path
     d="M0,0 L24,0 L24,4 L4,4 L4,14 L22,14 L22,18 L4,18 L4,29 L24,29 L24,33 L0,33 Z "
     fill="#000000"
     transform="translate(1621,24)"
     id="path4" />
  <path
     d="M0,0 L8,1 L12,5 L12,22 L14,22 L14,25 L9,25 L7,23 L2,26 L-5,25 L-8,22 L-8,15 L-5,12 L7,9 L6,5 L-1,5 L-3,8 L-7,8 L-6,3 Z M6,13 L-3,15 L-4,20 L-2,22 L4,22 L8,18 L8,13 Z "
     fill="#000000"
     transform="translate(873,79)"
     id="path6" />
  <path
     d="M0,0 L9,1 L12,4 L12,22 L15,22 L15,25 L12,26 L8,23 L2,26 L-5,25 L-8,20 L-7,15 L-4,12 L5,10 L8,10 L7,5 L-1,5 L-3,8 L-6,8 L-5,3 Z M6,13 L-2,15 L-3,16 L-3,21 L-2,22 L5,22 L8,19 L8,13 Z "
     fill="#000000"
     transform="translate(1813,82)"
     id="path8" />
  <path
     d="M0,0 L244,0 L244,4 L3,4 L1,8 L-9,18 L-16,26 L-32,43 L-44,56 L-58,71 L-70,84 L-84,99 L-96,112 L-96,116 L-92,124 L-91,129 L-91,137 L-94,147 L-97,151 L-95,155 L-81,170 L-69,183 L-55,198 L-43,211 L-29,226 L-17,239 L-3,254 L3,261 L244,262 L244,266 L0,266 L-12,254 L-19,246 L-35,229 L-49,214 L-61,201 L-75,186 L-87,173 L-101,158 L-104,158 L-114,162 L-125,162 L-135,158 L-143,151 L-147,143 L-148,135 L-358,135 L-360,141 L-375,173 L-390,206 L-408,244 L-423,277 L-441,315 L-456,348 L-465,367 L-465,369 L-457,375 L-453,380 L-449,390 L-449,400 L-453,411 L-460,419 L-465,423 L-448,459 L-432,493 L-415,529 L-399,563 L-382,599 L-365,635 L-358,650 L-358,652 L-148,652 L-147,644 L-143,636 L-134,628 L-125,625 L-114,625 L-104,629 L-101,629 L-93,621 L-86,613 L-70,596 L-58,583 L-43,567 L-31,554 L-17,539 L-5,526 L0,521 L244,521 L244,525 L3,526 L-8,538 L-22,553 L-36,568 L-48,581 L-62,596 L-74,609 L-88,624 L-97,634 L-95,638 L-91,649 L-91,658 L-94,667 L-97,672 L-95,676 L-88,683 L-81,691 L-65,708 L-51,723 L-39,736 L-25,751 L-13,764 L1,779 L4,782 L244,783 L244,787 L0,787 L-9,778 L-16,770 L-32,753 L-44,740 L-58,725 L-70,712 L-84,697 L-96,684 L-101,678 L-107,680 L-116,683 L-123,683 L-133,680 L-142,673 L-148,661 L-148,656 L-362,656 L-379,620 L-395,586 L-412,550 L-428,516 L-444,482 L-461,446 L-471,425 L-484,424 L-492,421 L-501,413 L-505,405 L-506,402 L-506,389 L-502,379 L-494,371 L-485,367 L-476,366 L-471,366 L-457,336 L-444,308 L-431,280 L-418,252 L-399,211 L-385,181 L-372,153 L-362,131 L-148,131 L-147,123 L-141,113 L-133,107 L-124,104 L-115,104 L-106,107 L-101,110 L-99,106 L-89,96 L-82,88 L-66,71 L-54,58 L-40,43 L-28,30 L-14,15 L-2,2 Z M-124,108 L-134,112 L-142,121 L-144,126 L-144,140 L-140,148 L-135,153 L-129,157 L-125,158 L-114,158 L-104,153 L-98,146 L-95,138 L-95,128 L-98,120 L-104,113 L-111,109 L-115,108 Z M-481,370 L-490,373 L-498,380 L-502,389 L-502,402 L-497,412 L-489,418 L-484,420 L-471,420 L-463,416 L-455,407 L-453,401 L-453,390 L-456,382 L-461,376 L-470,371 Z M-126,629 L-134,633 L-139,637 L-144,647 L-144,661 L-140,669 L-132,676 L-124,679 L-115,679 L-106,675 L-100,670 L-96,663 L-95,659 L-95,649 L-99,639 L-108,631 L-114,629 Z "
     fill="#000000"
     transform="translate(562,92)"
     id="path10" />
  <path
     d="M0,0 L248,0 L248,4 L4,5 L-11,21 L-18,29 L-29,41 L-36,49 L-47,61 L-54,69 L-65,81 L-72,89 L-83,101 L-90,109 L-93,113 L-91,118 L-88,124 L-87,128 L-87,138 L-91,149 L-93,151 L-92,155 L-85,162 L-78,170 L-67,182 L-60,190 L-49,202 L-42,210 L-31,222 L-24,230 L-13,242 L-6,250 L4,261 L248,262 L248,266 L0,266 L-14,251 L-21,243 L-32,231 L-39,223 L-50,211 L-57,203 L-68,191 L-75,183 L-86,171 L-93,163 L-98,157 L-106,161 L-110,162 L-121,162 L-131,158 L-138,152 L-143,143 L-144,135 L-354,135 L-357,144 L-370,171 L-382,197 L-395,225 L-414,266 L-428,296 L-441,324 L-460,365 L-463,371 L-459,373 L-452,381 L-449,389 L-449,402 L-453,411 L-460,419 L-462,421 L-449,448 L-436,476 L-417,516 L-401,550 L-384,586 L-368,620 L-354,650 L-354,652 L-144,652 L-143,644 L-137,634 L-131,629 L-121,625 L-110,625 L-100,629 L-97,629 L-90,621 L-79,609 L-72,601 L-61,589 L-54,581 L-43,569 L-36,561 L-25,549 L-18,541 L-7,529 L0,521 L248,521 L248,525 L4,526 L-4,534 L-11,542 L-22,554 L-29,562 L-40,574 L-47,582 L-58,594 L-65,602 L-76,614 L-83,622 L-93,633 L-92,637 L-88,645 L-87,649 L-87,659 L-90,668 L-93,672 L-91,677 L-83,685 L-76,693 L-65,705 L-58,713 L-47,725 L-40,733 L-29,745 L-22,753 L-11,765 L-4,773 L4,782 L248,783 L248,787 L0,787 L-12,774 L-19,766 L-30,754 L-37,746 L-48,734 L-55,726 L-66,714 L-73,706 L-84,694 L-91,686 L-98,678 L-107,682 L-112,683 L-119,683 L-129,680 L-137,674 L-143,664 L-144,656 L-358,656 L-371,628 L-389,590 L-406,554 L-422,520 L-438,486 L-455,450 L-467,424 L-484,424 L-493,420 L-500,414 L-505,404 L-506,400 L-506,391 L-503,382 L-499,376 L-492,370 L-485,367 L-476,366 L-467,368 L-465,362 L-446,321 L-432,291 L-413,250 L-399,220 L-386,192 L-373,164 L-360,136 L-358,131 L-144,131 L-143,123 L-137,113 L-129,107 L-120,104 L-111,104 L-102,107 L-98,109 L-85,95 L-78,87 L-67,75 L-60,67 L-49,55 L-42,47 L-31,35 L-24,27 L-13,15 L-6,7 Z M-120,108 L-130,112 L-138,121 L-140,127 L-140,140 L-136,148 L-129,155 L-121,158 L-110,158 L-101,154 L-94,146 L-91,139 L-91,127 L-96,117 L-103,111 L-111,108 Z M-480,370 L-489,373 L-496,378 L-500,384 L-502,390 L-502,401 L-498,410 L-491,417 L-484,420 L-471,420 L-461,415 L-455,407 L-453,402 L-453,389 L-458,379 L-465,373 L-474,370 Z M-122,629 L-130,633 L-137,640 L-140,647 L-140,660 L-136,669 L-128,676 L-120,679 L-111,679 L-103,676 L-96,670 L-91,660 L-91,648 L-96,638 L-104,631 L-110,629 Z "
     fill="#000000"
     transform="translate(1506,92)"
     id="path12" />
  <path
     d="M0,0 L23,0 L23,4 L5,4 L5,14 L21,14 L21,18 L5,18 L5,33 L0,33 Z "
     fill="#000000"
     transform="translate(1274,155)"
     id="path14" />
  <path
     d="M0,0 L24,0 L24,4 L5,4 L5,14 L23,14 L23,18 L5,18 L5,29 L25,29 L25,33 L0,33 Z "
     fill="#000000"
     transform="translate(322,159)"
     id="path16" />
  <path
     d="M0,0 L23,0 L23,4 L5,4 L5,14 L21,14 L21,18 L5,18 L5,33 L0,33 Z "
     fill="#000000"
     transform="translate(680,287)"
     id="path18" />
  <path
     d="M0,0 L24,0 L24,4 L4,4 L4,14 L22,14 L22,18 L4,18 L4,29 L24,29 L24,33 L0,33 Z "
     fill="#000000"
     transform="translate(1621,287)"
     id="path22" />
  <path
     d="M0,0 L4,0 L5,10 L9,8 L16,9 L20,13 L21,15 L21,26 L17,32 L13,34 L6,33 L4,33 L0,33 Z M8,12 L4,16 L4,26 L8,30 L15,29 L17,25 L17,17 L14,12 Z "
     fill="#000000"
     transform="translate(868,337)"
     id="path26" />
  <path
     d="M0,0 L6,0 L11,3 L12,9 L8,9 L6,5 L0,5 L-3,10 L-3,17 L-1,21 L5,21 L9,16 L12,16 L11,22 L7,25 L0,26 L-5,23 L-8,18 L-8,8 L-4,2 Z "
     fill="#000000"
     transform="translate(1813,345)"
     id="path28" />
  <path
     d="M0,0 L23,0 L23,4 L5,4 L5,14 L21,14 L21,18 L5,18 L5,33 L0,33 Z "
     fill="#000000"
     transform="translate(680,545)"
     id="path30" />
  <path
     d="M0,0 L24,0 L24,4 L4,4 L4,14 L22,14 L22,18 L4,18 L4,29 L24,29 L24,33 L0,33 Z "
     fill="#000000"
     transform="translate(1621,549)"
     id="path32" />
  <path
     d="M0,0 L4,0 L5,10 L8,8 L16,9 L20,14 L21,23 L18,30 L13,34 L6,33 L3,31 L3,33 L0,33 Z M7,12 L4,15 L3,23 L5,28 L7,30 L13,30 L16,26 L17,20 L15,14 L13,12 Z "
     fill="#000000"
     transform="translate(1809,595)"
     id="path34" />
  <path
     d="M0,0 L9,1 L12,4 L13,9 L8,8 L6,5 L0,5 L-2,8 L-2,18 L0,21 L6,21 L9,16 L13,17 L11,22 L8,25 L1,26 L-5,23 L-8,16 L-7,7 L-2,1 Z "
     fill="#000000"
     transform="translate(872,603)"
     id="path36" />
  <path
     d="M0,0 L23,0 L23,4 L5,4 L5,14 L21,14 L21,18 L5,18 L5,33 L0,33 Z "
     fill="#000000"
     transform="translate(1274,676)"
     id="path38" />
  <path
     d="M0,0 L24,0 L24,4 L5,4 L5,14 L23,14 L23,18 L5,18 L5,29 L25,29 L25,33 L0,33 Z "
     fill="#000000"
     transform="translate(322,680)"
     id="path42" />
  <path
     d="M0,0 L23,0 L23,4 L5,4 L5,14 L21,14 L21,18 L5,18 L5,33 L0,33 Z "
     fill="#000000"
     transform="translate(680,811)"
     id="path46" />
  <path
     d="M0,0 L24,0 L24,4 L4,4 L4,14 L22,14 L22,18 L4,18 L4,29 L24,29 L24,33 L0,33 Z "
     fill="#000000"
     transform="translate(1621,811)"
     id="path50" />
  <path
     d="M0,0 L4,0 L4,33 L-1,32 L-5,34 L-12,33 L-16,29 L-17,26 L-17,16 L-13,10 L-8,8 L-2,9 L-1,10 Z M-9,12 L-13,17 L-13,25 L-11,29 L-9,30 L-3,30 L0,26 L0,16 L-4,12 Z "
     fill="#000000"
     transform="translate(882,857)"
     id="path54" />
  <path
     d="M0,0 L3,0 L3,33 L0,33 L-1,31 L-5,34 L-12,33 L-17,28 L-18,18 L-15,12 L-12,9 L-6,8 L0,11 Z M-9,12 L-13,16 L-13,26 L-10,30 L-4,30 L-1,27 L0,18 L-3,13 L-4,12 Z "
     fill="#000000"
     transform="translate(1823,857)"
     id="path56" />
  <text
     xml:space="preserve"
     style="fill:#ffffff;stroke:#f6f6ff;stroke-width:3.425"
     x="722.53168"
     y="805.59436"
     id="text954"><tspan
       id="tspan952"
       x="722.53168"
       y="805.59436">c</tspan></text>
  <text
     xml:space="preserve"
     style="fill:#ffffff;stroke:#f6f6ff;stroke-width:3.425"
     x="1157.1885"
     y="821.52417"
     id="text1012"><tspan
       id="tspan1010"
       x="1157.1885"
       y="821.52417">c</tspan></text>
  <text
     xml:space="preserve"
     style="font-style:normal;font-variant:normal;font-weight:normal;font-stretch:normal;font-size:32px;font-family:'Arial Black';-inkscape-font-specification:'Arial Black, Normal';font-variant-ligatures:normal;font-variant-caps:normal;font-variant-numeric:normal;font-variant-east-asian:normal;fill:#333333;fill-opacity:1;stroke:#f6f6ff;stroke-width:3.425"
     x="711.63379"
     y="828.15497"
     id="text1827"><tspan
       id="tspan1825"
       x="711.63379"
       y="828.15497"
       style="font-style:normal;font-variant:normal;font-weight:normal;font-stretch:normal;font-size:32px;font-family:'Arial Black';-inkscape-font-specification:'Arial Black, Normal';font-variant-ligatures:normal;font-variant-caps:normal;font-variant-numeric:normal;font-variant-east-asian:normal;fill:#333333;fill-opacity:1;stroke-width:3.425">C</tspan></text>
  <text
     xml:space="preserve"
     style="font-style:normal;font-variant:normal;font-weight:normal;font-stretch:normal;font-size:32px;font-family:'Arial Black';-inkscape-font-specification:'Arial Black, Normal';font-variant-ligatures:normal;font-variant-caps:normal;font-variant-numeric:normal;font-variant-east-asian:normal;fill:#333333;fill-opacity:1;stroke:#f6f6ff;stroke-width:3.425"
     x="709.87537"
     y="302.73364"
     id="text1827-1"><tspan
       id="tspan1825-9"
       x="709.87537"
       y="302.73364"
       style="font-style:normal;font-variant:normal;font-weight:normal;font-stretch:normal;font-size:32px;font-family:'Arial Black';-inkscape-font-specification:'Arial Black, Normal';font-variant-ligatures:normal;font-variant-caps:normal;font-variant-numeric:normal;font-variant-east-asian:normal;fill:#333333;fill-opacity:1;stroke-width:3.425">C</tspan></text>
  <text
     xml:space="preserve"
     style="font-style:normal;font-variant:normal;font-weight:normal;font-stretch:normal;font-size:32px;font-family:'Arial Black';-inkscape-font-specification:'Arial Black, Normal';font-variant-ligatures:normal;font-variant-caps:normal;font-variant-numeric:normal;font-variant-east-asian:normal;fill:#333333;fill-opacity:1;stroke:#f6f6ff;stroke-width:3.425"
     x="1301.5548"
     y="693.01453"
     id="text1827-3"><tspan
       id="tspan1825-8"
       x="1301.5548"
       y="693.01453"
       style="font-style:normal;font-variant:normal;font-weight:normal;font-stretch:normal;font-size:32px;font-family:'Arial Black';-inkscape-font-specification:'Arial Black, Normal';font-variant-ligatures:normal;font-variant-caps:normal;font-variant-numeric:normal;font-variant-east-asian:normal;fill:#333333;fill-opacity:1;stroke-width:3.425">C</tspan></text>
  <text
     xml:space="preserve"
     style="font-style:normal;font-variant:normal;font-weight:normal;font-stretch:normal;font-size:32px;font-family:'Arial Black';-inkscape-font-specification:'Arial Black, Normal';font-variant-ligatures:normal;font-variant-caps:normal;font-variant-numeric:normal;font-variant-east-asian:normal;fill:#333333;fill-opacity:1;stroke:#f6f6ff;stroke-width:3.425"
     x="1652.0112"
     y="301.59579"
     id="text1827-36"><tspan
       id="tspan1825-91"
       x="1652.0112"
       y="301.59579"
       style="font-style:normal;font-variant:normal;font-weight:normal;font-stretch:normal;font-size:32px;font-family:'Arial Black';-inkscape-font-specification:'Arial Black, Normal';font-variant-ligatures:normal;font-variant-caps:normal;font-variant-numeric:normal;font-variant-east-asian:normal;fill:#333333;fill-opacity:1;stroke-width:3.425">C</tspan></text>
  <text
     xml:space="preserve"
     style="font-style:normal;font-variant:normal;font-weight:normal;font-stretch:normal;font-size:32px;font-family:'Arial Black';-inkscape-font-specification:'Arial Black, Normal';font-variant-ligatures:normal;font-variant-caps:normal;font-variant-numeric:normal;font-variant-east-asian:normal;fill:#333333;fill-opacity:1;stroke:#f6f6ff;stroke-width:3.425"
     x="1650.8733"
     y="826.1424"
     id="text1827-4"><tspan
       id="tspan1825-6"
       x="1650.8733"
       y="826.1424"
       style="font-style:normal;font-variant:normal;font-weight:normal;font-stretch:normal;font-size:32px;font-family:'Arial Black';-inkscape-font-specification:'Arial Black, Normal';font-variant-ligatures:normal;font-variant-caps:normal;font-variant-numeric:normal;font-variant-east-asian:normal;fill:#333333;fill-opacity:1;stroke-width:3.425">C</tspan></text>
  <text
     xml:space="preserve"
     style="font-style:normal;font-variant:normal;font-weight:normal;font-stretch:normal;font-size:32px;font-family:'Arial Black';-inkscape-font-specification:'Arial Black, Normal';font-variant-ligatures:normal;font-variant-caps:normal;font-variant-numeric:normal;font-variant-east-asian:normal;fill:#333333;fill-opacity:1;stroke:#f6f6ff;stroke-width:3.425"
     x="354.86771"
     y="691.87671"
     id="text1827-2"><tspan
       id="tspan1825-4"
       x="354.86771"
       y="691.87671"
       style="font-style:normal;font-variant:normal;font-weight:normal;font-stretch:normal;font-size:32px;font-family:'Arial Black';-inkscape-font-specification:'Arial Black, Normal';font-variant-ligatures:normal;font-variant-caps:normal;font-variant-numeric:normal;font-variant-east-asian:normal;fill:#333333;fill-opacity:1;stroke-width:3.425">C</tspan></text>
</svg>
