<?xml version="1.0" encoding="UTF-8" standalone="no"?>
<!-- Generator: visioncortex VTracer 0.6.12 -->

<svg
   version="1.1"
   width="1876"
   height="538"
   id="svg49227"
   xmlns="http://www.w3.org/2000/svg"
   xmlns:svg="http://www.w3.org/2000/svg">
  <defs
     id="defs49231" />
  <path
     d="M0,0 L10,0 L17,4 L20,10 L20,12 L15,12 L12,7 L7,5 L-1,6 L-4,7 L-6,12 L-7,20 L-5,28 L-1,32 L7,33 L13,30 L16,22 L5,22 L5,18 L21,18 L21,37 L17,37 L15,34 L11,37 L8,38 L0,38 L-8,34 L-12,27 L-13,18 L-11,9 L-5,2 Z "
     fill="#000000"
     transform="translate(1030,19)"
     id="path49207" />
  <path
     d="M0,0 L8,0 L14,5 L16,12 L16,23 L13,31 L9,35 L7,36 L0,36 L-6,31 L-8,26 L-8,10 L-4,2 Z M1,4 L-3,9 L-4,21 L-2,29 L1,32 L8,31 L11,25 L11,11 L9,6 L7,4 Z "
     fill="#000000"
     transform="translate(797,59)"
     id="path49209" />
  <path
     d="M0,0 L10,0 L15,5 L15,9 L11,9 L8,5 L1,5 L-2,10 L-2,15 L0,13 L6,12 L13,15 L16,20 L16,28 L12,34 L7,36 L1,36 L-5,32 L-8,26 L-8,12 L-5,4 Z M4,16 L-1,18 L-3,21 L-3,27 L2,32 L9,31 L11,28 L11,20 L8,17 Z "
     fill="#000000"
     transform="translate(839,59)"
     id="path49211" />
  <path
     d="M0,0 L5,0 L5,5 L0,5 Z "
     fill="#000000"
     transform="translate(819,89)"
     id="path49213" />
  <path
     d="M0,0 L307,1 L307,5 L3,6 L-124,133 L-119,144 L-118,148 L-118,160 L-122,171 L-124,175 L3,302 L307,303 L307,307 L-1,307 L-128,180 L-133,182 L-140,185 L-155,185 L-165,180 L-172,172 L-176,163 L-177,158 L-177,150 L-174,139 L-168,131 L-160,125 L-150,122 L-140,123 L-130,128 L-126,126 Z M-154,127 L-162,131 L-169,139 L-172,146 L-173,156 L-171,165 L-165,174 L-160,178 L-153,181 L-141,181 L-133,177 L-125,168 L-122,159 L-122,149 L-125,140 L-134,130 L-141,127 Z "
     fill="#000000"
     transform="translate(880,93)"
     id="path49215" />
  <path
     d="M0,0 L8,0 L14,5 L16,12 L16,23 L13,31 L9,35 L7,36 L0,36 L-6,31 L-8,26 L-8,10 L-4,2 Z M1,4 L-3,9 L-4,21 L-2,29 L1,32 L8,31 L11,25 L11,11 L9,6 L7,4 Z "
     fill="#000000"
     transform="translate(797,391)"
     id="path49217" />
  <path
     d="M0,0 L4,0 L5,22 L9,23 L9,26 L5,27 L4,35 L0,35 L-1,27 L-16,26 L-15,20 L-3,4 Z M-1,7 L-11,21 L-11,23 L-1,23 L0,22 L0,7 Z "
     fill="#000000"
     transform="translate(846,391)"
     id="path49219" />
  <path
     d="M0,0 L5,0 L5,5 L0,5 Z "
     fill="#000000"
     transform="translate(819,421)"
     id="path49221" />
  <path
     d="M0,0 L10,0 L17,4 L20,10 L20,12 L15,12 L12,7 L7,5 L-1,6 L-4,7 L-6,12 L-7,20 L-5,28 L-1,32 L7,33 L13,30 L16,22 L5,22 L5,18 L21,18 L21,37 L17,37 L15,34 L11,37 L8,38 L0,38 L-8,34 L-12,27 L-13,18 L-11,9 L-5,2 Z "
     fill="#000000"
     transform="translate(1038,435)"
     id="path49223" />
  <text
     xml:space="preserve"
     style="font-size:32px;font-family:'Arial Black';-inkscape-font-specification:'Arial Black, Normal';fill:#333333;stroke:#f6f6ff;stroke-width:3.425"
     x="1062.3438"
     y="449.44531"
     id="text6687-32"><tspan
       id="tspan6685-8"
       x="1062.3438"
       y="449.44531">C</tspan></text>
</svg>
