<?xml version="1.0" encoding="UTF-8" standalone="no"?>
<!-- Generator: visioncortex VTracer 0.6.12 -->

<svg
   version="1.1"
   width="1876"
   height="467"
   id="svg33764"
   xmlns="http://www.w3.org/2000/svg"
   xmlns:svg="http://www.w3.org/2000/svg">
  <defs
     id="defs33768" />
  <path
     d="M0,0 L10,0 L17,4 L20,10 L20,12 L15,12 L11,6 L2,5 L-4,8 L-6,12 L-7,20 L-5,28 L-1,32 L7,33 L13,30 L16,22 L5,22 L5,18 L20,18 L20,37 L17,37 L15,34 L11,37 L8,38 L0,38 L-8,34 L-12,27 L-13,18 L-11,9 L-5,2 Z "
     fill="#000000"
     transform="translate(1017,33)"
     id="path33746" />
  <path
     d="m 1060.9364,44.894068 h 4 v 35 h -5 v -25 h -8 v -4 l 7,-2 z"
     fill="#000000"
     id="path33748" />
  <path
     d="M0,0 L307,0 L307,4 L4,5 L-125,134 L-124,138 L-120,140 L-59,118 L-4,98 L-1,97 L307,97 L307,101 L4,102 L-44,119 L-88,135 L-118,146 L-117,163 L-68,182 L-22,200 L4,210 L307,211 L307,215 L-1,215 L-50,196 L-96,178 L-121,168 L-123,175 L-75,223 L-68,231 L3,302 L307,303 L307,308 L0,308 L-128,180 L-133,182 L-141,185 L-157,185 L-167,181 L-175,174 L-180,164 L-181,160 L-181,152 L-177,141 L-170,133 L-161,128 L-148,126 L-138,128 L-131,131 Z M-156,131 L-165,135 L-172,141 L-176,149 L-177,158 L-174,168 L-167,176 L-159,180 L-156,181 L-143,181 L-133,177 L-126,170 L-122,161 L-122,151 L-125,143 L-133,135 L-142,131 Z "
     fill="#000000"
     transform="translate(882,116)"
     id="path33750" />
  <path
     d="M0,0 L10,0 L17,4 L20,10 L20,12 L15,12 L11,6 L2,5 L-4,8 L-6,12 L-7,20 L-5,28 L-1,32 L7,33 L13,30 L16,22 L5,22 L5,18 L20,18 L20,37 L17,37 L15,34 L11,37 L8,38 L0,38 L-8,34 L-12,27 L-13,18 L-11,9 L-5,2 Z "
     fill="#000000"
     transform="translate(1013,147)"
     id="path33752" />
  <path
     d="m 1051.9364,158.89407 h 11 l 5,5 1,2 v 6 l -4,6 -13,8 -2,4 h 19 v 4 h -24 l 1,-8 4,-5 10,-6 h 2 l 1,-9 -2,-2 h -7 l -3,3 -1,4 h -5 l 2,-8 z"
     fill="#000000"
     id="path33754" />
  <path
     d="M0,0 L10,0 L17,4 L20,10 L20,12 L15,12 L11,6 L2,5 L-4,8 L-6,12 L-7,20 L-5,28 L-1,32 L7,33 L13,30 L16,22 L5,22 L5,18 L20,18 L20,37 L17,37 L15,34 L11,37 L8,38 L0,38 L-8,34 L-12,27 L-13,18 L-11,9 L-5,2 Z "
     fill="#000000"
     transform="translate(1017,260)"
     id="path33756" />
  <path
     d="m 1054.9364,271.89407 h 11 l 5,5 v 8 l -1,2 h -2 v 2 l 3,1 2,4 -1,8 -5,5 -3,1 h -8 l -6,-4 -2,-5 v -3 h 5 l 2,6 2,1 h 6 l 4,-3 v -6 l -2,-2 -7,-1 v -4 l 7,-2 1,-6 -2,-2 h -9 l -1,6 h -5 l 1,-6 z"
     fill="#000000"
     id="path33758" />
  <path
     d="M0,0 L10,0 L17,4 L20,10 L20,12 L15,12 L11,6 L2,5 L-4,8 L-6,12 L-7,20 L-5,28 L-1,32 L7,33 L13,30 L16,22 L5,22 L5,18 L20,18 L20,37 L17,37 L15,34 L11,37 L8,38 L0,38 L-8,34 L-12,27 L-13,18 L-11,9 L-5,2 Z "
     fill="#000000"
     transform="translate(1017,365)"
     id="path33760" />
  <path
     d="m 1063.9364,376.89407 h 4 l 1,22 4,1 v 3 h -5 v 9 h -4 l -1,-8 -15,-1 1,-6 12,-16 z m -1,7 -10,14 v 2 h 10 l 1,-1 v -15 z"
     fill="#000000"
     id="path33762" />
</svg>
