<?xml version="1.0" encoding="UTF-8" standalone="no"?>
<!-- Generator: visioncortex VTracer 0.6.12 -->

<svg
   version="1.1"
   width="1876"
   height="1218"
   id="svg22245"
   xmlns="http://www.w3.org/2000/svg"
   xmlns:svg="http://www.w3.org/2000/svg">
  <defs
     id="defs22249" />
  <path
     d="M0,0 L7,0 L16,26 L16,29 L18,29 L20,20 L27,0 L34,0 L34,36 L30,36 L29,9 L20,36 L14,36 L5,9 L4,36 L0,36 Z "
     fill="#000000"
     transform="translate(1383,16)"
     id="path22145" />
  <path
     d="M0,0 L9,0 L15,3 L19,8 L20,12 L15,12 L12,7 L3,5 L-4,7 L-6,12 L-7,21 L-4,30 L2,33 L10,32 L14,28 L16,22 L5,22 L4,18 L20,18 L20,37 L17,37 L15,34 L11,37 L8,38 L-1,38 L-9,33 L-12,27 L-13,17 L-10,8 L-6,3 Z "
     fill="#000000"
     transform="translate(935,69)"
     id="path22147" />
  <path
     d="M0,0 L9,0 L15,3 L19,8 L20,12 L15,12 L12,7 L3,5 L-4,7 L-6,12 L-7,21 L-4,30 L2,33 L10,32 L14,28 L16,22 L5,22 L4,18 L20,18 L20,37 L17,37 L15,34 L11,37 L8,38 L-1,38 L-9,33 L-12,27 L-13,17 L-10,8 L-6,3 Z "
     fill="#000000"
     transform="translate(1637,73)"
     id="path22149" />
  <path
     d="M0,0 L19,0 L25,4 L26,11 L23,17 L27,21 L27,30 L22,35 L19,36 L0,36 Z M5,4 L4,5 L4,15 L18,15 L21,12 L20,6 L17,4 Z M5,19 L4,20 L4,31 L5,32 L18,32 L22,29 L23,25 L20,20 L18,19 Z "
     fill="#000000"
     transform="translate(1592,74)"
     id="path22151" />
  <path
     d="M0,0 L7,0 L16,26 L16,29 L18,29 L20,20 L27,0 L34,0 L34,36 L30,36 L29,9 L20,36 L14,36 L5,9 L4,36 L0,36 Z "
     fill="#000000"
     transform="translate(1665,74)"
     id="path22153" />
  <path
     d="M0,0 L306,0 L306,4 L5,5 L-117,66 L-116,71 L-116,80 L-119,89 L-113,91 L5,150 L306,151 L306,155 L0,155 L-120,95 L-124,96 L-132,102 L-142,105 L-149,105 L-159,102 L-168,95 L-173,86 L-174,80 L-447,81 L-573,207 L-568,217 L-567,222 L-567,230 L-570,239 L-574,245 L-574,248 L-447,375 L-175,376 L-173,366 L-168,357 L-159,350 L-149,347 L-142,347 L-132,350 L-124,356 L-121,360 L-116,359 L0,301 L306,301 L306,305 L5,306 L-117,367 L-116,372 L-116,381 L-119,390 L-113,392 L-77,410 L-58,420 L2,450 L5,451 L306,452 L306,456 L0,456 L-120,396 L-124,397 L-132,403 L-141,406 L-150,406 L-161,402 L-168,396 L-172,390 L-174,385 L-174,381 L-451,381 L-458,373 L-579,252 L-584,253 L-590,255 L-603,255 L-612,251 L-620,244 L-625,234 L-625,230 L-897,231 L-1032,501 L-1027,506 L-1021,514 L-1018,524 L-1019,535 L-1024,545 L-1031,552 L-1033,553 L-1031,559 L-925,771 L-914,794 L-898,826 L-898,828 L-626,828 L-625,820 L-620,810 L-611,802 L-603,799 L-590,799 L-581,803 L-577,804 L-450,677 L-175,678 L-173,667 L-168,658 L-159,651 L-154,649 L-142,648 L-132,651 L-124,657 L-119,662 L-1,603 L0,602 L305,602 L306,606 L5,607 L-117,668 L-116,673 L-116,682 L-118,691 L4,752 L306,753 L306,757 L0,757 L-120,697 L-124,698 L-130,703 L-136,706 L-141,707 L-150,707 L-161,703 L-169,696 L-174,686 L-174,682 L-447,683 L-573,809 L-568,820 L-567,824 L-567,832 L-570,842 L-574,847 L-573,851 L-446,978 L-175,979 L-173,968 L-169,961 L-164,956 L-159,952 L-148,949 L-137,950 L-127,955 L-120,963 L-101,954 L1,903 L305,903 L306,907 L305,908 L3,909 L-117,969 L-116,974 L-116,983 L-118,992 L4,1053 L306,1054 L306,1058 L0,1058 L-120,998 L-124,999 L-130,1004 L-140,1008 L-150,1008 L-161,1004 L-169,997 L-174,987 L-174,983 L-451,983 L-572,862 L-579,854 L-584,855 L-589,857 L-604,857 L-614,852 L-621,845 L-625,837 L-626,833 L-902,832 L-1040,556 L-1055,556 L-1065,551 L-1070,546 L-1075,539 L-1077,532 L-1077,523 L-1074,513 L-1065,503 L-1057,499 L-1054,498 L-1041,498 L-1037,499 L-1035,493 L-1012,446 L-902,226 L-626,226 L-625,218 L-620,208 L-611,200 L-603,197 L-590,197 L-580,201 L-576,201 L-450,75 L-175,75 L-173,65 L-170,59 L-164,52 L-154,47 L-150,46 L-141,46 L-130,50 L-122,57 L-121,59 L-116,58 Z M-148,50 L-157,53 L-163,57 L-169,66 L-170,69 L-170,82 L-165,92 L-157,98 L-153,100 L-144,101 L-135,99 L-127,93 L-122,86 L-120,79 L-120,72 L-123,63 L-130,55 L-138,51 Z M-602,201 L-611,205 L-618,212 L-621,219 L-622,227 L-620,236 L-616,242 L-608,249 L-602,251 L-591,251 L-582,247 L-575,240 L-572,233 L-571,224 L-574,214 L-581,206 L-588,202 L-591,201 Z M-147,351 L-155,353 L-164,359 L-169,367 L-170,370 L-170,383 L-165,393 L-158,399 L-148,402 L-138,401 L-130,397 L-123,389 L-120,380 L-120,373 L-123,364 L-130,356 L-138,352 Z M-1053,502 L-1062,506 L-1069,513 L-1073,524 L-1072,535 L-1066,545 L-1057,551 L-1053,552 L-1042,552 L-1033,548 L-1026,541 L-1023,534 L-1023,520 L-1027,512 L-1035,505 L-1043,502 Z M-146,652 L-155,654 L-164,660 L-169,668 L-170,671 L-170,684 L-165,694 L-158,700 L-148,703 L-138,702 L-130,698 L-123,690 L-120,681 L-121,670 L-125,662 L-132,656 L-138,653 Z M-601,803 L-611,807 L-618,814 L-621,821 L-622,829 L-620,838 L-614,847 L-606,852 L-602,853 L-591,853 L-583,850 L-578,846 L-573,838 L-571,830 L-572,821 L-576,813 L-584,806 L-592,803 Z M-152,954 L-162,959 L-168,967 L-170,972 L-170,985 L-165,995 L-158,1001 L-149,1004 L-142,1004 L-131,1000 L-124,993 L-120,982 L-121,971 L-125,963 L-132,957 L-139,954 Z "
     fill="#000000"
     transform="translate(1245,89)"
     id="path22155" />
  <path
     d="M0,0 L25,0 L25,4 L6,5 L5,15 L23,15 L23,20 L5,20 L5,36 L0,36 Z "
     fill="#000000"
     transform="translate(1388,174)"
     id="path22157" />
  <path
     d="M0,0 L19,0 L25,4 L26,11 L23,17 L27,21 L27,30 L22,35 L19,36 L0,36 Z M5,4 L4,5 L4,15 L18,15 L21,12 L20,6 L17,4 Z M5,19 L4,20 L4,31 L5,32 L18,32 L22,29 L23,25 L20,20 L18,19 Z "
     fill="#000000"
     transform="translate(473,220)"
     id="path22159" />
  <path
     d="M0,0 L9,0 L15,3 L19,8 L20,12 L15,12 L12,7 L3,5 L-4,7 L-6,12 L-7,21 L-4,30 L2,33 L10,32 L14,28 L16,22 L5,22 L4,18 L20,18 L20,37 L17,37 L15,34 L11,37 L8,38 L-1,38 L-9,33 L-12,27 L-13,17 L-10,8 L-6,3 Z "
     fill="#000000"
     transform="translate(1637,224)"
     id="path22161" />
  <path
     d="M0,0 L19,0 L25,4 L26,11 L23,17 L27,21 L27,30 L22,35 L19,36 L0,36 Z M5,4 L4,5 L4,15 L18,15 L21,12 L20,6 L17,4 Z M5,19 L4,20 L4,31 L5,32 L18,32 L22,29 L23,25 L20,20 L18,19 Z "
     fill="#000000"
     transform="translate(1592,225)"
     id="path22163" />
  <path
     d="M0,0 L25,0 L25,4 L6,5 L5,15 L23,15 L23,20 L5,20 L5,36 L0,36 Z "
     fill="#000000"
     transform="translate(1665,225)"
     id="path22165" />
  <path
     d="M0,0 L7,0 L16,26 L16,29 L18,29 L20,20 L27,0 L34,0 L34,36 L30,36 L29,9 L20,36 L14,36 L5,9 L4,36 L0,36 Z "
     fill="#000000"
     transform="translate(1383,317)"
     id="path22167" />
  <path
     d="M0,0 L9,0 L15,3 L19,8 L20,12 L15,12 L12,7 L3,5 L-4,7 L-6,12 L-7,21 L-4,30 L2,33 L10,32 L14,28 L16,22 L5,22 L4,18 L20,18 L20,37 L17,37 L15,34 L11,37 L8,38 L-1,38 L-9,33 L-12,27 L-13,17 L-10,8 L-6,3 Z "
     fill="#000000"
     transform="translate(1637,374)"
     id="path22169" />
  <path
     d="M0,0 L19,0 L25,4 L26,11 L23,17 L27,21 L27,30 L22,35 L19,36 L0,36 Z M5,4 L4,5 L4,15 L18,15 L21,12 L20,6 L17,4 Z M5,19 L4,20 L4,31 L5,32 L18,32 L22,29 L23,25 L20,20 L18,19 Z "
     fill="#000000"
     transform="translate(1592,375)"
     id="path22171" />
  <path
     d="m 1693,375.5 h 7 l 9,26 v 3 h 2 l 2,-9 7,-20 h 7 v 36 h -4 l -1,-27 -9,27 h -6 l -9,-27 -1,27 h -4 z"
     fill="#000000"
     id="path22175" />
  <path
     d="M0,0 L9,0 L15,3 L19,8 L20,12 L15,12 L12,7 L3,5 L-4,7 L-6,12 L-7,21 L-4,30 L2,33 L10,32 L14,28 L16,22 L5,22 L4,18 L20,18 L20,37 L17,37 L15,34 L11,37 L8,38 L-1,38 L-9,33 L-12,27 L-13,17 L-10,8 L-6,3 Z "
     fill="#000000"
     transform="translate(939,383)"
     id="path22177" />
  <path
     d="M0,0 L25,0 L25,4 L6,5 L5,15 L23,15 L23,20 L5,20 L5,36 L0,36 Z "
     fill="#000000"
     transform="translate(1388,476)"
     id="path22181" />
  <path
     d="M0,0 L9,0 L15,3 L19,8 L20,12 L15,12 L12,7 L3,5 L-4,7 L-6,12 L-7,21 L-4,30 L2,33 L10,32 L14,28 L16,22 L5,22 L4,18 L20,18 L20,37 L17,37 L15,34 L11,37 L8,38 L-1,38 L-9,33 L-12,27 L-13,17 L-10,8 L-6,3 Z "
     fill="#000000"
     transform="translate(1633,525)"
     id="path22183" />
  <path
     d="M0,0 L19,0 L25,4 L26,11 L23,17 L27,21 L27,30 L22,35 L19,36 L0,36 Z M5,4 L4,5 L4,15 L18,15 L21,12 L20,6 L17,4 Z M5,19 L4,20 L4,31 L5,32 L18,32 L22,29 L23,25 L20,20 L18,19 Z "
     fill="#000000"
     transform="translate(1588,526)"
     id="path22185" />
  <path
     d="m 1689,526.5 h 25 v 4 l -19,1 -1,10 h 18 v 5 h -18 v 16 h -5 z"
     fill="#000000"
     id="path22189" />
  <path
     d="M0,0 L7,0 L16,26 L16,29 L18,29 L20,20 L27,0 L34,0 L34,36 L30,36 L29,9 L20,36 L14,36 L5,9 L4,36 L0,36 Z "
     fill="#000000"
     transform="translate(1383,618)"
     id="path22191" />
  <path
     d="m 1666.5,675 h 9 l 6,3 4,5 1,4 h -5 l -3,-5 -9,-2 -7,2 -2,5 -1,9 3,9 6,3 8,-1 4,-4 2,-6 h -11 l -1,-4 h 16 v 19 h -3 l -2,-3 -4,3 -3,1 h -9 l -8,-5 -3,-6 -1,-10 3,-9 4,-5 z"
     fill="#000000"
     id="path22193" />
  <path
     d="M0,0 L19,0 L25,4 L26,11 L23,17 L27,21 L27,30 L22,35 L19,36 L0,36 Z M5,4 L4,5 L4,15 L18,15 L21,12 L20,6 L17,4 Z M5,19 L4,20 L4,31 L5,32 L18,32 L22,29 L23,25 L20,20 L18,19 Z "
     fill="#000000"
     transform="translate(1592,676)"
     id="path22195" />
  <path
     d="m 1694.5,676 h 7 l 9,26 v 3 h 2 l 2,-9 7,-20 h 7 v 36 h -4 l -1,-27 -9,27 h -6 l -9,-27 -1,27 h -4 z"
     fill="#000000"
     id="path22199" />
  <path
     d="M0,0 L9,0 L15,3 L19,8 L20,12 L15,12 L12,7 L3,5 L-4,7 L-6,12 L-7,21 L-4,30 L2,33 L10,32 L14,28 L16,22 L5,22 L4,18 L20,18 L20,37 L17,37 L15,34 L11,37 L8,38 L-1,38 L-9,33 L-12,27 L-13,17 L-10,8 L-6,3 Z "
     fill="#000000"
     transform="translate(935,679)"
     id="path22201" />
  <path
     d="M0,0 L25,0 L25,4 L6,5 L5,15 L23,15 L23,20 L5,20 L5,36 L0,36 Z "
     fill="#000000"
     transform="translate(1388,777)"
     id="path22203" />
  <path
     d="M0,0 L19,0 L25,4 L26,11 L23,17 L27,21 L27,30 L22,35 L19,36 L0,36 Z M5,4 L4,5 L4,15 L18,15 L21,12 L20,6 L17,4 Z M5,19 L4,20 L4,31 L5,32 L18,32 L22,29 L23,25 L20,20 L18,19 Z "
     fill="#000000"
     transform="translate(469,823)"
     id="path22205" />
  <path
     d="m 1662.5,826 h 9 l 6,3 4,5 1,4 h -5 l -3,-5 -9,-2 -7,2 -2,5 -1,9 3,9 6,3 8,-1 4,-4 2,-6 h -11 l -1,-4 h 16 v 19 h -3 l -2,-3 -4,3 -3,1 h -9 l -8,-5 -3,-6 -1,-10 3,-9 4,-5 z"
     fill="#000000"
     id="path22209" />
  <path
     d="M0,0 L19,0 L25,4 L26,11 L23,17 L27,21 L27,30 L22,35 L19,36 L0,36 Z M5,4 L4,5 L4,15 L18,15 L21,12 L20,6 L17,4 Z M5,19 L4,20 L4,31 L5,32 L18,32 L22,29 L23,25 L20,20 L18,19 Z "
     fill="#000000"
     transform="translate(1588,827)"
     id="path22211" />
  <path
     d="m 1690.5,827 h 25 v 4 l -19,1 -1,10 h 18 v 5 h -18 v 16 h -5 z"
     fill="#000000"
     id="path22215" />
  <path
     d="M0,0 L7,0 L16,26 L16,29 L18,29 L20,20 L27,0 L34,0 L34,36 L30,36 L29,9 L20,36 L14,36 L5,9 L4,36 L0,36 Z "
     fill="#000000"
     transform="translate(1383,919)"
     id="path22217" />
  <path
     d="m 1657.5,977 h 9 l 6,3 4,5 1,4 h -5 l -3,-5 -9,-2 -7,2 -2,5 -1,9 3,9 6,3 8,-1 4,-4 2,-6 h -11 l -1,-4 h 16 v 19 h -3 l -2,-3 -4,3 -3,1 h -9 l -8,-5 -3,-6 -1,-10 3,-9 4,-5 z"
     fill="#000000"
     id="path22219" />
  <path
     d="M0,0 L19,0 L25,4 L26,11 L23,17 L27,21 L27,30 L22,35 L19,36 L0,36 Z M5,4 L4,5 L4,15 L18,15 L21,12 L20,6 L17,4 Z M5,19 L4,20 L4,31 L5,32 L18,32 L22,29 L23,25 L20,20 L18,19 Z "
     fill="#000000"
     transform="translate(1588,977)"
     id="path22221" />
  <path
     d="m 1709.5,978.5 h 7 l 9,26 v 3 h 2 l 2,-9 7,-20 h 7 v 36 h -4 l -1,-27 -9,27 h -6 l -9,-27 -1,27 h -4 z"
     fill="#000000"
     id="path22227" />
  <path
     d="M0,0 L9,0 L15,3 L19,8 L20,12 L15,12 L12,7 L3,5 L-4,7 L-6,12 L-7,21 L-4,30 L2,33 L10,32 L14,28 L16,22 L5,22 L4,18 L20,18 L20,37 L17,37 L15,34 L11,37 L8,38 L-1,38 L-9,33 L-12,27 L-13,17 L-10,8 L-6,3 Z "
     fill="#000000"
     transform="translate(939,993)"
     id="path22229" />
  <path
     d="M0,0 L25,0 L25,4 L6,5 L5,15 L23,15 L23,20 L5,20 L5,36 L0,36 Z "
     fill="#000000"
     transform="translate(1388,1078)"
     id="path22233" />
  <path
     d="m 1661.5,1128 h 9 l 6,3 4,5 1,4 h -5 l -3,-5 -9,-2 -7,2 -2,5 -1,9 3,9 6,3 8,-1 4,-4 2,-6 h -11 l -1,-4 h 16 v 19 h -3 l -2,-3 -4,3 -3,1 h -9 l -8,-5 -3,-6 -1,-10 3,-9 4,-5 z"
     fill="#000000"
     id="path22235" />
  <path
     d="M0,0 L19,0 L25,4 L26,11 L23,17 L27,21 L27,30 L22,35 L19,36 L0,36 Z M5,4 L4,5 L4,15 L18,15 L21,12 L20,6 L17,4 Z M5,19 L4,20 L4,31 L5,32 L18,32 L22,29 L23,25 L20,20 L18,19 Z "
     fill="#000000"
     transform="translate(1592,1128)"
     id="path22237" />
  <path
     d="m 1713.5,1129.5 h 25 v 4 l -19,1 -1,10 h 18 v 5 h -18 v 16 h -5 z"
     fill="#000000"
     id="path22243" />
  <text
     xml:space="preserve"
     style="font-size:32px;font-family:'Arial Black';-inkscape-font-specification:'Arial Black, Normal';fill:#333333;stroke:#f6f6ff;stroke-width:3.425"
     x="959.84375"
     y="399.94531"
     id="text6687-32"><tspan
       id="tspan6685-8"
       x="959.84375"
       y="399.94531">C</tspan></text>
  <text
     xml:space="preserve"
     style="font-size:32px;font-family:'Arial Black';-inkscape-font-specification:'Arial Black, Normal';fill:#333333;stroke:#f6f6ff;stroke-width:3.425"
     x="1656.8438"
     y="391.44531"
     id="text6687-32-3"><tspan
       id="tspan6685-8-4"
       x="1656.8438"
       y="391.44531">C</tspan></text>
  <text
     xml:space="preserve"
     style="font-size:32px;font-family:'Arial Black';-inkscape-font-specification:'Arial Black, Normal';fill:#333333;stroke:#f6f6ff;stroke-width:3.425"
     x="1654.3438"
     y="541.94531"
     id="text6687-32-9"><tspan
       id="tspan6685-8-2"
       x="1654.3438"
       y="541.94531">C</tspan></text>
  <text
     xml:space="preserve"
     style="font-size:32px;font-family:'Arial Black';-inkscape-font-specification:'Arial Black, Normal';fill:#333333;stroke:#f6f6ff;stroke-width:3.425"
     x="1621.3438"
     y="692.44531"
     id="text6687-32-2"><tspan
       id="tspan6685-8-5"
       x="1621.3438"
       y="692.44531">C</tspan></text>
  <text
     xml:space="preserve"
     style="font-size:32px;font-family:'Arial Black';-inkscape-font-specification:'Arial Black, Normal';fill:#333333;stroke:#f6f6ff;stroke-width:3.425"
     x="1616.3438"
     y="843.94531"
     id="text6687-32-28"><tspan
       id="tspan6685-8-0"
       x="1616.3438"
       y="843.94531">C</tspan></text>
  <text
     xml:space="preserve"
     style="font-size:32px;font-family:'Arial Black';-inkscape-font-specification:'Arial Black, Normal';fill:#333333;stroke:#f6f6ff;stroke-width:3.425"
     x="959.34375"
     y="1009.4453"
     id="text6687-32-25"><tspan
       id="tspan6685-8-8"
       x="959.34375"
       y="1009.4453">C</tspan></text>
  <text
     xml:space="preserve"
     style="font-size:32px;font-family:'Arial Black';-inkscape-font-specification:'Arial Black, Normal';fill:#333333;stroke:#f6f6ff;stroke-width:3.425"
     x="499.34375"
     y="839.44531"
     id="text6687-32-23"><tspan
       id="tspan6685-8-3"
       x="499.34375"
       y="839.44531">C</tspan></text>
  <text
     xml:space="preserve"
     style="font-size:32px;font-family:'Arial Black';-inkscape-font-specification:'Arial Black, Normal';fill:#333333;stroke:#f6f6ff;stroke-width:3.425"
     x="1678.8438"
     y="991.94531"
     id="text6687-32-30"><tspan
       id="tspan6685-8-7"
       x="1678.8438"
       y="991.94531">C</tspan></text>
  <text
     xml:space="preserve"
     style="font-size:32px;font-family:'Arial Black';-inkscape-font-specification:'Arial Black, Normal';fill:#333333;stroke:#f6f6ff;stroke-width:3.425"
     x="1684.8438"
     y="1144.4453"
     id="text6687-32-94"><tspan
       id="tspan6685-8-41"
       x="1684.8438"
       y="1144.4453">C</tspan></text>
  <text
     xml:space="preserve"
     style="font-size:32px;font-family:'Arial Black';-inkscape-font-specification:'Arial Black, Normal';fill:#333333;stroke:#f6f6ff;stroke-width:3.425"
     x="1615.3438"
     y="992.44531"
     id="text6687-32-4"><tspan
       id="tspan6685-8-73"
       x="1615.3438"
       y="992.44531">C</tspan></text>
  <text
     xml:space="preserve"
     style="font-size:32px;font-family:'Arial Black';-inkscape-font-specification:'Arial Black, Normal';fill:#333333;stroke:#f6f6ff;stroke-width:3.425"
     x="1621.3438"
     y="1144.4453"
     id="text6687-32-0"><tspan
       id="tspan6685-8-31"
       x="1621.3438"
       y="1144.4453">C</tspan></text>
</svg>
