<?xml version="1.0" encoding="UTF-8" standalone="no"?>
<!-- Generator: visioncortex VTracer 0.6.12 -->

<svg
   version="1.1"
   width="2050"
   height="2582"
   id="svg47835"
   sodipodi:docname="Figure3-23ex.svg"
   inkscape:version="1.2 (dc2aeda, 2022-05-15)"
   xmlns:inkscape="http://www.inkscape.org/namespaces/inkscape"
   xmlns:sodipodi="http://sodipodi.sourceforge.net/DTD/sodipodi-0.dtd"
   xmlns="http://www.w3.org/2000/svg"
   xmlns:svg="http://www.w3.org/2000/svg">
  <defs
     id="defs47839" />
  <sodipodi:namedview
     id="namedview47837"
     pagecolor="#ffffff"
     bordercolor="#000000"
     borderopacity="0.25"
     inkscape:showpageshadow="2"
     inkscape:pageopacity="0.0"
     inkscape:pagecheckerboard="0"
     inkscape:deskcolor="#d1d1d1"
     showgrid="false"
     inkscape:zoom="0.50373353"
     inkscape:cx="1116.6618"
     inkscape:cy="676.94521"
     inkscape:window-width="1459"
     inkscape:window-height="1136"
     inkscape:window-x="1021"
     inkscape:window-y="36"
     inkscape:window-maximized="0"
     inkscape:current-layer="svg47835" />
  <path
     d="m 1747.9378,140.97813 h 4 v 35 h -5 v -25 h -8 v -3 l 7,-3 z"
     fill="#000000"
     id="path47475" />
  <path
     d="m 1771.9378,140.97813 h 7 l 5,3 3,5 1,5 v 9 l -3,9 -4,4 -2,1 h -7 l -6,-5 -2,-5 v -16 l 3,-6 z m 1,4 -4,5 -1,13 2,7 3,3 h 5 l 4,-4 1,-4 v -12 l -3,-7 z"
     fill="#000000"
     id="path47477" />
  <path
     d="m 1799.9378,140.97813 h 7 l 5,3 3,5 1,5 v 9 l -3,9 -4,4 -2,1 h -7 l -6,-5 -2,-5 v -16 l 3,-6 z m 1,4 -4,5 -1,13 2,7 3,3 h 5 l 4,-4 1,-4 v -12 l -3,-7 z"
     fill="#000000"
     id="path47479" />
  <path
     d="m 1430.9378,158.97813 h 192 v 4 l -188,1 -61,61 3,10 v 7 l -3,10 60,60 193,1 1,4 -1,1 h -196 l -62,-62 -8,3 h -10 l -8,-4 -6,-7 -2,-5 v -5 h -276 l -3,9 -23,53 -23,54 -24.00004,56 -16,37 -12,28 1,1 v 21 l 128.00004,-1 -18,-18 2,-1 57,19 208,1 1,-6 6,-7 6,-3 9,-1 9,3 4,-1 60,-60 h 192 v 4 l -188,1 -61,61 3,10 v 7 l -3,10 60,60 193,1 1,4 -1,1 h -196 l -62,-62 -8,3 h -10 l -8,-4 -6,-7 -2,-5 v -5 l -217,1 -43,14 -6,1 6,-7 8,-8 -124.00004,-1 v 17 l -3,1 23,53 12,28 24.00004,56 24,56 20,47 277,1 1,-6 6,-7 6,-3 9,-1 9,3 4,-1 60,-60 h 192 v 4 l -188,1 -61,61 3,10 v 7 l -3,7 1,4 59,59 193,1 1,4 -1,1 h -196 l -62,-62 -8,3 h -10 l -8,-4 -6,-7 -2,-5 v -5 h -280 l -5,-10 -21,-49 -24,-56 -24.00004,-56 -16,-37 -16,-37 -32,-1 v -17 h -464 l -2,14 -43,229 -49,260.99997 -15,81 h 13 v 41 h -16 l 12,73 35,218 36,224 21,131 251,1 2,-6 6,-7 11,-4 72,-396 h 243.00004 v -21 l 34,-1 24,-56 3,-7 -15,5 -3,-1 14,-15 7,-8 9,-10 10,-22 23,-54 23,-53 8,-19 1,-1 h 168 l 1,-6 5,-6 7,-4 7,-1 9,2 4,2 62,-62 h 192 v 4 l -188,1 -61,61 3,10 v 7 l -3,10 60,60 193,1 1,4 -1,1 h -196 l -62,-62 -8,3 h -11 l -9,-5 -5,-8 -1,-8 -163,1 -23,54 -24,56 -11,26 -3,19 -5,38 -2,1 -6,-18 -2,-1 -1,5 -24,56 1,2 v 20 h 264 l 1,-6 5,-6 7,-4 8,-1 10,3 h 3 l 61,-61 h 192 v 4 l -188,1 -61,61 3,10 v 7 l -3,10 60,60 193,1 1,4 -1,1 h -196 l -62,-62 -8,3 h -11 l -9,-5 -5,-8 -1,-8 h -263 v 17 l -3,1 24,56 24,56 13,30 24,56 18,42 164,1 1,-6 5,-6 7,-4 8,-1 10,3 4,-1 60,-60 h 192 v 4 l -188,1 -61,61 3,10 v 7 l -3,10 60,60 193,1 1,4 -1,1 h -196 l -62,-62 -8,3 h -11 l -8,-5 -5,-6 -2,-5 v -5 l -167,1 -7,-15 -23,-54 -24,-56 -16,-37 -24,-56 -12,-28 -32,-1 v -17 l -238.00004,1 -48,264 -23,126 -1,2 7,2 6,5 4,8 v 11 l -4,8 -6,5 -6,2 5,25 28,154 38,209 238.00004,1 v -21 h 34 l 3,-9 15,-34 23,-54 24,-56 24,-56 14,-33 5,-1 h 163 l 4,-8 7,-6 5,-2 h 9 l 9,3 62,-62 192,1 v 4 l -188,1 -61,61 3,10 -1,10 -2,6 61,61 193,1 v 4 h -198 l -61,-61 -10,3 -10,-1 -7,-4 -6,-8 -1,-8 -163,1 -24,56 -24,56 -24,56 -23,53 -7,16 h 2 v 21 l 263,-1 4,-8 7,-6 5,-2 h 9 l 9,3 62,-62 192,1 v 4 l -188,1 -61,61 3,10 -1,10 -2,6 61,61 193,1 v 4 h -198 l -61,-61 -10,3 -10,-1 -7,-4 -6,-8 -1,-8 h -263 v 16 l -3,2 12,27 21,49 6,-17 2,-1 7,52 5,13 24,56 24,56 2,5 h 163 l 4,-8 7,-6 5,-2 h 9 l 9,3 62,-62 192,1 v 4 l -188,1 -49,49 -8,7 -4,4 1,4 2,6 v 7 l -3,10 61,61 193,1 v 4 h -198 l -61,-61 -10,3 -10,-1 -7,-4 -6,-8 -1,-8 h -167 l -6,-12 -23,-54 -24,-56 -6,-12 -20,-20 -8,-7 -9,-9 2,-1 21,6 2,1 -24,-56 -10,-23 v -3 h -33 v -17 H 786.93776 l -71,-390 v -3 h -6 l -8,-5 -4,-5 -2,-4 v -6 h -255 l -2,-7 -37,-230 -40,-249 -26,-162 v -4 h -21 v -41 l 23,-1 36,-190.99997 49,-262 24,-127 2,-8 h 468 v -21 l 34,-1 23,-53 23,-54 24.00004,-56 24,-56 9,-21 1,-1 h 281 l 1,-6 6,-7 6,-3 9,-1 9,3 4,-1 z m -81,63 -6,4 -4,6 -1,3 v 7 l 4,8 6,4 3,1 h 8 l 6,-3 5,-6 2,-9 -2,-7 -4,-5 -6,-3 z m -428.00004,258 -1,1 v 33 h 33 l 1,-1 v -32 l -1,-1 z m 428.00004,5 -6,4 -4,6 -1,3 v 7 l 3,6 5,5 5,2 h 8 l 6,-3 5,-6 2,-9 -2,-7 -4,-5 -6,-3 z m 0,263 -6,4 -4,6 -1,3 v 7 l 3,6 7,6 3,1 h 8 l 6,-3 5,-6 2,-9 -2,-7 -4,-5 -6,-3 z m 1,337.99997 -7,4 -4,6 -1,3 v 7 l 4,8 8,5 h 9 l 6,-3 5,-6 2,-9 -2,-7 -4,-5 -6,-3 z m -1032.00004,4 v 33 h 34 v -33 z m 772.00004,185 z m -57,69 v 34 h 33 v -34 z m 317,5 -7,4 -4,6 -1,3 v 7 l 4,8 6,4 3,1 h 8 l 6,-3 5,-6 2,-9 -2,-7 -4,-5 -6,-3 z m 0,263 -7,4 -4,6 -1,3 v 7 l 4,8 6,4 3,1 h 8 l 6,-3 5,-6 2,-9 -2,-7 -4,-5 -6,-3 z m -639.00004,150 -7,4 -4,5 -1,3 v 10 l 4,6 5,4 2,1 h 11 l 6,-4 4,-5 1,-3 v -9 l -4,-7 -8,-5 z m 641.00004,150 -7,3 -6,7 -1,10 4,8 5,4 6,2 8,-1 6,-4 4,-6 1,-8 -3,-8 -6,-5 -5,-2 z m -319,259 v 33 h 33 v -33 z m 319,4 -7,3 -6,7 -1,10 4,8 5,4 6,2 8,-1 6,-4 4,-6 1,-8 -3,-8 -6,-5 -5,-2 z m 0,263 -7,3 -6,7 -1,10 4,8 5,4 9,2 9,-3 5,-6 2,-6 -1,-8 -4,-6 -6,-4 z"
     fill="#000000"
     id="path47481" />
  <path
     d="m 1165.9378,179.97813 h 9 l 8,4 4,6 1,3 v 11 l -4,8 -6,5 -3,1 h -10 l -7,-4 -4,-6 -1,-3 v -11 l 4,-8 6,-5 z m 4,4 -6,2 -4,4 -2,5 v 9 l 3,6 4,3 8,1 6,-3 4,-8 v -9 l -3,-6 -4,-3 z"
     fill="#000000"
     id="path47483" />
  <path
     d="m 1444.9378,186.97813 h 7 l 5,3 3,5 1,5 v 9 l -3,9 -4,4 -2,1 h -7 l -6,-5 -2,-5 v -16 l 3,-6 z m 1,4 -4,5 -1,13 2,7 3,3 h 5 l 4,-4 1,-4 v -12 l -3,-7 z"
     fill="#000000"
     id="path47485" />
  <path
     d="m 1493.9378,186.97813 h 4 v 23 h 5 v 3 h -5 v 9 h -4 l -1,-8 -15,-1 1,-6 10,-13 z m -2,8 -9,13 v 2 h 10 l 1,-1 v -14 z"
     fill="#000000"
     id="path47487" />
  <path
     d="m 1466.9378,216.97813 h 5 v 5 h -5 z"
     fill="#000000"
     id="path47489" />
  <path
     d="m 1444.9378,257.97813 h 7 l 5,3 3,5 1,5 v 9 l -3,9 -4,4 -2,1 h -7 l -6,-5 -2,-5 v -16 l 3,-6 z m 1,4 -4,5 -1,13 2,7 3,3 h 5 l 4,-4 1,-4 v -12 l -3,-7 z"
     fill="#000000"
     id="path47491" />
  <path
     d="m 1487.9378,257.97813 h 8 l 5,4 1,5 -5,-1 -2,-3 h -6 l -3,3 -1,7 2,-2 h 10 l 5,5 1,2 v 7 l -3,6 -6,3 h -6 l -6,-4 -3,-6 v -14 l 3,-7 4,-4 z m 0,17 -4,4 v 6 l 5,5 7,-1 2,-3 v -7 l -3,-4 z"
     fill="#000000"
     id="path47493" />
  <path
     d="m 1560.9378,268.97813 h 21 l 6,3 2,4 v 6 l -4,5 3,4 2,14 h -6 l -2,-13 -1,-1 -16,-1 v 15 h -5 z m 5,4 v 12 l 1,1 h 11 l 6,-2 1,-7 -4,-4 z"
     fill="#000000"
     id="path47495" />
  <path
     d="m 1242.9378,271.97813 h 117 v 79 h -117 z m 4,4 v 71 h 109 v -71 z"
     fill="#000000"
     id="path47497" />
  <path
     d="m 1466.9378,287.97813 h 5 v 5 h -5 z"
     fill="#000000"
     id="path47499" />
  <path
     d="m 1290.9378,294.97813 h 4 v 23 h 5 v 3 h -5 v 9 h -4 l -1,-8 -15,-1 1,-6 10,-13 z m -2,8 -9,13 v 2 h 10 l 1,-1 v -14 z"
     fill="#000000"
     id="path47501" />
  <path
     d="m 1311.9378,294.97813 h 7 l 5,3 3,5 1,5 v 9 l -3,9 -4,4 -2,1 h -7 l -6,-5 -2,-5 v -16 l 3,-6 z m 1,4 -4,5 -1,13 2,7 3,3 h 5 l 4,-4 1,-4 v -12 l -3,-7 z"
     fill="#000000"
     id="path47503" />
  <path
     d="m 1771.9378,294.97813 h 7 l 5,3 3,5 1,5 v 9 l -3,9 -4,4 -2,1 h -7 l -6,-5 -2,-5 v -16 l 3,-6 z m 1,4 -4,5 -1,13 2,7 3,3 h 5 l 4,-4 1,-4 v -12 l -3,-7 z"
     fill="#000000"
     id="path47505" />
  <path
     d="m 1571.9378,376.97813 h 7 l 8,4 2,4 v 4 l -5,-1 -3,-5 -8,-1 -4,2 -1,7 17,4 4,4 1,2 v 7 l -4,5 -5,2 h -10 l -6,-3 -3,-4 v -6 h 4 l 2,7 4,1 h 8 l 4,-2 v -6 l -6,-3 -11,-3 -4,-4 v -8 l 4,-5 z"
     fill="#000000"
     id="path47507" />
  <path
     d="m 1754.9378,403.97813 h 8 l 6,4 2,5 v 16 l -4,8 -5,3 h -7 l -5,-3 -2,-6 h 5 l 2,4 h 7 l 3,-4 1,-6 -3,2 h -9 l -5,-5 -1,-2 v -8 l 3,-5 z m 2,4 -4,3 -1,7 2,4 2,1 h 7 l 3,-3 v -8 l -4,-4 z"
     fill="#000000"
     id="path47509" />
  <path
     d="m 1783.9378,403.97813 h 7 l 5,3 3,5 1,5 v 9 l -3,9 -4,4 -2,1 h -7 l -6,-5 -2,-5 v -16 l 3,-6 z m 1,4 -4,5 -1,13 2,7 3,3 h 5 l 4,-4 1,-4 v -12 l -3,-7 z"
     fill="#000000"
     id="path47511" />
  <path
     d="m 1154.9378,443.97813 h 20 l 6,4 1,2 v 8 l -3,5 -5,2 h -14 v 15 h -5 z m 5,4 v 13 h 12 l 5,-3 v -7 l -4,-3 z"
     fill="#000000"
     id="path47513" />
  <path
     d="m 1444.9378,449.97813 h 7 l 5,3 3,5 1,5 v 9 l -3,9 -4,4 -2,1 h -7 l -6,-5 -2,-5 v -16 l 3,-6 z m 1,4 -4,5 -1,13 2,7 3,3 h 5 l 4,-4 1,-4 v -12 l -3,-7 z"
     fill="#000000"
     id="path47515" />
  <path
     d="m 1493.9378,449.97813 h 4 v 23 h 5 v 3 h -5 v 9 h -4 l -1,-8 -15,-1 1,-6 10,-13 z m -2,8 -9,13 v 2 h 10 l 1,-1 v -14 z"
     fill="#000000"
     id="path47517" />
  <path
     d="m 1466.9378,479.97813 h 5 v 5 h -5 z"
     fill="#000000"
     id="path47519" />
  <path
     d="m 1444.9378,520.97813 h 7 l 5,3 3,5 1,5 v 9 l -3,9 -4,4 -2,1 h -7 l -6,-5 -2,-5 v -16 l 3,-6 z m 1,4 -4,5 -1,13 2,7 3,3 h 5 l 4,-4 1,-4 v -12 l -3,-7 z"
     fill="#000000"
     id="path47521" />
  <path
     d="m 1487.9378,520.97813 h 8 l 5,4 1,5 -5,-1 -2,-3 h -6 l -3,3 -1,7 2,-2 h 10 l 5,5 1,2 v 7 l -3,6 -6,3 h -6 l -6,-4 -3,-6 v -14 l 3,-7 4,-4 z m 0,17 -4,4 v 6 l 5,5 7,-1 2,-3 v -7 l -3,-4 z"
     fill="#000000"
     id="path47523" />
  <path
     d="m 1560.9378,531.97813 h 21 l 6,3 2,4 v 6 l -4,5 3,4 2,14 h -6 l -2,-13 -1,-1 -16,-1 v 15 h -5 z m 5,4 v 12 l 1,1 h 11 l 6,-2 1,-7 -4,-4 z"
     fill="#000000"
     id="path47525" />
  <path
     d="m 1242.9378,534.97813 h 117 v 79 h -117 z m 4,4 v 71 h 109 v -71 z"
     fill="#000000"
     id="path47527" />
  <path
     d="m 511.93776,542.97813 h 117 v 79 h -117 z m 4,4 v 71 h 108 v -71 z"
     fill="#000000"
     id="path47529" />
  <path
     d="m 1466.9378,550.97813 h 5 v 5 h -5 z"
     fill="#000000"
     id="path47531" />
  <path
     d="m 1290.9378,557.97813 h 4 v 23 h 5 v 3 h -5 v 9 h -4 l -1,-8 -15,-1 1,-6 10,-13 z m -2,8 -9,13 v 2 h 10 l 1,-1 v -14 z"
     fill="#000000"
     id="path47533" />
  <path
     d="m 1310.9378,557.97813 h 9 l 5,3 1,2 v 8 l -3,3 4,4 1,7 -3,6 -5,3 h -8 l -6,-3 -2,-3 v -9 l 4,-5 -3,-3 v -7 l 4,-5 z m 1,4 -3,5 3,5 5,1 4,-2 1,-5 -3,-4 z m 0,15 -3,2 -1,5 3,5 2,1 h 6 l 4,-4 -1,-7 -2,-2 z"
     fill="#000000"
     id="path47535" />
  <path
     d="m 1755.9378,557.97813 h 9 l 6,5 1,8 -4,6 -13,8 -2,4 h 19 v 4 h -24 l 1,-8 5,-5 9,-6 h 2 l 1,-8 -3,-3 h -6 l -3,3 -1,4 h -5 l 2,-8 3,-3 z"
     fill="#000000"
     id="path47537" />
  <path
     d="m 1783.9378,557.97813 h 7 l 5,3 3,5 1,5 v 9 l -3,9 -4,4 -2,1 h -7 l -6,-5 -2,-5 v -16 l 3,-6 z m 1,4 -4,5 -1,13 2,7 3,3 h 5 l 4,-4 1,-4 v -12 l -3,-7 z"
     fill="#000000"
     id="path47539" />
  <path
     d="m 558.93776,565.97813 h 4 v 23 h 5 v 3 h -5 v 9 h -4 l -1,-8 -15,-1 1,-6 10,-13 z m -2,8 -9,13 v 2 h 10 l 1,-1 v -14 z"
     fill="#000000"
     id="path47541" />
  <path
     d="m 578.93776,565.97813 h 9 l 5,3 1,2 v 8 l -3,3 4,4 1,7 -3,6 -5,3 h -8 l -6,-3 -2,-3 v -9 l 4,-5 -3,-3 v -7 l 4,-5 z m 1,4 -3,5 3,5 5,1 4,-2 1,-5 -3,-4 z m 0,15 -3,2 -1,5 3,5 2,1 h 6 l 4,-4 -1,-7 -2,-2 z"
     fill="#000000"
     id="path47543" />
  <path
     d="m 1571.9378,639.97813 h 7 l 8,4 2,4 v 4 l -5,-1 -3,-5 -8,-1 -4,2 -1,7 17,4 4,4 1,2 v 7 l -4,5 -5,2 h -10 l -6,-3 -3,-4 v -6 h 4 l 2,7 4,1 h 8 l 4,-2 v -6 l -6,-3 -11,-3 -4,-4 v -8 l 4,-5 z"
     fill="#000000"
     id="path47545" />
  <path
     d="m 540.93776,655.97813 h 8 l 6,3 4,5 1,4 h -5 l -3,-5 -5,-2 -7,1 -5,5 -1,4 v 8 l 3,7 6,3 7,-1 4,-5 1,-3 h 5 l -1,5 -4,6 -7,3 h -7 l -8,-4 -4,-7 -1,-4 v -8 l 3,-8 5,-5 z"
     fill="#000000"
     id="path47547" />
  <path
     d="m 452.93776,656.97813 h 6 l 15,24 2,3 1,-27 h 4 v 36 h -5 l -7,-10 -11,-17 -1,27 h -4 z"
     fill="#000000"
     id="path47549" />
  <path
     d="m 564.93776,656.97813 h 5 v 36 h -5 z"
     fill="#000000"
     id="path47551" />
  <path
     d="m 602.93776,656.97813 h 5 v 5 h -5 z"
     fill="#000000"
     id="path47553" />
  <path
     d="m 494.93776,665.97813 h 7 l 5,3 3,4 1,3 v 7 l -3,7 -3,3 -3,1 h -7 l -5,-3 -3,-4 -1,-7 2,-8 5,-5 z m 1,4 -4,4 -1,2 v 8 l 3,5 1,1 h 7 l 4,-5 v -11 l -4,-4 z"
     fill="#000000"
     id="path47555" />
  <path
     d="m 583.93776,665.97813 9,1 4,4 v 19 h 3 v 3 l -4,1 -4,-3 -6,3 -8,-1 -3,-4 v -6 l 4,-4 8,-2 h 5 v -6 h -9 l -3,4 -4,-1 2,-5 z m 6,14 -9,2 -1,1 v 6 l 2,1 h 6 l 4,-3 v -7 z"
     fill="#000000"
     id="path47557" />
  <path
     d="m 623.93776,665.97813 h 3 v 5 l -6,2 -1,2 -1,18 h -5 v -26 h 5 l 1,2 z"
     fill="#000000"
     id="path47559" />
  <path
     d="m 661.93776,665.97813 h 7 l 5,3 3,4 1,3 v 7 l -3,7 -3,3 -3,1 h -7 l -5,-3 -3,-4 -1,-7 2,-8 5,-5 z m 1,4 -4,4 -1,2 v 8 l 3,5 1,1 h 7 l 4,-5 v -11 l -4,-4 z"
     fill="#000000"
     id="path47561" />
  <path
     d="m 715.93776,665.97813 9,1 4,4 v 19 h 3 v 3 l -4,1 -4,-3 -6,3 -8,-1 -3,-4 v -6 l 4,-4 8,-2 h 5 v -6 h -9 l -3,4 -4,-1 2,-5 z m 6,14 -9,2 -1,1 v 6 l 2,1 h 6 l 4,-3 v -7 z"
     fill="#000000"
     id="path47563" />
  <path
     d="m 745.93776,665.97813 7,1 3,3 1,4 v 19 h -5 l -1,-22 h -6 l -4,3 -1,19 h -5 v -26 h 4 l 1,2 z"
     fill="#000000"
     id="path47565" />
  <path
     d="m 769.93776,665.97813 h 7 l 5,3 2,4 v 3 l -5,-1 -1,-4 h -7 l -3,3 -1,3 v 7 l 3,5 h 6 l 3,-5 h 5 l -2,6 -4,3 -8,1 -6,-4 -3,-8 2,-10 5,-5 z"
     fill="#000000"
     id="path47567" />
  <path
     d="m 795.93776,665.97813 h 6 l 6,4 3,7 v 4 h -19 l 2,7 2,1 h 6 l 4,-4 h 4 l -2,5 -3,3 -3,1 h -7 l -5,-3 -3,-5 v -11 l 4,-6 z m 0,4 -4,4 v 4 h 14 l -1,-5 -3,-3 z"
     fill="#000000"
     id="path47569" />
  <path
     d="m 602.93776,666.97813 h 5 v 26 h -5 z"
     fill="#000000"
     id="path47571" />
  <path
     d="m 628.93776,666.97813 h 5 l 6,18 2,-3 5,-15 h 5 l -1,5 -8,21 h -5 l -5,-12 -4,-11 z"
     fill="#000000"
     id="path47573" />
  <path
     d="m 680.93776,666.97813 h 5 l 6,18 2,-3 5,-15 h 5 l -3,11 -9,23 -4,3 h -5 v -4 l 5,-2 1,-6 -8,-22 z"
     fill="#000000"
     id="path47575" />
  <path
     d="m 1762.9378,670.97813 h 4 v 23 h 5 v 3 h -5 v 9 h -4 l -1,-8 -15,-1 1,-6 10,-13 z m -2,8 -9,13 v 2 h 10 l 1,-1 v -14 z"
     fill="#000000"
     id="path47577" />
  <path
     d="m 1783.9378,670.97813 h 7 l 5,3 3,5 1,5 v 9 l -3,9 -4,4 -2,1 h -7 l -6,-5 -2,-5 v -16 l 3,-6 z m 1,4 -4,5 -1,13 2,7 3,3 h 5 l 4,-4 1,-4 v -12 l -3,-7 z"
     fill="#000000"
     id="path47579" />
  <path
     d="m 1163.9378,706.97813 h 5 v 36 h -5 z"
     fill="#000000"
     id="path47581" />
  <path
     d="m 1444.9378,712.97813 h 7 l 5,3 3,5 1,5 v 9 l -3,9 -4,4 -2,1 h -7 l -6,-5 -2,-5 v -16 l 3,-6 z m 1,4 -4,5 -1,13 2,7 3,3 h 5 l 4,-4 1,-4 v -12 l -3,-7 z"
     fill="#000000"
     id="path47583" />
  <path
     d="m 1493.9378,712.97813 h 4 v 23 h 5 v 3 h -5 v 9 h -4 l -1,-8 -15,-1 1,-6 10,-13 z m -2,8 -9,13 v 2 h 10 l 1,-1 v -14 z"
     fill="#000000"
     id="path47585" />
  <path
     d="m 1466.9378,742.97813 h 5 v 5 h -5 z"
     fill="#000000"
     id="path47587" />
  <path
     d="m 1444.9378,783.97813 h 7 l 5,3 3,5 1,5 v 9 l -3,9 -4,4 -2,1 h -7 l -6,-5 -2,-5 v -16 l 3,-6 z m 1,4 -4,5 -1,13 2,7 3,3 h 5 l 4,-4 1,-4 v -12 l -3,-7 z"
     fill="#000000"
     id="path47589" />
  <path
     d="m 1487.9378,783.97813 h 8 l 5,4 1,5 -5,-1 -2,-3 h -6 l -3,3 -1,7 2,-2 h 10 l 5,5 1,2 v 7 l -3,6 -6,3 h -6 l -6,-4 -3,-6 v -14 l 3,-7 4,-4 z m 0,17 -4,4 v 6 l 5,5 7,-1 2,-3 v -7 l -3,-4 z"
     fill="#000000"
     id="path47591" />
  <path
     d="m 1560.9378,794.97813 h 21 l 6,3 2,4 v 6 l -4,5 3,4 2,14 h -6 l -2,-13 -1,-1 -16,-1 v 15 h -5 z m 5,4 v 12 l 1,1 h 11 l 6,-2 1,-7 -4,-4 z"
     fill="#000000"
     id="path47593" />
  <path
     d="m 1242.9378,797.97813 h 117 v 79 h -117 z m 4,4 v 71 h 109 v -71 z"
     fill="#000000"
     id="path47595" />
  <path
     d="m 1466.9378,813.97813 h 5 v 5 h -5 z"
     fill="#000000"
     id="path47597" />
  <path
     d="m 1290.9378,820.97813 h 4 v 23 h 5 v 3 h -5 v 9 h -4 l -1,-8 -15,-1 1,-6 10,-13 z m -2,8 -9,13 v 2 h 10 l 1,-1 v -14 z"
     fill="#000000"
     id="path47599" />
  <path
     d="m 1312.9378,820.97813 h 8 l 5,4 1,5 -5,-1 -2,-3 h -6 l -3,3 -1,7 2,-2 h 10 l 5,5 1,2 v 7 l -3,6 -6,3 h -6 l -6,-4 -3,-6 v -14 l 3,-7 4,-4 z m 0,17 -4,4 v 6 l 5,5 7,-1 2,-3 v -7 l -3,-4 z"
     fill="#000000"
     id="path47601" />
  <path
     d="m 1783.9378,820.97813 h 7 l 5,3 3,5 1,5 v 9 l -3,9 -4,4 -2,1 h -7 l -6,-5 -2,-5 v -16 l 3,-6 z m 1,4 -4,5 -1,13 2,7 3,3 h 5 l 4,-4 1,-4 v -12 l -3,-7 z"
     fill="#000000"
     id="path47603" />
  <path
     d="m 1750.9378,821.97813 h 19 v 4 h -15 v 8 l 7,-1 6,3 3,3 1,8 -3,6 -6,4 h -7 l -6,-3 -2,-3 v -4 l 5,1 1,4 h 8 l 4,-4 v -6 l -2,-3 -6,-1 -5,3 -4,-1 z"
     fill="#000000"
     id="path47605" />
  <path
     d="m 1571.9378,977.97813 h 7 l 8,4 2,4 v 4 l -5,-1 -3,-5 -8,-1 -4,2 -1,7 17,4 4,4 1,1.99997 v 7 l -4,5 -5,2 h -10 l -6,-3 -3,-4 v -6 h 4 l 2,7 4,1 h 8 l 4,-2 v -6 l -6,-2.99997 -11,-3 -4,-4 v -8 l 4,-5 z"
     fill="#000000"
     id="path47607" />
  <path
     d="m 1747.9378,1004.9781 h 4 v 35 h -5 v -25 h -8 v -3 l 7,-3 z"
     fill="#000000"
     id="path47609" />
  <path
     d="m 1771.9378,1004.9781 h 7 l 5,3 3,5 1,5 v 9 l -3,9 -4,4 -2,1 h -7 l -6,-5 -2,-5 v -16 l 3,-6 z m 1,4 -4,5 -1,13 2,7 3,3 h 5 l 4,-4 1,-4 v -12 l -3,-7 z"
     fill="#000000"
     id="path47611" />
  <path
     d="m 1799.9378,1004.9781 h 7 l 5,3 3,5 1,5 v 9 l -3,9 -4,4 -2,1 h -7 l -6,-5 -2,-5 v -16 l 3,-6 z m 1,4 -4,5 -1,13 2,7 3,3 h 5 l 4,-4 1,-4 v -12 l -3,-7 z"
     fill="#000000"
     id="path47613" />
  <path
     d="m 1215.9378,1044.9781 h 9 l 8,4 4,6 1,3 v 11 l -4,8 -6,5 -3,1 h -10 l -7,-4 -4,-6 -1,-3 v -11 l 4,-8 6,-5 z m 4,4 -6,2 -4,4 -2,5 v 9 l 3,6 4,3 8,1 6,-3 4,-8 v -9 l -3,-6 -4,-3 z"
     fill="#000000"
     id="path47615" />
  <path
     d="m 1448.9378,1050.9781 h 4 v 35 h -5 v -25 h -8 v -3 l 7,-3 z"
     fill="#000000"
     id="path47617" />
  <path
     d="m 1444.9378,1121.9781 h 7 l 5,3 3,5 1,5 v 9 l -3,9 -4,4 -2,1 h -7 l -6,-5 -2,-5 v -16 l 3,-6 z m 1,4 -4,5 -1,13 2,7 3,3 h 5 l 4,-4 1,-4 v -12 l -3,-7 z"
     fill="#000000"
     id="path47619" />
  <path
     d="m 1560.9378,1132.9781 h 21 l 6,3 2,4 v 6 l -4,5 3,4 2,14 h -6 l -2,-13 -1,-1 -16,-1 v 15 h -5 z m 5,4 v 12 l 1,1 h 11 l 6,-2 1,-7 -4,-4 z"
     fill="#000000"
     id="path47621" />
  <path
     d="m 1242.9378,1135.9781 h 117 v 79 h -117 z m 4,4 v 71 h 109 v -71 z"
     fill="#000000"
     id="path47623" />
  <path
     d="m 1275.9378,1158.9781 h 4 v 35 h -5 v -25 h -8 v -3 l 7,-3 z"
     fill="#000000"
     id="path47625" />
  <path
     d="m 1299.9378,1158.9781 h 7 l 5,3 3,5 1,5 v 9 l -3,9 -4,4 -2,1 h -7 l -6,-5 -2,-5 v -16 l 3,-6 z m 1,4 -4,5 -1,13 2,7 3,3 h 5 l 4,-4 1,-4 v -12 l -3,-7 z"
     fill="#000000"
     id="path47627" />
  <path
     d="m 1327.9378,1158.9781 h 7 l 5,3 3,5 1,5 v 9 l -3,9 -4,4 -2,1 h -7 l -6,-5 -2,-5 v -16 l 3,-6 z m 1,4 -4,5 -1,13 2,7 3,3 h 5 l 4,-4 1,-4 v -12 l -3,-7 z"
     fill="#000000"
     id="path47629" />
  <path
     d="m 1771.9378,1158.9781 h 7 l 5,3 3,5 1,5 v 9 l -3,9 -4,4 -2,1 h -7 l -6,-5 -2,-5 v -16 l 3,-6 z m 1,4 -4,5 -1,13 2,7 3,3 h 5 l 4,-4 1,-4 v -12 l -3,-7 z"
     fill="#000000"
     id="path47631" />
  <path
     d="m 1571.9378,1240.9781 h 7 l 8,4 2,4 v 4 l -5,-1 -3,-5 -8,-1 -4,2 -1,7 17,4 4,4 1,2 v 7 l -4,5 -5,2 h -10 l -6,-3 -3,-4 v -6 h 4 l 2,7 4,1 h 8 l 4,-2 v -6 l -6,-3 -11,-3 -4,-4 v -8 l 4,-5 z"
     fill="#000000"
     id="path47633" />
  <path
     d="m 1754.9378,1267.9781 h 8 l 6,4 2,5 v 16 l -4,8 -5,3 h -7 l -5,-3 -2,-6 h 5 l 2,4 h 7 l 3,-4 1,-6 -3,2 h -9 l -5,-5 -1,-2 v -8 l 3,-5 z m 2,4 -4,3 -1,7 2,4 2,1 h 7 l 3,-3 v -8 l -4,-4 z"
     fill="#000000"
     id="path47635" />
  <path
     d="m 1783.9378,1267.9781 h 7 l 5,3 3,5 1,5 v 9 l -3,9 -4,4 -2,1 h -7 l -6,-5 -2,-5 v -16 l 3,-6 z m 1,4 -4,5 -1,13 2,7 3,3 h 5 l 4,-4 1,-4 v -12 l -3,-7 z"
     fill="#000000"
     id="path47637" />
  <path
     d="m 916.93776,1306.9781 h 7 l 8,4 2,4 v 4 l -5,-1 -3,-5 -8,-1 -4,2 -1,7 17,4 4,4 1,2 v 7 l -4,5 -5,2 h -10 l -6,-3 -3,-4 v -6 h 4 l 2,7 4,1 h 8 l 4,-2 v -6 l -6,-3 -11,-3 -4,-4 v -8 l 4,-5 z"
     fill="#000000"
     id="path47639" />
  <path
     d="m 892.93776,1307.9781 h 2 l -2,6 2,1 v 5 h -5 v -8 z"
     fill="#000000"
     id="path47641" />
  <path
     d="m 900.93776,1307.9781 h 2 l -2,7 h 2 v 5 h -5 v -7 z"
     fill="#000000"
     id="path47643" />
  <path
     d="m 939.93776,1307.9781 h 5 v 9 l -4,4 -1,-3 h 2 v -4 l -2,-1 z"
     fill="#000000"
     id="path47645" />
  <path
     d="m 947.93776,1307.9781 h 5 v 9 l -4,4 -1,-3 h 2 v -4 l -2,-1 z"
     fill="#000000"
     id="path47647" />
  <path
     d="m 1204.9378,1307.9781 h 20 l 6,4 1,2 v 8 l -3,5 -5,2 h -14 v 15 h -5 z m 5,4 v 13 h 12 l 5,-3 v -7 l -4,-3 z"
     fill="#000000"
     id="path47649" />
  <path
     d="m 1448.9378,1313.9781 h 4 v 35 h -5 v -25 h -8 v -3 l 7,-3 z"
     fill="#000000"
     id="path47651" />
  <path
     d="m 1444.9378,1384.9781 h 7 l 5,3 3,5 1,5 v 9 l -3,9 -4,4 -2,1 h -7 l -6,-5 -2,-5 v -16 l 3,-6 z m 1,4 -4,5 -1,13 2,7 3,3 h 5 l 4,-4 1,-4 v -12 l -3,-7 z"
     fill="#000000"
     id="path47653" />
  <path
     d="m 1560.9378,1395.9781 h 21 l 6,3 2,4 v 6 l -4,5 3,4 2,14 h -6 l -2,-13 -1,-1 -16,-1 v 15 h -5 z m 5,4 v 12 l 1,1 h 11 l 6,-2 1,-7 -4,-4 z"
     fill="#000000"
     id="path47655" />
  <path
     d="m 874.93776,1398.9781 h 117 v 79 h -117 z m 4,4 v 71 h 109 v -71 z"
     fill="#000000"
     id="path47657" />
  <path
     d="m 1242.9378,1398.9781 h 117 v 79 h -117 z m 4,4 v 71 h 109 v -71 z"
     fill="#000000"
     id="path47659" />
  <path
     d="m 903.93776,1421.9781 h 4 v 35 h -5 v -25 h -8 v -3 l 7,-3 z"
     fill="#000000"
     id="path47661" />
  <path
     d="m 927.93776,1421.9781 h 7 l 5,3 3,5 1,5 v 9 l -3,9 -4,4 -2,1 h -7 l -6,-5 -2,-5 v -16 l 3,-6 z m 1,4 -4,5 -1,13 2,7 3,3 h 5 l 4,-4 1,-4 v -12 l -3,-7 z"
     fill="#000000"
     id="path47663" />
  <path
     d="m 955.93776,1421.9781 h 7 l 5,3 3,5 1,5 v 9 l -3,9 -4,4 -2,1 h -7 l -6,-5 -2,-5 v -16 l 3,-6 z m 1,4 -4,5 -1,13 2,7 3,3 h 5 l 4,-4 1,-4 v -12 l -3,-7 z"
     fill="#000000"
     id="path47665" />
  <path
     d="m 1282.9378,1421.9781 h 8 l 6,4 2,5 v 16 l -4,8 -5,3 h -7 l -5,-3 -2,-6 h 5 l 2,4 h 7 l 3,-4 1,-6 -3,2 h -9 l -5,-5 -1,-2 v -8 l 3,-5 z m 2,4 -4,3 -1,7 2,4 2,1 h 7 l 3,-3 v -8 l -4,-4 z"
     fill="#000000"
     id="path47667" />
  <path
     d="m 1311.9378,1421.9781 h 7 l 5,3 3,5 1,5 v 9 l -3,9 -4,4 -2,1 h -7 l -6,-5 -2,-5 v -16 l 3,-6 z m 1,4 -4,5 -1,13 2,7 3,3 h 5 l 4,-4 1,-4 v -12 l -3,-7 z"
     fill="#000000"
     id="path47669" />
  <path
     d="m 1755.9378,1421.9781 h 9 l 6,5 1,8 -4,6 -13,8 -2,4 h 19 v 4 h -24 l 1,-8 5,-5 9,-6 h 2 l 1,-8 -3,-3 h -6 l -3,3 -1,4 h -5 l 2,-8 3,-3 z"
     fill="#000000"
     id="path47671" />
  <path
     d="m 1783.9378,1421.9781 h 7 l 5,3 3,5 1,5 v 9 l -3,9 -4,4 -2,1 h -7 l -6,-5 -2,-5 v -16 l 3,-6 z m 1,4 -4,5 -1,13 2,7 3,3 h 5 l 4,-4 1,-4 v -12 l -3,-7 z"
     fill="#000000"
     id="path47673" />
  <path
     d="m 439.93776,1495.9781 h 25 v 4 l -19,1 -1,10 h 17 l 1,5 h -18 v 16 h -5 z"
     fill="#000000"
     id="path47675" />
  <path
     d="m 805.93776,1501.9781 h 7 l 5,3 3,5 1,5 v 9 l -3,9 -4,4 -2,1 h -7 l -6,-5 -2,-5 v -16 l 3,-6 z m 1,4 -4,5 -1,13 2,7 3,3 h 5 l 4,-4 1,-4 v -12 l -3,-7 z"
     fill="#000000"
     id="path47677" />
  <path
     d="m 854.93776,1501.9781 h 4 v 23 h 5 v 3 h -5 v 9 h -4 l -1,-8 -15,-1 1,-6 10,-13 z m -2,8 -9,13 v 2 h 10 l 1,-1 v -14 z"
     fill="#000000"
     id="path47679" />
  <path
     d="m 1571.9378,1503.9781 h 7 l 8,4 2,4 v 4 l -5,-1 -3,-5 -8,-1 -4,2 -1,7 17,4 4,4 1,2 v 7 l -4,5 -5,2 h -10 l -6,-3 -3,-4 v -6 h 4 l 2,7 4,1 h 8 l 4,-2 v -6 l -6,-3 -11,-3 -4,-4 v -8 l 4,-5 z"
     fill="#000000"
     id="path47681" />
  <path
     d="m 478.93776,1504.9781 h 3 v 5 l -6,2 -1,2 -1,18 h -5 v -26 h 5 l 1,2 z"
     fill="#000000"
     id="path47683" />
  <path
     d="m 492.93776,1504.9781 h 6 l 6,4 3,7 v 4 h -19 l 2,7 2,1 h 6 l 4,-4 h 4 l -2,5 -3,3 -3,1 h -7 l -5,-3 -3,-5 v -11 l 4,-6 z m 0,4 -4,4 v 4 h 14 l -1,-5 -3,-3 z"
     fill="#000000"
     id="path47685" />
  <path
     d="m 518.93776,1504.9781 h 6 l 6,4 3,7 v 4 h -19 l 2,7 2,1 h 6 l 4,-4 h 4 l -2,5 -3,3 -3,1 h -7 l -5,-3 -3,-5 v -11 l 4,-6 z m 0,4 -4,4 v 4 h 14 l -1,-5 -3,-3 z"
     fill="#000000"
     id="path47687" />
  <path
     d="m 827.93776,1531.9781 h 5 v 5 h -5 z"
     fill="#000000"
     id="path47689" />
  <path
     d="m 1762.9378,1534.9781 h 4 v 23 h 5 v 3 h -5 v 9 h -4 l -1,-8 -15,-1 1,-6 10,-13 z m -2,8 -9,13 v 2 h 10 l 1,-1 v -14 z"
     fill="#000000"
     id="path47691" />
  <path
     d="m 1783.9378,1534.9781 h 7 l 5,3 3,5 1,5 v 9 l -3,9 -4,4 -2,1 h -7 l -6,-5 -2,-5 v -16 l 3,-6 z m 1,4 -4,5 -1,13 2,7 3,3 h 5 l 4,-4 1,-4 v -12 l -3,-7 z"
     fill="#000000"
     id="path47693" />
  <path
     d="m 450.93776,1553.9781 h 8 l 6,3 4,5 1,4 h -5 l -3,-5 -5,-2 -7,1 -5,5 -1,4 v 8 l 3,7 6,3 7,-1 4,-5 1,-3 h 5 l -1,5 -4,6 -7,3 h -7 l -8,-4 -4,-7 -1,-4 v -8 l 3,-8 5,-5 z"
     fill="#000000"
     id="path47695" />
  <path
     d="m 474.93776,1554.9781 h 5 v 36 h -5 z"
     fill="#000000"
     id="path47697" />
  <path
     d="m 512.93776,1554.9781 h 5 v 5 h -5 z"
     fill="#000000"
     id="path47699" />
  <path
     d="m 493.93776,1563.9781 9,1 4,4 v 19 h 3 v 3 l -4,1 -4,-3 -6,3 -8,-1 -3,-4 v -6 l 4,-4 8,-2 h 5 v -6 h -9 l -3,4 -4,-1 2,-5 z m 6,14 -9,2 -1,1 v 6 l 2,1 h 6 l 4,-3 v -7 z"
     fill="#000000"
     id="path47701" />
  <path
     d="m 533.93776,1563.9781 9,1 6,18 2,-3 5,-15 h 5 l -1,5 -8,21 h -5 l -5,-12 -4,-11 -7,3 -1,2 -1,18 h -5 v -26 h 5 l 1,2 z"
     fill="#000000"
     id="path47703" />
  <path
     d="m 570.93776,1563.9781 h 7 l 5,3 3,4 1,3 v 7 l -3,7 -3,3 -3,1 h -7 l -5,-3 -3,-4 -1,-7 2,-8 5,-5 z m 1,4 -4,4 -1,2 v 8 l 3,5 1,1 h 7 l 4,-5 v -11 l -4,-4 z"
     fill="#000000"
     id="path47705" />
  <path
     d="m 623.93776,1563.9781 9,1 4,4 v 19 h 3 v 3 l -4,1 -4,-3 -6,3 -8,-1 -3,-4 v -6 l 4,-4 8,-2 h 5 v -6 h -9 l -3,4 -4,-1 2,-5 z m 6,14 -9,2 -1,1 v 6 l 2,1 h 6 l 4,-3 v -7 z"
     fill="#000000"
     id="path47707" />
  <path
     d="m 654.93776,1563.9781 7,1 3,3 1,4 v 19 h -5 l -1,-22 h -6 l -4,3 -1,19 h -5 v -26 h 4 l 1,2 z"
     fill="#000000"
     id="path47709" />
  <path
     d="m 677.93776,1563.9781 h 7 l 5,3 2,4 v 3 l -5,-1 -1,-4 h -7 l -3,3 -1,3 v 7 l 3,5 h 6 l 3,-5 h 5 l -2,6 -4,3 -8,1 -6,-4 -3,-8 2,-10 5,-5 z"
     fill="#000000"
     id="path47711" />
  <path
     d="m 703.93776,1563.9781 h 6 l 6,4 3,7 v 4 h -19 l 2,7 2,1 h 6 l 4,-4 h 4 l -2,5 -3,3 -3,1 h -7 l -5,-3 -3,-5 v -11 l 4,-6 z m 0,4 -4,4 v 4 h 14 l -1,-5 -3,-3 z"
     fill="#000000"
     id="path47713" />
  <path
     d="m 512.93776,1564.9781 h 5 v 26 h -5 z"
     fill="#000000"
     id="path47715" />
  <path
     d="m 589.93776,1564.9781 h 5 l 6,18 2,-3 5,-15 h 5 l -3,11 -9,23 -4,3 h -5 v -4 l 5,-2 1,-6 -8,-22 z"
     fill="#000000"
     id="path47717" />
  <path
     d="m 1214.9378,1570.9781 h 5 v 36 h -5 z"
     fill="#000000"
     id="path47719" />
  <path
     d="m 1448.9378,1576.9781 h 4 v 35 h -5 v -25 h -8 v -3 l 7,-3 z"
     fill="#000000"
     id="path47721" />
  <path
     d="m 1444.9378,1647.9781 h 7 l 5,3 3,5 1,5 v 9 l -3,9 -4,4 -2,1 h -7 l -6,-5 -2,-5 v -16 l 3,-6 z m 1,4 -4,5 -1,13 2,7 3,3 h 5 l 4,-4 1,-4 v -12 l -3,-7 z"
     fill="#000000"
     id="path47723" />
  <path
     d="m 1560.9378,1658.9781 h 21 l 6,3 2,4 v 6 l -4,5 3,4 2,14 h -6 l -2,-13 -1,-1 -16,-1 v 15 h -5 z m 5,4 v 12 l 1,1 h 11 l 6,-2 1,-7 -4,-4 z"
     fill="#000000"
     id="path47725" />
  <path
     d="m 1242.9378,1661.9781 h 117 v 79 h -117 z m 4,4 v 71 h 109 v -71 z"
     fill="#000000"
     id="path47727" />
  <path
     d="m 1290.9378,1684.9781 h 4 v 23 h 5 v 3 h -5 v 9 h -4 l -1,-8 -15,-1 1,-6 10,-13 z m -2,8 -9,13 v 2 h 10 l 1,-1 v -14 z"
     fill="#000000"
     id="path47729" />
  <path
     d="m 1311.9378,1684.9781 h 7 l 5,3 3,5 1,5 v 9 l -3,9 -4,4 -2,1 h -7 l -6,-5 -2,-5 v -16 l 3,-6 z m 1,4 -4,5 -1,13 2,7 3,3 h 5 l 4,-4 1,-4 v -12 l -3,-7 z"
     fill="#000000"
     id="path47731" />
  <path
     d="m 1783.9378,1684.9781 h 7 l 5,3 3,5 1,5 v 9 l -3,9 -4,4 -2,1 h -7 l -6,-5 -2,-5 v -16 l 3,-6 z m 1,4 -4,5 -1,13 2,7 3,3 h 5 l 4,-4 1,-4 v -12 l -3,-7 z"
     fill="#000000"
     id="path47733" />
  <path
     d="m 1750.9378,1685.9781 h 19 v 4 h -15 v 8 l 7,-1 6,3 3,3 1,8 -3,6 -6,4 h -7 l -6,-3 -2,-3 v -4 l 5,1 1,4 h 8 l 4,-4 v -6 l -2,-3 -6,-1 -5,3 -4,-1 z"
     fill="#000000"
     id="path47735" />
  <path
     d="m 1571.9378,1803.9781 h 7 l 8,4 2,4 v 4 l -5,-1 -3,-5 -8,-1 -4,2 -1,7 17,4 4,4 1,2 v 7 l -4,5 -5,2 h -10 l -6,-3 -3,-4 v -6 h 4 l 2,7 4,1 h 8 l 4,-2 v -6 l -6,-3 -11,-3 -4,-4 v -8 l 4,-5 z"
     fill="#000000"
     id="path47737" />
  <path
     d="m 511.93776,1819.9781 h 116 l 1,1 v 78 l -1,1 h -116 z m 4,5 v 70 h 108 v -70 z"
     fill="#000000"
     id="path47739" />
  <path
     d="m 1747.9378,1830.9781 h 4 v 35 h -5 v -25 h -8 v -3 l 7,-3 z"
     fill="#000000"
     id="path47741" />
  <path
     d="m 1771.9378,1830.9781 h 7 l 5,3 3,5 1,5 v 9 l -3,9 -4,4 -2,1 h -7 l -6,-5 -2,-5 v -16 l 3,-6 z m 1,4 -4,5 -1,13 2,7 3,3 h 5 l 4,-4 1,-4 v -12 l -3,-7 z"
     fill="#000000"
     id="path47743" />
  <path
     d="m 1799.9378,1830.9781 h 7 l 5,3 3,5 1,5 v 9 l -3,9 -4,4 -2,1 h -7 l -6,-5 -2,-5 v -16 l 3,-6 z m 1,4 -4,5 -1,13 2,7 3,3 h 5 l 4,-4 1,-4 v -12 l -3,-7 z"
     fill="#000000"
     id="path47745" />
  <path
     d="m 579.93776,1839.9781 h 7 l 5,3 3,5 1,5 v 9 l -3,9 -4,4 -2,1 h -7 l -6,-5 -2,-5 v -16 l 3,-6 z m 1,4 -4,5 -1,13 2,7 3,3 h 5 l 4,-4 1,-4 v -12 l -3,-7 z"
     fill="#000000"
     id="path47747" />
  <path
     d="m 543.93776,1840.9781 h 24 l -1,5 -8,13 -5,16 h -5 l 2,-10 7,-14 4,-5 -18,-1 z"
     fill="#000000"
     id="path47749" />
  <path
     d="m 1215.9378,1870.9781 h 9 l 8,4 4,6 1,3 v 11 l -4,8 -6,5 -3,1 h -10 l -7,-4 -4,-6 -1,-3 v -11 l 4,-8 6,-5 z m 4,4 -6,2 -4,4 -2,5 v 9 l 3,6 4,3 8,1 6,-3 4,-8 v -9 l -3,-6 -4,-3 z"
     fill="#000000"
     id="path47751" />
  <path
     d="m 1444.9378,1876.9781 h 7 l 5,3 3,5 1,5 v 9 l -3,9 -4,4 -2,1 h -7 l -6,-5 -2,-5 v -16 l 3,-6 z m 1,4 -4,5 -1,13 2,7 3,3 h 5 l 4,-4 1,-4 v -12 l -3,-7 z"
     fill="#000000"
     id="path47753" />
  <path
     d="m 1448.9378,1947.9781 h 4 v 35 h -5 v -25 h -8 v -3 l 7,-3 z"
     fill="#000000"
     id="path47755" />
  <path
     d="m 1560.9378,1959.9781 h 21 l 6,3 2,4 v 6 l -4,5 3,4 2,14 h -6 l -2,-13 -1,-1 -16,-1 v 15 h -5 z m 5,4 v 12 l 1,1 h 11 l 6,-2 1,-7 -4,-4 z"
     fill="#000000"
     id="path47757" />
  <path
     d="m 1242.9378,1961.9781 h 117 v 80 h -117 z m 5,4 -1,1 v 70 h 109 v -70 l -1,-1 z"
     fill="#000000"
     id="path47759" />
  <path
     d="m 1299.9378,1985.9781 h 7 l 5,3 3,5 1,5 v 9 l -3,9 -4,4 -2,1 h -7 l -6,-5 -2,-5 v -16 l 3,-6 z m 1,4 -4,5 -1,13 2,7 3,3 h 5 l 4,-4 1,-4 v -12 l -3,-7 z"
     fill="#000000"
     id="path47761" />
  <path
     d="m 1771.9378,1985.9781 h 7 l 5,3 3,5 1,5 v 9 l -3,9 -4,4 -2,1 h -7 l -6,-5 -2,-5 v -16 l 3,-6 z m 1,4 -4,5 -1,13 2,7 3,3 h 5 l 4,-4 1,-4 v -12 l -3,-7 z"
     fill="#000000"
     id="path47763" />
  <path
     d="m 805.93776,2026.9781 h 7 l 5,3 3,5 1,5 v 9 l -3,9 -4,4 -2,1 h -7 l -6,-5 -2,-5 v -16 l 3,-6 z m 1,4 -4,5 -1,13 2,7 3,3 h 5 l 4,-4 1,-4 v -12 l -3,-7 z"
     fill="#000000"
     id="path47765" />
  <path
     d="m 848.93776,2026.9781 h 8 l 5,4 1,5 -5,-1 -2,-3 h -6 l -3,3 -1,7 2,-2 h 10 l 5,5 1,2 v 7 l -3,6 -6,3 h -6 l -6,-4 -3,-6 v -14 l 3,-7 4,-4 z m 0,17 -4,4 v 6 l 5,5 7,-1 2,-3 v -7 l -3,-4 z"
     fill="#000000"
     id="path47767" />
  <path
     d="m 827.93776,2056.9781 h 5 v 5 h -5 z"
     fill="#000000"
     id="path47769" />
  <path
     d="m 1571.9378,2066.9781 h 7 l 8,4 2,4 v 4 l -5,-1 -3,-5 -8,-1 -4,2 -1,7 17,4 4,4 1,2 v 7 l -4,5 -5,2 h -10 l -6,-3 -3,-4 v -6 h 4 l 2,7 4,1 h 8 l 4,-2 v -6 l -6,-3 -11,-3 -4,-4 v -8 l 4,-5 z"
     fill="#000000"
     id="path47771" />
  <path
     d="m 1754.9378,2093.9781 h 8 l 6,4 2,5 v 16 l -4,8 -5,3 h -7 l -5,-3 -2,-6 h 5 l 2,4 h 7 l 3,-4 1,-6 -3,2 h -9 l -5,-5 -1,-2 v -8 l 3,-5 z m 2,4 -4,3 -1,7 2,4 2,1 h 7 l 3,-3 v -8 l -4,-4 z"
     fill="#000000"
     id="path47773" />
  <path
     d="m 1783.9378,2093.9781 h 7 l 5,3 3,5 1,5 v 9 l -3,9 -4,4 -2,1 h -7 l -6,-5 -2,-5 v -16 l 3,-6 z m 1,4 -4,5 -1,13 2,7 3,3 h 5 l 4,-4 1,-4 v -12 l -3,-7 z"
     fill="#000000"
     id="path47775" />
  <path
     d="m 888.93776,2134.9781 h 2 l -2,6 2,1 v 5 h -5 v -8 z"
     fill="#000000"
     id="path47777" />
  <path
     d="m 896.93776,2134.9781 h 2 l -2,7 h 2 v 5 h -5 v -7 z"
     fill="#000000"
     id="path47779" />
  <path
     d="m 903.93776,2134.9781 h 21 l 6,3 2,4 v 6 l -4,5 3,4 2,14 h -6 l -2,-13 -1,-1 -16,-1 v 15 h -5 z m 5,4 v 12 l 1,1 h 11 l 6,-2 1,-7 -4,-4 z"
     fill="#000000"
     id="path47781" />
  <path
     d="m 938.93776,2134.9781 h 5 v 9 l -4,4 -1,-3 h 2 v -4 l -2,-1 z"
     fill="#000000"
     id="path47783" />
  <path
     d="m 946.93776,2134.9781 h 5 v 9 l -4,4 -1,-3 h 2 v -4 l -2,-1 z"
     fill="#000000"
     id="path47785" />
  <path
     d="m 1204.9378,2134.9781 h 20 l 6,4 1,2 v 8 l -3,5 -5,2 h -14 v 15 h -5 z m 5,4 v 13 h 12 l 5,-3 v -7 l -4,-3 z"
     fill="#000000"
     id="path47787" />
  <path
     d="m 1444.9378,2139.9781 h 7 l 5,3 3,5 1,5 v 9 l -3,9 -4,4 -2,1 h -7 l -6,-5 -2,-5 v -16 l 3,-6 z m 1,4 -4,5 -1,13 2,7 3,3 h 5 l 4,-4 1,-4 v -12 l -3,-7 z"
     fill="#000000"
     id="path47789" />
  <path
     d="m 1448.9378,2210.9781 h 4 v 35 h -5 v -25 h -8 v -3 l 7,-3 z"
     fill="#000000"
     id="path47791" />
  <path
     d="m 1560.9378,2222.9781 h 21 l 6,3 2,4 v 6 l -4,5 3,4 2,14 h -6 l -2,-13 -1,-1 -16,-1 v 15 h -5 z m 5,4 v 12 l 1,1 h 11 l 6,-2 1,-7 -4,-4 z"
     fill="#000000"
     id="path47793" />
  <path
     d="m 874.93776,2224.9781 h 117 v 80 h -116 l -1,-1 z m 5,4 -1,1 v 70 h 109 v -71 z"
     fill="#000000"
     id="path47795" />
  <path
     d="m 1242.9378,2224.9781 h 117 v 80 h -117 z m 5,4 -1,1 v 70 h 109 v -71 z"
     fill="#000000"
     id="path47797" />
  <path
     d="m 943.93776,2244.9781 h 7 l 5,3 3,5 1,5 v 9 l -3,9 -4,4 -2,1 h -7 l -6,-5 -2,-5 v -16 l 3,-6 z m 1,4 -4,5 -1,13 2,7 3,3 h 5 l 4,-4 1,-4 v -12 l -3,-7 z"
     fill="#000000"
     id="path47799" />
  <path
     d="m 910.93776,2245.9781 h 19 v 4 h -15 v 8 l 7,-1 6,3 3,3 1,8 -3,6 -6,4 h -7 l -6,-3 -2,-3 v -4 l 5,1 1,4 h 8 l 4,-4 v -6 l -2,-3 -6,-1 -5,3 -4,-1 z"
     fill="#000000"
     id="path47801" />
  <path
     d="m 1287.9378,2248.9781 h 9 l 6,5 1,8 -4,6 -13,8 -2,4 h 19 v 4 h -24 l 1,-8 5,-5 9,-6 h 2 l 1,-8 -3,-3 h -6 l -3,3 -1,4 h -5 l 2,-8 3,-3 z"
     fill="#000000"
     id="path47803" />
  <path
     d="m 1315.9378,2248.9781 h 7 l 5,3 3,5 1,5 v 9 l -3,9 -4,4 -2,1 h -7 l -6,-5 -2,-5 v -16 l 3,-6 z m 1,4 -4,5 -1,13 2,7 3,3 h 5 l 4,-4 1,-4 v -12 l -3,-7 z"
     fill="#000000"
     id="path47805" />
  <path
     d="m 1755.9378,2248.9781 h 9 l 6,5 1,8 -4,6 -13,8 -2,4 h 19 v 4 h -24 l 1,-8 5,-5 9,-6 h 2 l 1,-8 -3,-3 h -6 l -3,3 -1,4 h -5 l 2,-8 3,-3 z"
     fill="#000000"
     id="path47807" />
  <path
     d="m 1783.9378,2248.9781 h 7 l 5,3 3,5 1,5 v 9 l -3,9 -4,4 -2,1 h -7 l -6,-5 -2,-5 v -16 l 3,-6 z m 1,4 -4,5 -1,13 2,7 3,3 h 5 l 4,-4 1,-4 v -12 l -3,-7 z"
     fill="#000000"
     id="path47809" />
  <path
     d="m 1571.9378,2329.9781 h 7 l 8,4 2,4 v 4 l -5,-1 -3,-5 -8,-1 -4,2 -1,7 17,4 4,4 1,2 v 7 l -4,5 -5,2 h -10 l -6,-3 -3,-4 v -6 h 4 l 2,7 4,1 h 8 l 4,-2 v -6 l -6,-3 -11,-3 -4,-4 v -8 l 4,-5 z"
     fill="#000000"
     id="path47811" />
  <path
     d="m 1762.9378,2360.9781 h 4 v 23 h 5 v 3 h -5 v 9 h -4 l -1,-8 -15,-1 1,-6 10,-13 z m -2,8 -9,13 v 2 h 10 l 1,-1 v -14 z"
     fill="#000000"
     id="path47813" />
  <path
     d="m 1783.9378,2360.9781 h 7 l 5,3 3,5 1,5 v 9 l -3,9 -4,4 -2,1 h -7 l -6,-5 -2,-5 v -16 l 3,-6 z m 1,4 -4,5 -1,13 2,7 3,3 h 5 l 4,-4 1,-4 v -12 l -3,-7 z"
     fill="#000000"
     id="path47815" />
  <path
     d="m 1214.9378,2397.9781 h 5 v 36 h -5 z"
     fill="#000000"
     id="path47817" />
  <path
     d="m 1444.9378,2402.9781 h 7 l 5,3 3,5 1,5 v 9 l -3,9 -4,4 -2,1 h -7 l -6,-5 -2,-5 v -16 l 3,-6 z m 1,4 -4,5 -1,13 2,7 3,3 h 5 l 4,-4 1,-4 v -12 l -3,-7 z"
     fill="#000000"
     id="path47819" />
  <path
     d="m 1448.9378,2473.9781 h 4 v 35 h -5 v -25 h -8 v -3 l 7,-3 z"
     fill="#000000"
     id="path47821" />
  <path
     d="m 1560.9378,2485.9781 h 21 l 6,3 2,4 v 6 l -4,5 3,4 2,14 h -6 l -2,-13 -1,-1 -16,-1 v 15 h -5 z m 5,4 v 12 l 1,1 h 11 l 6,-2 1,-7 -4,-4 z"
     fill="#000000"
     id="path47823" />
  <path
     d="m 1242.9378,2487.9781 h 117 v 80 h -117 z m 5,4 -1,1 v 70 h 109 v -71 z"
     fill="#000000"
     id="path47825" />
  <path
     d="m 1311.9378,2511.9781 h 7 l 5,3 3,5 1,5 v 9 l -3,9 -4,4 -2,1 h -7 l -6,-5 -2,-5 v -16 l 3,-6 z m 1,4 -4,5 -1,13 2,7 3,3 h 5 l 4,-4 1,-4 v -12 l -3,-7 z"
     fill="#000000"
     id="path47827" />
  <path
     d="m 1783.9378,2511.9781 h 7 l 5,3 3,5 1,5 v 9 l -3,9 -4,4 -2,1 h -7 l -6,-5 -2,-5 v -16 l 3,-6 z m 1,4 -4,5 -1,13 2,7 3,3 h 5 l 4,-4 1,-4 v -12 l -3,-7 z"
     fill="#000000"
     id="path47829" />
  <path
     d="m 1278.9378,2512.9781 h 19 v 4 h -15 v 8 l 7,-1 6,3 3,3 1,8 -3,6 -6,4 h -7 l -6,-3 -2,-3 v -4 l 5,1 1,4 h 8 l 4,-4 v -6 l -2,-3 -6,-1 -5,3 -4,-1 z"
     fill="#000000"
     id="path47831" />
  <path
     d="m 1750.9378,2512.9781 h 19 v 4 h -15 v 8 l 7,-1 6,3 3,3 1,8 -3,6 -6,4 h -7 l -6,-3 -2,-3 v -4 l 5,1 1,4 h 8 l 4,-4 v -6 l -2,-3 -6,-1 -5,3 -4,-1 z"
     fill="#000000"
     id="path47833" />
  <path
     d="m 1575.208,110.03648 h 7 l 8,4 2,4 v 4 l -5,-1 -3,-5 -8,-1 -4,2 -1,7 17,4 4,4 1,2 v 7 l -4,5 -5,2 h -10 l -6,-3 -3,-4 v -6 h 4 l 2,7 4,1 h 8 l 4,-2 v -6 l -6,-3 -11,-3 -4,-4 v -8 l 4,-5 z"
     fill="#000000"
     id="path47507-1" />
  <text
     xml:space="preserve"
     style="font-size:48px;font-family:Arial;-inkscape-font-specification:'Arial, Normal';fill:#000000;fill-opacity:0.958217;stroke:#171724;stroke-width:1.714;stroke-miterlimit:3.9"
     x="1766.8073"
     y="83.377419"
     id="text51612"><tspan
       sodipodi:role="line"
       id="tspan51610"
       x="1766.8073"
       y="83.377419">$</tspan></text>
</svg>
