<?xml version="1.0" encoding="UTF-8" standalone="no"?>
<!-- Generator: visioncortex VTracer 0.6.12 -->

<svg
   version="1.1"
   width="1876"
   height="551"
   id="svg7951"
   xmlns="http://www.w3.org/2000/svg"
   xmlns:svg="http://www.w3.org/2000/svg">
  <defs
     id="defs7955" />
  <path
     d="M0,0 L20,0 L25,4 L26,11 L23,17 L27,21 L28,27 L25,33 L19,36 L0,36 Z M5,4 L5,15 L18,15 L21,12 L21,7 L18,4 Z M5,19 L5,32 L18,32 L23,27 L22,22 L18,19 Z "
     fill="#000000"
     transform="translate(1018,45)"
     id="path7943" />
  <path
     d="M0,0 L315,0 L315,5 L3,6 L-23,32 L-31,39 L-60,68 L-68,75 L-97,104 L-105,111 L-127,133 L-126,137 L-122,147 L-122,160 L-126,170 L-128,174 L-113,188 L-87,214 L-79,221 L-50,250 L-42,257 L-13,286 L-5,293 L4,302 L315,303 L315,307 L-1,307 L-37,271 L-45,264 L-74,235 L-82,228 L-111,199 L-119,192 L-132,179 L-137,181 L-147,185 L-160,185 L-170,181 L-179,173 L-184,163 L-185,158 L-185,149 L-181,138 L-175,130 L-165,124 L-158,122 L-149,122 L-139,125 L-134,128 L-130,126 L-115,112 L-88,85 L-80,78 L-51,49 L-43,42 L-14,13 L-6,6 Z M-156,126 L-166,129 L-174,135 L-179,143 L-181,152 L-180,161 L-175,171 L-167,178 L-158,181 L-148,181 L-138,177 L-130,169 L-126,159 L-126,148 L-130,139 L-137,131 L-145,127 Z "
     fill="#000000"
     transform="translate(880,114)"
     id="path7945" />
  <path
     d="M0,0 L20,0 L25,4 L26,11 L23,17 L27,21 L28,27 L25,33 L19,36 L0,36 Z M5,4 L5,15 L18,15 L21,12 L21,7 L18,4 Z M5,19 L5,32 L18,32 L23,27 L22,22 L18,19 Z "
     fill="#000000"
     transform="translate(1027,461)"
     id="path7947" />
  <text
     xml:space="preserve"
     style="font-size:32px;font-family:'Arial Black';-inkscape-font-specification:'Arial Black, Normal';fill:#333333;stroke:#f6f6ff;stroke-width:3.425"
     x="1058.8438"
     y="474.94531"
     id="text6687-32"><tspan
       id="tspan6685-8"
       x="1058.8438"
       y="474.94531">C</tspan></text>
</svg>
