<?xml version="1.0" encoding="UTF-8" standalone="no"?>
<!-- Generator: visioncortex VTracer 0.6.12 -->

<svg
   version="1.1"
   width="1876"
   height="1105"
   id="svg4747"
   xmlns="http://www.w3.org/2000/svg"
   xmlns:svg="http://www.w3.org/2000/svg">
  <defs
     id="defs4751" />
  <path
     d="M0,0 L9,0 L15,3 L19,8 L20,12 L15,12 L12,7 L3,5 L-2,7 L-6,12 L-7,21 L-4,30 L2,33 L10,32 L14,28 L16,22 L5,22 L5,18 L20,18 L20,37 L17,37 L15,34 L11,37 L8,38 L0,38 L-8,34 L-12,27 L-13,17 L-10,8 L-6,3 Z "
     fill="#000000"
     transform="translate(1181,20)"
     id="path4703" />
  <path
     d="M0,0 L9,0 L15,3 L19,8 L20,12 L15,12 L12,7 L3,5 L-2,7 L-6,12 L-7,21 L-4,30 L2,33 L10,32 L14,28 L16,22 L5,22 L5,18 L20,18 L20,37 L17,37 L15,34 L11,37 L8,38 L0,38 L-8,34 L-12,27 L-13,17 L-10,8 L-6,3 Z "
     fill="#000000"
     transform="translate(1455,107)"
     id="path4705" />
  <path
     d="M0,0 L19,0 L24,3 L26,7 L25,14 L23,17 L27,21 L27,30 L22,35 L19,36 L0,36 Z M5,4 L4,5 L4,15 L18,15 L21,12 L21,7 L17,4 Z M5,19 L4,20 L4,31 L5,32 L18,32 L22,29 L23,25 L20,20 L18,19 Z "
     fill="#000000"
     transform="translate(1411,108)"
     id="path4707" />
  <path
     d="M0,0 L305,0 L305,5 L3,6 L-123,132 L-118,143 L-117,152 L-119,162 L-125,172 L4,301 L305,302 L305,306 L-1,306 L-130,177 L-140,180 L-154,180 L-166,174 L-172,167 L-176,157 L-176,155 L-448,156 L-583,426 L-578,431 L-573,437 L-569,448 L-569,456 L-572,466 L-578,474 L-584,478 L-582,484 L-448,752 L-176,753 L-175,744 L-171,736 L-164,729 L-156,725 L-152,724 L-142,724 L-131,728 L-127,729 L-1,603 L305,603 L305,607 L3,608 L-123,734 L-121,739 L-118,746 L-117,754 L-119,764 L-124,772 L-124,776 L2,902 L4,903 L305,904 L305,908 L-1,908 L-130,779 L-139,782 L-150,783 L-160,780 L-168,774 L-174,765 L-176,759 L-452,758 L-462,739 L-590,483 L-590,481 L-606,481 L-618,475 L-625,466 L-628,457 L-628,448 L-624,437 L-617,429 L-611,425 L-604,423 L-593,423 L-588,424 L-586,418 L-453,152 L-452,151 L-176,151 L-175,142 L-171,134 L-167,129 L-157,123 L-153,122 L-140,122 L-131,126 L-127,127 Z M-152,126 L-161,130 L-166,134 L-171,143 L-172,147 L-172,155 L-169,164 L-163,171 L-156,175 L-152,176 L-141,176 L-132,172 L-124,163 L-122,158 L-122,145 L-126,136 L-134,129 L-142,126 Z M-603,427 L-613,431 L-620,438 L-623,445 L-624,455 L-621,464 L-615,472 L-605,477 L-592,477 L-584,473 L-579,469 L-574,459 L-573,450 L-576,440 L-584,431 L-594,427 Z M-150,728 L-159,731 L-167,738 L-171,745 L-172,749 L-172,758 L-169,766 L-162,774 L-154,778 L-140,778 L-132,774 L-127,769 L-123,763 L-122,760 L-122,747 L-127,737 L-134,731 L-143,728 Z "
     fill="#000000"
     transform="translate(1027,123)"
     id="path4709" />
  <path
     d="M0,0 L19,0 L24,3 L26,7 L25,14 L23,17 L27,21 L27,30 L22,35 L19,36 L0,36 Z M5,4 L4,5 L4,15 L18,15 L21,12 L21,7 L17,4 Z M5,19 L4,20 L4,31 L5,32 L18,32 L22,29 L23,25 L20,20 L18,19 Z "
     fill="#000000"
     transform="translate(736,180)"
     id="path4711" />
  <path
     d="M0,0 L9,0 L15,3 L19,8 L20,12 L15,12 L12,7 L3,5 L-2,7 L-6,12 L-7,21 L-4,30 L2,33 L10,32 L14,28 L16,22 L5,22 L5,18 L20,18 L20,37 L17,37 L15,34 L11,37 L8,38 L0,38 L-8,34 L-12,27 L-13,17 L-10,8 L-6,3 Z "
     fill="#000000"
     transform="translate(1176,337)"
     id="path4713" />
  <path
     d="M0,0 L9,0 L15,3 L19,8 L20,12 L15,12 L12,7 L3,5 L-2,7 L-6,12 L-7,21 L-4,30 L2,33 L10,32 L14,28 L16,22 L5,22 L5,18 L20,18 L20,37 L17,37 L15,34 L11,37 L8,38 L0,38 L-8,34 L-12,27 L-13,17 L-10,8 L-6,3 Z "
     fill="#000000"
     transform="translate(1455,409)"
     id="path4717" />
  <path
     d="M0,0 L19,0 L24,3 L26,7 L25,14 L23,17 L27,21 L27,30 L22,35 L19,36 L0,36 Z M5,4 L4,5 L4,15 L18,15 L21,12 L21,7 L17,4 Z M5,19 L4,20 L4,31 L5,32 L18,32 L22,29 L23,25 L20,20 L18,19 Z "
     fill="#000000"
     transform="translate(1410,410)"
     id="path4719" />
  <path
     d="M0,0 L9,0 L15,3 L19,8 L20,12 L15,12 L12,7 L3,5 L-2,7 L-6,12 L-7,21 L-4,30 L2,33 L10,32 L14,28 L16,22 L5,22 L5,18 L20,18 L20,37 L17,37 L15,34 L11,37 L8,38 L0,38 L-8,34 L-12,27 L-13,17 L-10,8 L-6,3 Z "
     fill="#000000"
     transform="translate(1181,630)"
     id="path4723" />
  <path
     d="m 1479.7143,710 h 9 l 6,3 4,5 1,4 h -5 l -3,-5 -9,-2 -5,2 -4,5 -1,9 3,9 6,3 8,-1 4,-4 2,-6 h -11 v -4 h 15 v 19 h -3 l -2,-3 -4,3 -3,1 h -8 l -8,-4 -4,-7 -1,-10 3,-9 4,-5 z"
     fill="#000000"
     id="path4725" />
  <path
     d="M0,0 L19,0 L24,3 L26,7 L25,14 L23,17 L27,21 L27,30 L22,35 L19,36 L0,36 Z M5,4 L4,5 L4,15 L18,15 L21,12 L21,7 L17,4 Z M5,19 L4,20 L4,31 L5,32 L18,32 L22,29 L23,25 L20,20 L18,19 Z "
     fill="#000000"
     transform="translate(1410,711)"
     id="path4727" />
  <path
     d="M0,0 L19,0 L24,3 L26,7 L25,14 L23,17 L27,21 L27,30 L22,35 L19,36 L0,36 Z M5,4 L4,5 L4,15 L18,15 L21,12 L21,7 L17,4 Z M5,19 L4,20 L4,31 L5,32 L18,32 L22,29 L23,25 L20,20 L18,19 Z "
     fill="#000000"
     transform="translate(731,782)"
     id="path4731" />
  <path
     d="M0,0 L9,0 L15,3 L19,8 L20,12 L15,12 L12,7 L3,5 L-2,7 L-6,12 L-7,21 L-4,30 L2,33 L10,32 L14,28 L16,22 L5,22 L5,18 L20,18 L20,37 L17,37 L15,34 L11,37 L8,38 L0,38 L-8,34 L-12,27 L-13,17 L-10,8 L-6,3 Z "
     fill="#000000"
     transform="translate(1185,940)"
     id="path4735" />
  <path
     d="m 1469.7619,1010.5238 h 9 l 6,3 4,5 1,4 h -5 l -3,-5 -9,-2 -5,2 -4,5 -1,9 3,9 6,3 8,-1 4,-4 2,-6 h -11 v -4 h 15 v 19 h -3 l -2,-3 -4,3 -3,1 h -8 l -8,-4 -4,-7 -1,-10 3,-9 4,-5 z"
     fill="#000000"
     id="path4739" />
  <path
     d="M0,0 L19,0 L24,3 L26,7 L25,14 L23,17 L27,21 L27,30 L22,35 L19,36 L0,36 Z M5,4 L4,5 L4,15 L18,15 L21,12 L21,7 L17,4 Z M5,19 L4,20 L4,31 L5,32 L18,32 L22,29 L23,25 L20,20 L18,19 Z "
     fill="#000000"
     transform="translate(1401,1012)"
     id="path4741" />
  <text
     xml:space="preserve"
     style="font-size:32px;font-family:'Arial Black';-inkscape-font-specification:'Arial Black, Normal';fill:#333333;stroke:#f6f6ff;stroke-width:3.425"
     x="1199.5238"
     y="350.4762"
     id="text6687"><tspan
       id="tspan6685"
       x="1199.5238"
       y="350.4762">C</tspan></text>
  <text
     xml:space="preserve"
     style="font-size:32px;font-family:'Arial Black';-inkscape-font-specification:'Arial Black, Normal';fill:#333333;stroke:#f6f6ff;stroke-width:3.425"
     x="1473.058"
     y="425.25482"
     id="text6687-3"><tspan
       id="tspan6685-9"
       x="1473.058"
       y="425.25482">C</tspan></text>
  <text
     xml:space="preserve"
     style="font-size:32px;font-family:'Arial Black';-inkscape-font-specification:'Arial Black, Normal';fill:#333333;stroke:#f6f6ff;stroke-width:3.425"
     x="760.20087"
     y="794.77869"
     id="text6687-4"><tspan
       id="tspan6685-90"
       x="760.20087"
       y="794.77869">C</tspan></text>
  <text
     xml:space="preserve"
     style="font-size:32px;font-family:'Arial Black';-inkscape-font-specification:'Arial Black, Normal';fill:#333333;stroke:#f6f6ff;stroke-width:3.425"
     x="1207.3438"
     y="954.77863"
     id="text6687-32"><tspan
       id="tspan6685-8"
       x="1207.3438"
       y="954.77863">C</tspan></text>
  <text
     xml:space="preserve"
     style="font-size:32px;font-family:'Arial Black';-inkscape-font-specification:'Arial Black, Normal';fill:#333333;stroke:#f6f6ff;stroke-width:3.425"
     x="1436.8676"
     y="724.77863"
     id="text6687-8"><tspan
       id="tspan6685-3"
       x="1436.8676"
       y="724.77863">C</tspan></text>
  <text
     xml:space="preserve"
     style="font-size:32px;font-family:'Arial Black';-inkscape-font-specification:'Arial Black, Normal';fill:#333333;stroke:#f6f6ff;stroke-width:3.425"
     x="1429.7247"
     y="1024.7787"
     id="text6687-7"><tspan
       id="tspan6685-0"
       x="1429.7247"
       y="1024.7787">C</tspan></text>
  <text
     xml:space="preserve"
     style="font-size:32px;font-family:'Arial Black';-inkscape-font-specification:'Arial Black, Normal';fill:#333333;stroke:#f6f6ff;stroke-width:3.425"
     x="1491.1533"
     y="1025.731"
     id="text6687-73"><tspan
       id="tspan6685-32"
       x="1491.1533"
       y="1025.731">C</tspan></text>
</svg>
