<?xml version="1.0" encoding="UTF-8" standalone="no"?>
<!-- Generator: visioncortex VTracer 0.6.12 -->

<svg
   version="1.1"
   width="1876"
   height="897"
   id="svg19467"
   xmlns="http://www.w3.org/2000/svg"
   xmlns:svg="http://www.w3.org/2000/svg">
  <defs
     id="defs19471" />
  <path
     d="M0,0 L10,2 L15,7 L16,11 L11,11 L9,7 L1,5 L-6,7 L-8,13 L-8,24 L-5,29 L-2,31 L5,31 L10,28 L12,21 L2,21 L2,17 L17,17 L17,35 L13,35 L12,32 L8,35 L5,36 L-2,36 L-10,32 L-13,27 L-14,22 L-14,15 L-11,7 L-6,2 Z "
     fill="#000000"
     transform="translate(701,13)"
     id="path19403" />
  <path
     d="M0,0 L16,0 L22,3 L23,5 L23,12 L20,17 L24,19 L25,21 L25,27 L20,33 L17,34 L-1,34 L-1,1 Z M4,4 L4,15 L13,15 L18,13 L19,7 L15,4 Z M4,18 L4,30 L17,30 L20,27 L20,21 L16,18 Z "
     fill="#000000"
     transform="translate(1167,14)"
     id="path19405" />
  <path
     d="M0,0 L16,0 L22,3 L23,5 L23,12 L20,17 L24,19 L25,21 L25,27 L20,33 L17,34 L-1,34 L-1,1 Z M4,4 L4,15 L13,15 L18,13 L19,7 L15,4 Z M4,18 L4,30 L17,30 L20,27 L20,21 L16,18 Z "
     fill="#000000"
     transform="translate(918,80)"
     id="path19407" />
  <path
     d="M0,0 L10,2 L15,7 L16,11 L11,11 L9,7 L1,5 L-6,7 L-8,13 L-8,24 L-5,29 L-2,31 L5,31 L10,28 L12,21 L2,21 L2,17 L17,17 L17,35 L13,35 L12,32 L8,35 L5,36 L-2,36 L-10,32 L-13,27 L-14,22 L-14,15 L-11,7 L-6,2 Z "
     fill="#000000"
     transform="translate(961,79)"
     id="path19409" />
  <path
     d="M0,0 L255,0 L255,4 L4,5 L-6,15 L-14,22 L-28,36 L-36,43 L-49,56 L-57,63 L-71,77 L-79,84 L-92,97 L-100,104 L-100,107 L-96,114 L-95,124 L-98,133 L-98,137 L-59,176 L-51,183 L3,237 L5,238 L255,239 L255,243 L1,243 L-9,233 L-17,226 L-78,165 L-86,158 L-104,140 L-112,144 L-116,145 L-125,145 L-135,141 L-140,137 L-145,128 L-146,122 L-365,122 L-378,148 L-388,167 L-408,206 L-423,235 L-440,268 L-455,297 L-473,332 L-477,341 L-473,343 L-467,350 L-465,356 L-465,364 L-469,374 L-474,379 L-476,379 L-448,435 L-438,454 L-414,502 L-404,521 L-380,569 L-370,588 L-365,598 L-145,599 L-144,590 L-140,584 L-134,579 L-127,576 L-114,576 L-105,580 L-101,578 L-38,515 L-30,508 L1,477 L255,478 L255,482 L4,483 L-19,506 L-27,513 L-86,572 L-94,579 L-99,584 L-97,590 L-95,597 L-96,606 L-100,613 L-100,616 L-85,631 L-77,638 L-64,651 L-56,658 L-43,671 L-35,678 L-21,692 L-13,699 L0,712 L5,716 L255,717 L255,720 L1,721 L-6,714 L-14,707 L-27,694 L-35,687 L-49,673 L-57,666 L-70,653 L-78,646 L-92,632 L-100,625 L-105,620 L-110,621 L-122,623 L-131,621 L-137,617 L-143,610 L-145,606 L-145,603 L-369,603 L-379,584 L-398,546 L-408,527 L-432,479 L-442,460 L-465,414 L-475,395 L-481,383 L-493,384 L-503,381 L-511,374 L-515,366 L-515,355 L-510,345 L-502,339 L-497,337 L-484,337 L-482,338 L-480,332 L-457,287 L-445,264 L-427,229 L-410,196 L-395,167 L-378,134 L-369,117 L-145,117 L-143,110 L-137,103 L-130,99 L-126,98 L-115,98 L-106,101 L-93,89 L-81,77 L-73,70 L-60,57 L-52,50 L-38,36 L-30,29 L-16,15 L-8,8 Z M-126,102 L-134,106 L-140,113 L-142,119 L-141,128 L-137,134 L-131,139 L-125,141 L-116,141 L-107,137 L-101,130 L-99,124 L-100,115 L-105,107 L-115,102 Z M-496,341 L-504,345 L-510,352 L-511,355 L-511,366 L-505,375 L-498,379 L-494,380 L-486,380 L-477,376 L-470,368 L-469,365 L-469,356 L-473,348 L-481,342 L-484,341 Z M-121,579 L-130,581 L-137,586 L-141,593 L-142,601 L-139,609 L-135,614 L-128,618 L-118,619 L-109,616 L-102,610 L-99,602 L-100,592 L-106,584 L-114,580 Z "
     fill="#000000"
     transform="translate(571,95)"
     id="path19411" />
  <path
     d="M0,0 L255,0 L263,16 L273,36 L283,55 L303,94 L318,123 L335,156 L352,189 L366,216 L379,215 L388,218 L395,224 L400,234 L400,239 L625,239 L636,250 L644,257 L661,273 L673,284 L686,296 L699,308 L712,320 L727,334 L735,340 L742,337 L755,337 L763,340 L768,344 L773,352 L774,355 L774,365 L769,375 L762,381 L752,384 L741,383 L732,379 L715,395 L704,406 L696,413 L682,427 L674,434 L660,448 L652,455 L638,469 L630,476 L624,482 L400,482 L399,490 L393,498 L388,502 L381,505 L370,505 L366,505 L354,528 L336,563 L321,592 L303,627 L288,656 L270,691 L255,720 L250,721 L0,720 L0,717 L250,716 L270,677 L284,650 L301,617 L316,588 L334,553 L349,524 L360,503 L359,499 L353,492 L350,482 L351,472 L355,464 L360,459 L359,454 L349,435 L329,396 L315,369 L315,367 L312,370 L298,398 L288,417 L267,458 L255,481 L254,482 L0,482 L0,478 L250,477 L267,444 L282,415 L299,382 L310,361 L308,356 L294,328 L284,309 L264,270 L251,245 L251,243 L0,243 L0,239 L255,239 L271,271 L281,290 L302,331 L314,353 L331,320 L348,287 L360,264 L360,261 L355,256 L351,248 L350,238 L353,228 L360,220 L358,214 L344,186 L334,167 L314,128 L300,101 L283,68 L268,39 L251,6 L251,4 L0,4 Z M372,219 L364,222 L357,229 L354,237 L354,244 L358,254 L365,260 L370,262 L381,262 L389,258 L394,252 L397,243 L396,234 L392,227 L385,221 L379,219 Z M400,243 L397,253 L390,261 L381,265 L366,265 L358,279 L347,301 L337,320 L317,359 L318,364 L332,391 L349,424 L365,455 L368,456 L372,455 L379,455 L388,458 L395,464 L399,473 L400,478 L620,478 L637,462 L649,450 L657,443 L671,429 L679,422 L694,407 L702,400 L716,386 L724,379 L728,375 L727,371 L725,365 L725,355 L730,344 L713,328 L701,317 L686,303 L674,292 L661,280 L646,266 L634,255 L621,243 Z M743,341 L735,345 L729,352 L728,355 L728,365 L732,373 L741,379 L745,380 L753,380 L761,377 L766,372 L769,368 L770,365 L770,355 L765,347 L760,343 L755,341 Z M371,458 L361,463 L355,472 L354,476 L354,483 L358,493 L365,499 L370,501 L381,501 L389,497 L395,489 L397,482 L396,473 L393,467 L385,460 L379,458 Z "
     fill="#000000"
     transform="translate(1061,95)"
     id="path19413" />
  <path
     d="M0,0 L17,0 L22,3 L24,6 L23,13 L21,16 L25,20 L25,28 L20,33 L18,34 L0,34 Z M4,4 L4,14 L5,15 L14,15 L19,12 L19,6 L16,4 Z M4,18 L4,30 L17,30 L21,26 L20,20 L16,18 Z "
     fill="#000000"
     transform="translate(331,139)"
     id="path19415" />
  <path
     d="M0,0 L10,2 L15,7 L16,11 L11,11 L9,7 L1,5 L-6,7 L-8,13 L-8,24 L-5,29 L-2,31 L5,31 L10,28 L12,21 L2,21 L2,17 L17,17 L17,35 L13,35 L12,32 L8,35 L5,36 L-2,36 L-10,32 L-13,27 L-14,22 L-14,15 L-11,7 L-6,2 Z "
     fill="#000000"
     transform="translate(708,267)"
     id="path19417" />
  <path
     d="M0,0 L16,0 L22,3 L23,5 L23,12 L20,17 L24,19 L25,21 L25,27 L20,33 L17,34 L-1,34 L-1,1 Z M4,4 L4,15 L13,15 L18,13 L19,7 L15,4 Z M4,18 L4,30 L17,30 L20,27 L20,21 L16,18 Z "
     fill="#000000"
     transform="translate(1167,268)"
     id="path19421" />
  <path
     d="M0,0 L10,2 L15,7 L16,11 L11,11 L9,7 L1,5 L-6,7 L-8,13 L-8,24 L-5,29 L-2,31 L5,31 L10,28 L12,21 L2,21 L2,17 L17,17 L17,35 L13,35 L12,32 L8,35 L5,36 L-2,36 L-10,32 L-13,27 L-14,22 L-14,15 L-11,7 L-6,2 Z "
     fill="#000000"
     transform="translate(1579,267)"
     id="path19423" />
  <path
     d="M0,0 L17,0 L22,3 L24,6 L23,13 L21,16 L25,20 L25,28 L20,33 L18,34 L0,34 Z M4,4 L4,14 L5,15 L14,15 L19,12 L19,6 L16,4 Z M4,18 L4,30 L17,30 L21,26 L20,20 L16,18 Z "
     fill="#000000"
     transform="translate(913,323)"
     id="path19425" />
  <path
     d="M0,0 L10,2 L15,8 L15,11 L10,10 L6,6 L1,5 L-6,8 L-8,11 L-9,21 L-6,29 L-2,31 L5,31 L9,30 L12,21 L2,21 L1,17 L16,17 L16,35 L13,35 L11,32 L7,35 L4,36 L-3,36 L-9,33 L-13,28 L-14,25 L-14,12 L-10,5 L-5,1 Z "
     fill="#000000"
     transform="translate(957,322)"
     id="path19427" />
  <path
     d="M0,0 L10,2 L15,7 L16,11 L11,11 L9,7 L1,5 L-6,7 L-8,13 L-8,24 L-5,29 L-2,31 L5,31 L10,28 L12,21 L2,21 L2,17 L17,17 L17,35 L13,35 L12,32 L8,35 L5,36 L-2,36 L-10,32 L-13,27 L-14,22 L-14,15 L-11,7 L-6,2 Z "
     fill="#000000"
     transform="translate(701,499)"
     id="path19431" />
  <path
     d="M0,0 L17,0 L22,3 L24,6 L23,13 L21,16 L25,20 L25,28 L20,33 L18,34 L0,34 Z M4,4 L4,14 L5,15 L14,15 L19,12 L19,6 L16,4 Z M4,18 L4,30 L17,30 L21,26 L20,20 L16,18 Z "
     fill="#000000"
     transform="translate(1166,500)"
     id="path19433" />
  <path
     d="M0,0 L10,2 L15,8 L15,11 L10,10 L6,6 L1,5 L-6,8 L-8,11 L-9,21 L-6,29 L-2,31 L5,31 L9,30 L12,21 L2,21 L1,17 L16,17 L16,35 L13,35 L11,32 L7,35 L4,36 L-3,36 L-9,33 L-13,28 L-14,25 L-14,12 L-10,5 L-5,1 Z "
     fill="#000000"
     transform="translate(1579,499)"
     id="path19437" />
  <path
     d="M0,0 L17,0 L22,3 L24,6 L23,13 L21,16 L25,20 L25,28 L20,33 L18,34 L0,34 Z M4,4 L4,14 L5,15 L14,15 L19,12 L19,6 L16,4 Z M4,18 L4,30 L17,30 L21,26 L20,20 L16,18 Z "
     fill="#000000"
     transform="translate(917,562)"
     id="path19441" />
  <path
     d="m 980,561 10,2 5,5 1,4 h -5 l -2,-4 -8,-2 -7,2 -2,6 v 11 l 3,5 3,2 h 7 l 5,-3 2,-7 h -10 v -4 h 15 v 18 h -4 l -1,-3 -4,3 -3,1 h -7 l -8,-4 -3,-5 -1,-5 v -7 l 3,-8 5,-5 z"
     fill="#000000"
     id="path19445" />
  <path
     d="M0,0 L16,0 L22,3 L23,5 L23,12 L20,17 L24,19 L25,21 L25,27 L20,33 L17,34 L-1,34 L-1,1 Z M4,4 L4,15 L13,15 L18,13 L19,7 L15,4 Z M4,18 L4,30 L17,30 L20,27 L20,21 L16,18 Z "
     fill="#000000"
     transform="translate(327,621)"
     id="path19447" />
  <path
     d="M0,0 L10,2 L15,7 L16,11 L11,11 L9,7 L1,5 L-6,7 L-8,13 L-8,24 L-5,29 L-2,31 L5,31 L10,28 L12,21 L2,21 L2,17 L17,17 L17,35 L13,35 L12,32 L8,35 L5,36 L-2,36 L-10,32 L-13,27 L-14,22 L-14,15 L-11,7 L-6,2 Z "
     fill="#000000"
     transform="translate(704,745)"
     id="path19451" />
  <path
     d="M0,0 L17,0 L22,3 L24,6 L23,13 L21,16 L25,20 L25,28 L20,33 L18,34 L0,34 Z M4,4 L4,14 L5,15 L14,15 L19,12 L19,6 L16,4 Z M4,18 L4,30 L17,30 L21,26 L20,20 L16,18 Z "
     fill="#000000"
     transform="translate(1170,746)"
     id="path19455" />
  <path
     d="M0,0 L16,0 L22,3 L23,5 L23,12 L20,17 L24,19 L25,21 L25,27 L20,33 L17,34 L-1,34 L-1,1 Z M4,4 L4,15 L13,15 L18,13 L19,7 L15,4 Z M4,18 L4,30 L17,30 L20,27 L20,21 L16,18 Z "
     fill="#000000"
     transform="translate(913,797)"
     id="path19459" />
  <path
     d="m 978.5,795.5 10,2 5,6 v 3 l -5,-1 -4,-4 -5,-1 -7,3 -2,3 -1,10 3,8 4,2 h 7 l 4,-1 3,-9 h -10 l -1,-4 h 15 v 18 h -3 l -2,-3 -4,3 -3,1 h -7 l -6,-3 -4,-5 -1,-3 v -13 l 4,-7 5,-4 z"
     fill="#000000"
     id="path19463" />
  <text
     xml:space="preserve"
     style="font-size:32px;font-family:'Arial Black';-inkscape-font-specification:'Arial Black, Normal';fill:#333333;stroke:#f6f6ff;stroke-width:3.425"
     x="722.84375"
     y="283.44531"
     id="text6687-32"><tspan
       id="tspan6685-8"
       x="722.84375"
       y="283.44531">C</tspan></text>
  <text
     xml:space="preserve"
     style="font-size:32px;font-family:'Arial Black';-inkscape-font-specification:'Arial Black, Normal';fill:#333333;stroke:#f6f6ff;stroke-width:3.425"
     x="971.34375"
     y="337.44531"
     id="text6687-32-8"><tspan
       id="tspan6685-8-4"
       x="971.34375"
       y="337.44531">C</tspan></text>
  <text
     xml:space="preserve"
     style="font-size:32px;font-family:'Arial Black';-inkscape-font-specification:'Arial Black, Normal';fill:#333333;stroke:#f6f6ff;stroke-width:3.425"
     x="1190.8438"
     y="514.94531"
     id="text6687-32-0"><tspan
       id="tspan6685-8-8"
       x="1190.8438"
       y="514.94531">C</tspan></text>
  <text
     xml:space="preserve"
     style="font-size:32px;font-family:'Arial Black';-inkscape-font-specification:'Arial Black, Normal';fill:#333333;stroke:#f6f6ff;stroke-width:3.425"
     x="1595.3438"
     y="515.94531"
     id="text6687-32-9"><tspan
       id="tspan6685-8-5"
       x="1595.3438"
       y="515.94531">C</tspan></text>
  <text
     xml:space="preserve"
     style="font-size:32px;font-family:'Arial Black';-inkscape-font-specification:'Arial Black, Normal';fill:#333333;stroke:#f6f6ff;stroke-width:3.425"
     x="940.84375"
     y="575.94531"
     id="text6687-32-2"><tspan
       id="tspan6685-8-3"
       x="940.84375"
       y="575.94531">C</tspan></text>
  <text
     xml:space="preserve"
     style="font-size:32px;font-family:'Arial Black';-inkscape-font-specification:'Arial Black, Normal';fill:#333333;stroke:#f6f6ff;stroke-width:3.425"
     x="350.84375"
     y="634.44531"
     id="text6687-32-01"><tspan
       id="tspan6685-8-36"
       x="350.84375"
       y="634.44531">C</tspan></text>
  <text
     xml:space="preserve"
     style="font-size:32px;font-family:'Arial Black';-inkscape-font-specification:'Arial Black, Normal';fill:#333333;stroke:#f6f6ff;stroke-width:3.425"
     x="720.84375"
     y="760.94531"
     id="text6687-32-4"><tspan
       id="tspan6685-8-0"
       x="720.84375"
       y="760.94531">C</tspan></text>
  <text
     xml:space="preserve"
     style="font-size:32px;font-family:'Arial Black';-inkscape-font-specification:'Arial Black, Normal';fill:#333333;stroke:#f6f6ff;stroke-width:3.425"
     x="937.34375"
     y="811.94531"
     id="text6687-32-90"><tspan
       id="tspan6685-8-2"
       x="937.34375"
       y="811.94531">C</tspan></text>
  <text
     xml:space="preserve"
     style="font-size:32px;font-family:'Arial Black';-inkscape-font-specification:'Arial Black, Normal';fill:#333333;stroke:#f6f6ff;stroke-width:3.425"
     x="999.34381"
     y="811.94531"
     id="text6687-32-1"><tspan
       id="tspan6685-8-54"
       x="999.34381"
       y="811.94531">C</tspan></text>
  <text
     xml:space="preserve"
     style="font-size:32px;font-family:'Arial Black';-inkscape-font-specification:'Arial Black, Normal';fill:#333333;stroke:#f6f6ff;stroke-width:3.425"
     x="1196.3438"
     y="761.94531"
     id="text6687-32-20"><tspan
       id="tspan6685-8-38"
       x="1196.3438"
       y="761.94531">C</tspan></text>
</svg>
