<?xml version="1.0" encoding="UTF-8" standalone="no"?>
<!-- Generator: visioncortex VTracer 0.6.12 -->

<svg
   version="1.1"
   width="1876"
   height="980"
   id="svg11853"
   xmlns="http://www.w3.org/2000/svg"
   xmlns:svg="http://www.w3.org/2000/svg">
  <defs
     id="defs11857" />
  <path
     d="M0,0 L17,0 L22,4 L22,11 L21,13 L19,13 L19,15 L23,17 L24,24 L21,29 L17,31 L0,31 Z M5,3 L4,4 L4,13 L15,13 L18,11 L17,4 L14,3 Z M5,16 L4,17 L4,27 L17,27 L20,23 L19,18 L14,16 Z "
     fill="#000000"
     transform="translate(1079,22)"
     id="path11769" />
  <path
     d="M0,0 L8,0 L14,4 L16,7 L16,10 L12,10 L10,6 L8,5 L0,5 L-5,10 L-6,19 L-4,27 L-1,28 L7,28 L11,27 L13,19 L4,19 L4,15 L17,15 L17,32 L14,32 L14,29 L6,33 L-3,32 L-9,27 L-11,21 L-11,12 L-7,4 L-3,1 Z "
     fill="#000000"
     transform="translate(1298,97)"
     id="path11771" />
  <path
     d="M0,0 L8,0 L14,4 L16,7 L16,10 L12,10 L10,6 L8,5 L0,5 L-5,10 L-6,19 L-4,27 L-1,28 L7,28 L11,27 L13,19 L4,19 L4,15 L17,15 L17,32 L14,32 L14,29 L6,33 L-3,32 L-9,27 L-11,21 L-11,12 L-7,4 L-3,1 Z "
     fill="#000000"
     transform="translate(1437,97)"
     id="path11773" />
  <path
     d="M0,0 L17,0 L22,5 L21,12 L19,14 L23,18 L23,25 L19,30 L16,31 L0,31 Z M4,3 L4,13 L15,13 L18,9 L16,4 L13,3 Z M4,16 L4,27 L16,27 L19,24 L19,19 L17,17 L13,16 Z "
     fill="#000000"
     transform="translate(1322,98)"
     id="path11775" />
  <path
     d="M0,0 L17,0 L22,5 L21,12 L19,14 L23,18 L23,25 L19,30 L16,31 L0,31 Z M4,3 L4,13 L15,13 L18,9 L16,4 L13,3 Z M4,16 L4,27 L16,27 L19,24 L19,19 L17,17 L13,16 Z "
     fill="#000000"
     transform="translate(1399,98)"
     id="path11777" />
  <path
     d="M0,0 L260,0 L260,3 L4,4 L-12,20 L-19,28 L-68,77 L-75,85 L-103,113 L-102,117 L-99,125 L-99,136 L-104,146 L-104,150 L-62,192 L-55,200 L-5,250 L2,258 L3,259 L260,260 L260,264 L0,264 L-17,247 L-24,239 L-75,188 L-82,180 L-110,152 L-118,155 L-133,155 L-143,150 L-149,143 L-152,134 L-380,135 L-395,165 L-406,188 L-424,224 L-435,247 L-453,283 L-464,306 L-482,342 L-493,365 L-494,370 L-488,375 L-484,383 L-483,386 L-483,395 L-487,405 L-496,413 L-487,432 L-470,467 L-455,497 L-444,520 L-426,556 L-415,579 L-398,613 L-387,636 L-380,650 L-152,651 L-151,642 L-145,633 L-135,627 L-131,626 L-120,626 L-110,630 L-107,630 L-73,596 L-66,588 L-17,539 L-10,531 L0,521 L260,521 L260,525 L3,526 L-11,541 L-59,589 L-66,597 L-104,635 L-100,643 L-99,646 L-99,657 L-104,667 L-104,671 L-71,704 L-64,712 L-13,763 L-6,771 L3,780 L5,781 L260,782 L260,785 L0,785 L-24,761 L-31,753 L-82,702 L-89,694 L-110,673 L-118,676 L-128,677 L-138,674 L-144,670 L-149,664 L-152,655 L-384,655 L-395,633 L-406,610 L-423,576 L-434,553 L-452,517 L-463,494 L-481,458 L-492,435 L-501,417 L-501,415 L-504,416 L-515,416 L-525,412 L-531,407 L-536,397 L-536,384 L-532,376 L-523,368 L-513,365 L-500,366 L-482,330 L-471,307 L-453,271 L-442,248 L-424,212 L-413,189 L-396,155 L-385,132 L-384,130 L-152,130 L-151,121 L-145,112 L-138,107 L-132,105 L-119,105 L-108,110 L-83,85 L-76,77 L-25,26 L-18,18 Z M-128,108 L-137,111 L-144,116 L-148,123 L-149,133 L-145,143 L-138,149 L-130,152 L-122,152 L-113,149 L-107,144 L-103,137 L-102,128 L-105,119 L-112,112 L-118,109 Z M-515,369 L-524,373 L-531,381 L-533,387 L-533,395 L-528,405 L-519,411 L-516,412 L-503,412 L-495,408 L-489,401 L-487,397 L-487,385 L-491,377 L-499,371 L-505,369 Z M-132,630 L-140,634 L-147,642 L-149,649 L-148,658 L-144,665 L-138,670 L-131,673 L-121,673 L-113,670 L-106,664 L-103,658 L-102,650 L-105,640 L-112,633 L-119,630 Z "
     fill="#000000"
     transform="translate(956,111)"
     id="path11779" />
  <path
     d="M0,0 L22,0 L22,3 L0,3 Z "
     fill="#000000"
     transform="translate(1360,112)"
     id="path11781" />
  <path
     d="M0,0 L22,0 L22,3 L0,3 Z "
     fill="#000000"
     transform="translate(1360,121)"
     id="path11783" />
  <path
     d="M0,0 L8,0 L14,4 L16,7 L16,10 L12,10 L10,6 L8,5 L0,5 L-5,10 L-6,19 L-4,27 L-1,28 L7,28 L11,27 L13,19 L4,19 L4,15 L17,15 L17,32 L14,32 L14,29 L6,33 L-3,32 L-9,27 L-11,21 L-11,12 L-7,4 L-3,1 Z "
     fill="#000000"
     transform="translate(711,158)"
     id="path11785" />
  <path
     d="M0,0 L17,0 L22,5 L21,12 L19,14 L23,18 L23,25 L19,30 L16,31 L0,31 Z M4,3 L4,13 L15,13 L18,9 L16,4 L13,3 Z M4,16 L4,27 L16,27 L19,24 L19,19 L17,17 L13,16 Z "
     fill="#000000"
     transform="translate(1079,297)"
     id="path11787" />
  <path
     d="M0,0 L8,0 L14,3 L17,8 L17,10 L12,9 L8,5 L0,5 L-4,9 L-5,11 L-5,22 L-2,27 L0,28 L8,28 L12,24 L14,19 L4,19 L4,15 L17,15 L18,16 L18,32 L14,31 L13,29 L10,32 L7,33 L0,33 L-6,30 L-9,26 L-10,23 L-10,10 L-6,4 Z "
     fill="#000000"
     transform="translate(1293,358)"
     id="path11791" />
  <path
     d="m 1462,358 h 8 l 6,3 3,5 v 2 l -5,-1 -4,-4 h -8 l -4,4 -1,2 v 11 l 3,5 2,1 h 8 l 4,-4 2,-5 h -10 v -4 h 13 l 1,1 v 16 l -4,-1 -1,-2 -3,3 -3,1 h -7 l -6,-3 -3,-4 -1,-3 v -13 l 4,-6 z"
     fill="#000000"
     id="path11793" />
  <path
     d="M0,0 L17,0 L22,4 L22,11 L21,13 L19,13 L19,15 L23,17 L24,24 L21,29 L17,31 L0,31 Z M5,3 L4,4 L4,13 L15,13 L18,11 L17,4 L14,3 Z M5,16 L4,17 L4,27 L17,27 L20,23 L19,18 L14,16 Z "
     fill="#000000"
     transform="translate(1317,359)"
     id="path11795" />
  <path
     d="M0,0 L17,0 L22,4 L22,11 L21,13 L19,13 L19,15 L23,17 L24,24 L21,29 L17,31 L0,31 Z M5,3 L4,4 L4,13 L15,13 L18,11 L17,4 L14,3 Z M5,16 L4,17 L4,27 L17,27 L20,23 L19,18 L14,16 Z "
     fill="#000000"
     transform="translate(1402,359)"
     id="path11799" />
  <path
     d="M0,0 L22,0 L22,3 L0,3 Z "
     fill="#000000"
     transform="translate(1364,373)"
     id="path11803" />
  <path
     d="M0,0 L22,0 L22,3 L0,3 Z "
     fill="#000000"
     transform="translate(1364,382)"
     id="path11805" />
  <path
     d="M0,0 L17,0 L22,4 L22,11 L21,13 L19,13 L19,15 L23,17 L24,24 L21,29 L17,31 L0,31 Z M5,3 L4,4 L4,13 L15,13 L18,11 L17,4 L14,3 Z M5,16 L4,17 L4,27 L17,27 L20,23 L19,18 L14,16 Z "
     fill="#000000"
     transform="translate(1079,550)"
     id="path11807" />
  <path
     d="M0,0 L8,0 L14,3 L17,8 L17,10 L12,9 L8,5 L0,5 L-4,9 L-5,11 L-5,22 L-2,27 L0,28 L8,28 L12,24 L14,19 L4,19 L4,15 L17,15 L18,16 L18,32 L14,31 L13,29 L10,32 L7,33 L0,33 L-6,30 L-9,26 L-10,23 L-10,10 L-6,4 Z "
     fill="#000000"
     transform="translate(1279,618)"
     id="path11809" />
  <path
     d="M0,0 L8,0 L14,3 L17,8 L17,10 L12,9 L8,5 L0,5 L-4,9 L-5,11 L-5,22 L-2,27 L0,28 L8,28 L12,24 L14,19 L4,19 L4,15 L17,15 L18,16 L18,32 L14,31 L13,29 L10,32 L7,33 L0,33 L-6,30 L-9,26 L-10,23 L-10,10 L-6,4 Z "
     fill="#000000"
     transform="translate(1426,618)"
     id="path11811" />
  <path
     d="m 1322,619 h 17 l 5,5 -1,7 -2,2 4,4 v 7 l -4,5 -3,1 h -16 z m 4,3 v 10 h 11 l 3,-4 -2,-5 -3,-1 z m 0,13 v 11 h 12 l 3,-3 v -5 l -2,-2 -4,-1 z"
     fill="#000000"
     id="path11815" />
  <path
     d="M0,0 L17,0 L22,4 L22,11 L21,13 L19,13 L19,15 L23,17 L24,24 L21,29 L17,31 L0,31 Z M5,3 L4,4 L4,13 L15,13 L18,11 L17,4 L14,3 Z M5,16 L4,17 L4,27 L17,27 L20,23 L19,18 L14,16 Z "
     fill="#000000"
     transform="translate(1388,619)"
     id="path11817" />
  <path
     d="M0,0 L21,0 L21,3 L0,3 Z "
     fill="#000000"
     transform="translate(1350,633)"
     id="path11821" />
  <path
     d="M0,0 L21,0 L21,3 L0,3 Z "
     fill="#000000"
     transform="translate(1350,642)"
     id="path11823" />
  <path
     d="M0,0 L8,0 L14,4 L16,7 L16,10 L12,10 L10,6 L8,5 L0,5 L-5,10 L-6,19 L-4,27 L-1,28 L7,28 L11,27 L13,19 L4,19 L4,15 L17,15 L17,32 L14,32 L14,29 L6,33 L-3,32 L-9,27 L-11,21 L-11,12 L-7,4 L-3,1 Z "
     fill="#000000"
     transform="translate(707,680)"
     id="path11825" />
  <path
     d="M0,0 L17,0 L22,5 L21,12 L19,14 L23,18 L23,25 L19,30 L16,31 L0,31 Z M4,3 L4,13 L15,13 L18,9 L16,4 L13,3 Z M4,16 L4,27 L16,27 L19,24 L19,19 L17,17 L13,16 Z "
     fill="#000000"
     transform="translate(1086,818)"
     id="path11829" />
  <path
     d="M0,0 L8,0 L14,4 L16,7 L16,10 L12,10 L10,6 L8,5 L0,5 L-5,10 L-6,19 L-4,27 L-1,28 L7,28 L11,27 L13,19 L4,19 L4,15 L17,15 L17,32 L14,32 L14,29 L6,33 L-3,32 L-9,27 L-11,21 L-11,12 L-7,4 L-3,1 Z "
     fill="#000000"
     transform="translate(1275,879)"
     id="path11833" />
  <path
     d="m 1448,879 h 8 l 6,4 2,3 v 3 h -4 l -2,-4 -2,-1 h -8 l -5,5 -1,9 2,8 3,1 h 8 l 4,-1 2,-8 h -9 v -4 h 13 v 17 h -3 v -3 l -8,4 -9,-1 -6,-5 -2,-6 v -9 l 4,-8 4,-3 z"
     fill="#000000"
     id="path11835" />
  <path
     d="m 1319,880 h 17 l 5,4 v 7 l -1,2 h -2 v 2 l 4,2 1,7 -3,5 -4,2 h -17 z m 5,3 -1,1 v 9 h 11 l 3,-2 -1,-7 -3,-1 z m 0,13 -1,1 v 10 h 13 l 3,-4 -1,-5 -5,-2 z"
     fill="#000000"
     id="path11839" />
  <path
     d="M0,0 L17,0 L22,5 L21,12 L19,14 L23,18 L23,25 L19,30 L16,31 L0,31 Z M4,3 L4,13 L15,13 L18,9 L16,4 L13,3 Z M4,16 L4,27 L16,27 L19,24 L19,19 L17,17 L13,16 Z "
     fill="#000000"
     transform="translate(1392,880)"
     id="path11843" />
  <path
     d="M0,0 L22,0 L22,3 L0,3 Z "
     fill="#000000"
     transform="translate(1353,894)"
     id="path11849" />
  <path
     d="M0,0 L22,0 L22,3 L0,3 Z "
     fill="#000000"
     transform="translate(1353,903)"
     id="path11851" />
  <text
     xml:space="preserve"
     style="font-size:32px;font-family:'Arial Black';-inkscape-font-specification:'Arial Black, Normal';fill:#333333;stroke:#f6f6ff;stroke-width:3.425"
     x="722.84375"
     y="694.44531"
     id="text6687-32"><tspan
       id="tspan6685-8"
       x="722.84375"
       y="694.44531">C</tspan></text>
  <text
     xml:space="preserve"
     style="font-size:32px;font-family:'Arial Black';-inkscape-font-specification:'Arial Black, Normal';fill:#333333;stroke:#f6f6ff;stroke-width:3.425"
     x="1103.3438"
     y="309.94531"
     id="text6687-32-0"><tspan
       id="tspan6685-8-6"
       x="1103.3438"
       y="309.94531">C</tspan></text>
  <text
     xml:space="preserve"
     style="font-size:32px;font-family:'Arial Black';-inkscape-font-specification:'Arial Black, Normal';fill:#333333;stroke:#f6f6ff;stroke-width:3.425"
     x="1111.8438"
     y="829.44531"
     id="text6687-32-6"><tspan
       id="tspan6685-8-9"
       x="1111.8438"
       y="829.44531">C</tspan></text>
  <text
     xml:space="preserve"
     style="font-size:32px;font-family:'Arial Black';-inkscape-font-specification:'Arial Black, Normal';fill:#333333;stroke:#f6f6ff;stroke-width:3.425"
     x="1424.8438"
     y="370.44531"
     id="text6687-32-9"><tspan
       id="tspan6685-8-4"
       x="1424.8438"
       y="370.44531">C</tspan></text>
  <text
     xml:space="preserve"
     style="font-size:32px;font-family:'Arial Black';-inkscape-font-specification:'Arial Black, Normal';fill:#333333;stroke:#f6f6ff;stroke-width:3.425"
     x="1341.3438"
     y="369.94531"
     id="text6687-32-67"><tspan
       id="tspan6685-8-0"
       x="1341.3438"
       y="369.94531">C</tspan></text>
  <text
     xml:space="preserve"
     style="font-size:32px;font-family:'Arial Black';-inkscape-font-specification:'Arial Black, Normal';fill:#333333;stroke:#f6f6ff;stroke-width:3.425"
     x="1295.3438"
     y="630.44531"
     id="text6687-32-4"><tspan
       id="tspan6685-8-5"
       x="1295.3438"
       y="630.44531">C</tspan></text>
  <text
     xml:space="preserve"
     style="font-size:32px;font-family:'Arial Black';-inkscape-font-specification:'Arial Black, Normal';fill:#333333;stroke:#f6f6ff;stroke-width:3.425"
     x="1441.8438"
     y="634.94531"
     id="text6687-32-8"><tspan
       id="tspan6685-8-8"
       x="1441.8438"
       y="634.94531">C</tspan></text>
  <text
     xml:space="preserve"
     style="font-size:32px;font-family:'Arial Black';-inkscape-font-specification:'Arial Black, Normal';fill:#333333;stroke:#f6f6ff;stroke-width:3.425"
     x="1291.8438"
     y="891.94531"
     id="text6687-32-1"><tspan
       id="tspan6685-8-2"
       x="1291.8438"
       y="891.94531">C</tspan></text>
  <text
     xml:space="preserve"
     style="font-size:32px;font-family:'Arial Black';-inkscape-font-specification:'Arial Black, Normal';fill:#333333;stroke:#f6f6ff;stroke-width:3.425"
     x="1340.8438"
     y="891.44531"
     id="text6687-32-3"><tspan
       id="tspan6685-8-21"
       x="1340.8438"
       y="891.44531">C</tspan></text>
  <text
     xml:space="preserve"
     style="font-size:32px;font-family:'Arial Black';-inkscape-font-specification:'Arial Black, Normal';fill:#333333;stroke:#f6f6ff;stroke-width:3.425"
     x="1414.3438"
     y="892.44531"
     id="text6687-32-13"><tspan
       id="tspan6685-8-80"
       x="1414.3438"
       y="892.44531">C</tspan></text>
  <text
     xml:space="preserve"
     style="font-size:32px;font-family:'Arial Black';-inkscape-font-specification:'Arial Black, Normal';fill:#333333;stroke:#f6f6ff;stroke-width:3.425"
     x="1463.8438"
     y="893.94531"
     id="text6687-32-09"><tspan
       id="tspan6685-8-42"
       x="1463.8438"
       y="893.94531">C</tspan></text>
</svg>
