<?xml version="1.0" encoding="UTF-8" standalone="no"?>
<!-- Generator: visioncortex VTracer 0.6.12 -->

<svg
   version="1.1"
   width="1876"
   height="459"
   id="svg31345"
   xmlns="http://www.w3.org/2000/svg"
   xmlns:svg="http://www.w3.org/2000/svg">
  <defs
     id="defs31349" />
  <path
     d="M0,0 L20,0 L25,4 L26,11 L23,17 L27,21 L28,27 L25,33 L19,36 L0,36 Z M5,4 L5,15 L18,15 L21,12 L21,7 L18,4 Z M5,19 L5,32 L18,32 L23,27 L22,22 L18,19 Z "
     fill="#000000"
     transform="translate(988,20)"
     id="path31331" />
  <path
     d="m 1038.7797,34.614407 h 4 v 35 h -5 v -25 h -8 v -4 l 7,-2 z"
     fill="#000000"
     id="path31333" />
  <path
     d="M0,0 L307,0 L307,4 L4,5 L-125,134 L-123,139 L-119,146 L-118,152 L307,152 L307,156 L-118,156 L-119,166 L-123,173 L-122,177 L3,302 L307,303 L307,308 L0,308 L-128,180 L-133,182 L-140,185 L-155,185 L-165,180 L-172,173 L-176,165 L-177,160 L-177,152 L-174,142 L-168,134 L-158,128 L-146,126 L-134,129 L-130,130 Z M-154,131 L-162,135 L-167,139 L-172,149 L-173,158 L-170,168 L-163,176 L-157,180 L-153,181 L-141,181 L-131,176 L-125,169 L-122,160 L-122,151 L-126,142 L-131,136 L-141,131 Z "
     fill="#000000"
     transform="translate(880,102)"
     id="path31335" />
  <path
     d="M0,0 L20,0 L25,4 L26,11 L23,17 L27,21 L28,27 L25,33 L19,36 L0,36 Z M5,4 L5,15 L18,15 L21,12 L21,7 L18,4 Z M5,19 L5,32 L18,32 L23,27 L22,22 L18,19 Z "
     fill="#000000"
     transform="translate(988,188)"
     id="path31337" />
  <path
     d="m 1033.7797,202.61441 h 11 l 5,5 1,2 v 6 l -4,6 -13,8 -2,4 h 19 v 4 h -24 l 1,-8 4,-5 10,-6 h 2 l 1,-9 -2,-2 h -7 l -3,3 -1,4 h -5 l 2,-8 z"
     fill="#000000"
     id="path31339" />
  <path
     d="M0,0 L20,0 L25,4 L26,11 L23,17 L27,21 L28,27 L25,33 L19,36 L0,36 Z M5,4 L5,15 L18,15 L21,12 L21,7 L18,4 Z M5,19 L5,32 L18,32 L23,27 L22,22 L18,19 Z "
     fill="#000000"
     transform="translate(988,340)"
     id="path31341" />
  <path
     d="m 1032.7797,354.61441 h 11 l 5,4 v 9 l -1,2 h -2 v 2 l 3,1 2,4 v 6 l -4,6 -5,2 h -8 l -6,-4 -2,-5 v -3 h 5 l 2,6 2,1 h 6 l 4,-3 v -6 l -2,-2 -7,-1 v -4 l 7,-2 1,-6 -2,-2 h -9 l -1,6 h -5 l 1,-6 z"
     fill="#000000"
     id="path31343" />
</svg>
