<?xml version="1.0" encoding="UTF-8" standalone="no"?>
<!-- Generator: visioncortex VTracer 0.6.12 -->

<svg
   version="1.1"
   width="1876"
   height="1509"
   id="svg44225"
   xmlns="http://www.w3.org/2000/svg"
   xmlns:svg="http://www.w3.org/2000/svg">
  <defs
     id="defs44229" />
  <path
     d="M0,0 L11,0 L17,25 L21,10 L23,1 L24,0 L35,0 L35,36 L28,36 L27,11 L21,36 L13,36 L8,14 L7,36 L0,36 Z "
     fill="#000000"
     transform="translate(1392,12)"
     id="path43963" />
  <path
     d="M0,0 L10,0 L16,5 L17,8 L17,16 L-1,16 L2,21 L8,21 L10,19 L17,19 L15,24 L11,27 L2,28 L-4,25 L-7,21 L-8,18 L-8,10 L-5,4 Z M4,5 L1,6 L-1,11 L10,11 L9,7 Z "
     fill="#000000"
     transform="translate(1439,21)"
     id="path43965" />
  <path
     d="M0,0 L11,0 L16,3 L17,5 L18,27 L11,27 L7,27 L-1,28 L-6,24 L-7,19 L-4,13 L1,11 L9,9 L8,6 L2,7 L1,9 L-6,9 L-4,3 Z M9,14 L1,17 L0,20 L2,23 L8,22 L10,19 L10,14 Z "
     fill="#000000"
     transform="translate(1466,21)"
     id="path43967" />
  <path
     d="M0,0 L11,0 L16,3 L17,8 L10,8 L10,6 L3,6 L2,8 L14,12 L18,16 L18,22 L13,27 L10,28 L2,28 L-4,25 L-6,22 L-6,18 L0,18 L2,21 L10,21 L10,19 L-2,15 L-5,12 L-6,8 L-3,2 Z "
     fill="#000000"
     transform="translate(1493,21)"
     id="path43969" />
  <path
     d="M0,0 L7,0 L8,21 L14,21 L16,19 L17,0 L24,0 L24,27 L17,27 L16,25 L14,27 L8,28 L3,26 L0,21 Z "
     fill="#000000"
     transform="translate(1516,21)"
     id="path43971" />
  <path
     d="M0,0 L7,0 L8,3 L11,0 L16,0 L16,7 L9,9 L8,11 L7,27 L0,27 Z "
     fill="#000000"
     transform="translate(1547,21)"
     id="path43973" />
  <path
     d="M0,0 L10,0 L16,5 L17,8 L17,16 L-1,16 L2,21 L8,21 L10,19 L17,19 L15,24 L11,27 L2,28 L-4,25 L-7,21 L-8,18 L-8,10 L-5,4 Z M4,5 L1,6 L-1,11 L10,11 L9,7 Z "
     fill="#000000"
     transform="translate(1572,21)"
     id="path43975" />
  <path
     d="M0,0 L7,0 L7,8 L0,8 Z "
     fill="#000000"
     transform="translate(1597,22)"
     id="path43977" />
  <path
     d="M0,0 L7,0 L7,7 L0,7 Z "
     fill="#000000"
     transform="translate(1597,41)"
     id="path43979" />
  <path
     d="M0,0 L20,0 L26,3 L30,11 L30,24 L26,32 L22,35 L19,36 L0,36 Z M7,6 L7,30 L16,30 L20,28 L23,20 L22,10 L17,6 Z "
     fill="#000000"
     transform="translate(1310,70)"
     id="path43981" />
  <path
     d="M0,0 L7,0 L7,36 L0,36 Z "
     fill="#000000"
     transform="translate(1374,70)"
     id="path43983" />
  <path
     d="M0,0 L7,0 L7,36 L0,36 Z "
     fill="#000000"
     transform="translate(1388,70)"
     id="path43985" />
  <path
     d="M0,0 L8,0 L13,21 L14,21 L18,1 L19,0 L27,0 L31,19 L31,24 L33,24 L34,15 L38,0 L45,0 L44,7 L36,36 L28,36 L23,13 L21,19 L17,36 L10,36 L4,17 L0,3 Z "
     fill="#000000"
     transform="translate(1458,70)"
     id="path43987" />
  <path
     d="M0,0 L7,0 L7,6 L0,6 Z "
     fill="#000000"
     transform="translate(1507,70)"
     id="path43989" />
  <path
     d="M0,0 L7,0 L7,6 L0,6 Z "
     fill="#000000"
     transform="translate(1580,70)"
     id="path43991" />
  <path
     d="M0,0 L9,2 L14,8 L15,11 L15,18 L11,26 L5,29 L-3,29 L-8,26 L-12,20 L-12,9 L-8,3 L-5,1 Z M0,6 L-5,11 L-5,19 L-1,23 L4,23 L7,20 L8,14 L5,7 Z "
     fill="#000000"
     transform="translate(1355,78)"
     id="path43993" />
  <path
     d="M0,0 L11,0 L16,3 L17,5 L18,27 L11,27 L7,27 L-1,28 L-6,24 L-7,19 L-4,13 L1,11 L9,9 L8,6 L2,7 L1,9 L-6,9 L-4,3 Z M9,14 L1,17 L0,20 L2,23 L8,22 L10,19 L10,14 Z "
     fill="#000000"
     transform="translate(1406,79)"
     id="path43995" />
  <path
     d="M0,0 L7,0 L8,3 L11,0 L16,0 L16,7 L9,9 L8,11 L7,27 L0,27 Z "
     fill="#000000"
     transform="translate(1428,79)"
     id="path43997" />
  <path
     d="M0,0 L6,0 L6,27 L-1,27 L-1,1 Z "
     fill="#000000"
     transform="translate(1508,79)"
     id="path43999" />
  <path
     d="M0,0 L6,0 L7,2 L10,0 L18,0 L23,4 L23,27 L16,27 L15,7 L9,7 L7,10 L6,27 L-1,27 L-1,1 Z "
     fill="#000000"
     transform="translate(1521,79)"
     id="path44001" />
  <path
     d="M0,0 L6,0 L7,2 L10,0 L18,0 L23,4 L23,27 L16,27 L15,7 L9,7 L7,10 L6,27 L-1,27 L-1,1 Z "
     fill="#000000"
     transform="translate(1551,79)"
     id="path44003" />
  <path
     d="M0,0 L6,0 L6,27 L-1,27 L-1,1 Z "
     fill="#000000"
     transform="translate(1581,79)"
     id="path44005" />
  <path
     d="M0,0 L6,0 L7,2 L10,0 L18,0 L23,4 L23,27 L16,27 L15,7 L9,7 L7,10 L6,27 L-1,27 L-1,1 Z "
     fill="#000000"
     transform="translate(1594,79)"
     id="path44007" />
  <path
     d="M0,0 L8,0 L12,3 L12,0 L18,0 L18,32 L13,37 L10,38 L1,38 L-5,35 L-7,30 L1,30 L4,32 L9,31 L10,30 L10,25 L7,27 L0,27 L-6,22 L-7,20 L-7,8 L-4,3 Z M3,6 L0,9 L0,18 L3,21 L10,20 L12,13 L10,7 Z "
     fill="#000000"
     transform="translate(1629,79)"
     id="path44009" />
  <path
     d="M0,0 L11,0 L16,3 L17,8 L10,8 L10,6 L3,6 L2,8 L14,12 L18,16 L18,22 L13,27 L10,28 L2,28 L-4,25 L-6,22 L-6,18 L0,18 L2,21 L10,21 L10,19 L-2,15 L-5,12 L-6,8 L-3,2 Z "
     fill="#000000"
     transform="translate(1658,79)"
     id="path44011" />
  <path
     d="M0,0 L7,0 L14,3 L18,8 L19,12 L14,12 L11,7 L2,5 L-3,7 L-7,12 L-8,21 L-5,30 L1,33 L9,32 L13,28 L15,22 L4,22 L3,18 L19,18 L19,37 L16,37 L14,34 L10,37 L7,38 L-2,38 L-10,33 L-13,27 L-14,17 L-11,8 L-7,3 Z "
     fill="#000000"
     transform="translate(890,123)"
     id="path44013" />
  <path
     d="m 929,139 h 4 v 35 h -5 v -25 h -8 v -3 l 7,-3 z"
     fill="#000000"
     id="path44015" />
  <path
     d="M0,0 L7,0 L14,3 L18,8 L19,12 L14,12 L11,7 L2,5 L-3,7 L-7,12 L-8,21 L-5,30 L1,33 L9,32 L13,28 L15,22 L4,22 L3,18 L19,18 L19,37 L16,37 L14,34 L10,37 L7,38 L-2,38 L-10,33 L-13,27 L-14,17 L-11,8 L-7,3 Z "
     fill="#000000"
     transform="translate(1200,190)"
     id="path44017" />
  <path
     d="M0,0 L19,0 L25,4 L26,11 L23,17 L27,21 L27,30 L22,35 L19,36 L0,36 Z M5,4 L4,5 L4,15 L18,15 L21,12 L20,6 L17,4 Z M5,19 L4,20 L4,31 L5,32 L18,32 L22,29 L23,25 L20,20 L18,19 Z "
     fill="#000000"
     transform="translate(1127,191)"
     id="path44019" />
  <path
     d="m 1172.5,215.5 h 4 v 35 h -5 v -25 h -8 v -3 l 7,-3 z"
     fill="#000000"
     id="path44021" />
  <path
     d="m 1239.5,215.5 h 4 v 35 h -5 v -25 h -8 v -3 l 7,-3 z"
     fill="#000000"
     id="path44023" />
  <path
     d="M0,0 L4,0 L4,35 L-1,35 L-1,10 L-9,10 L-9,7 L-2,4 Z "
     fill="#000000"
     transform="translate(1464,192)"
     id="path44025" />
  <path
     d="M0,0 L7,0 L12,3 L15,8 L16,13 L16,22 L13,31 L9,35 L7,36 L0,36 L-6,31 L-8,26 L-8,10 L-5,4 Z M1,4 L-3,9 L-4,22 L-2,29 L1,32 L6,32 L10,28 L11,24 L11,11 L8,5 L7,4 Z "
     fill="#000000"
     transform="translate(1488,192)"
     id="path44027" />
  <path
     d="M0,0 L7,0 L12,3 L15,8 L16,13 L16,22 L13,31 L9,35 L7,36 L0,36 L-6,31 L-8,26 L-8,10 L-5,4 Z M1,4 L-3,9 L-4,22 L-2,29 L1,32 L6,32 L10,28 L11,24 L11,11 L8,5 L7,4 Z "
     fill="#000000"
     transform="translate(1516,192)"
     id="path44029" />
  <path
     d="M0,0 L305,0 L306,4 L5,5 L-124,134 L-121,138 L-121,140 L-77,124 L-16,102 L0,96 L305,96 L306,100 L305,101 L2,102 L-45,119 L-92,136 L-117,145 L-116,151 L-116,159 L-117,162 L-107,165 L-59,184 L-2,206 L3,208 L305,209 L306,213 L1,214 L-48,195 L-89,179 L-117,168 L-119,168 L-122,174 L4,300 L306,301 L306,305 L0,305 L-126,179 L-131,181 L-139,184 L-152,184 L-161,180 L-169,173 L-174,163 L-175,155 L-446,156 L-587,579 L-583,580 L-577,584 L-571,591 L-568,598 L-568,602 L-174,602 L-173,595 L-168,587 L-160,580 L-151,577 L-140,577 L-131,580 L-128,580 L1,451 L306,452 L305,456 L4,457 L-124,585 L-121,589 L-121,591 L-65,571 L-10,551 L1,547 L306,548 L305,552 L3,553 L-47,571 L-108,593 L-118,596 L-116,602 L-116,613 L-67,632 L-18,651 L3,659 L305,660 L306,664 L305,665 L0,665 L-48,646 L-90,630 L-118,619 L-122,625 L4,751 L305,752 L306,756 L305,757 L1,757 L-126,630 L-131,632 L-138,635 L-153,635 L-163,630 L-170,623 L-174,615 L-175,606 L-567,606 L-569,617 L-574,625 L-582,632 L-586,633 L-572,674 L-446,1052 L-174,1053 L-173,1046 L-167,1037 L-159,1031 L-150,1028 L-141,1028 L-129,1032 L0,903 L306,903 L306,907 L4,908 L-124,1036 L-121,1041 L-115,1040 L-67,1023 L-23,1007 L-1,999 L306,999 L306,1003 L4,1004 L-41,1020 L-88,1037 L-115,1047 L-118,1047 L-116,1053 L-116,1064 L-68,1083 L-26,1099 L5,1111 L306,1112 L306,1116 L0,1116 L-57,1094 L-98,1078 L-116,1071 L-119,1071 L-122,1076 L5,1203 L306,1204 L305,1208 L0,1208 L-127,1081 L-137,1086 L-148,1087 L-159,1084 L-168,1077 L-173,1069 L-175,1061 L-175,1057 L-450,1058 L-454,1048 L-591,637 L-591,635 L-604,635 L-614,630 L-619,626 L-624,618 L-626,611 L-626,602 L-623,593 L-619,587 L-611,580 L-602,577 L-592,577 L-590,568 L-451,151 L-446,150 L-175,150 L-170,138 L-162,130 L-152,126 L-138,126 L-131,129 L-127,128 L-1,2 Z M-151,130 L-160,134 L-165,139 L-169,145 L-171,156 L-169,165 L-165,171 L-158,177 L-150,180 L-141,180 L-131,176 L-124,169 L-121,162 L-120,153 L-123,143 L-128,136 L-134,132 L-140,130 Z M-601,581 L-611,585 L-618,592 L-621,599 L-622,609 L-619,618 L-613,626 L-603,631 L-591,631 L-583,628 L-575,620 L-572,613 L-572,599 L-576,591 L-584,584 L-592,581 Z M-150,581 L-160,585 L-167,592 L-170,599 L-171,607 L-169,616 L-163,625 L-155,630 L-151,631 L-140,631 L-132,628 L-127,624 L-122,616 L-120,608 L-121,599 L-125,591 L-133,584 L-141,581 Z M-149,1032 L-158,1035 L-166,1042 L-170,1050 L-171,1059 L-169,1067 L-163,1076 L-155,1081 L-152,1082 L-139,1082 L-129,1077 L-124,1071 L-121,1065 L-120,1055 L-123,1045 L-130,1037 L-138,1033 L-142,1032 Z "
     fill="#000000"
     transform="translate(758,206)"
     id="path44031" />
  <path
     d="M0,0 L12,0 L12,4 L0,4 Z "
     fill="#000000"
     transform="translate(1435,211)"
     id="path44033" />
  <path
     d="M0,0 L7,0 L14,3 L18,8 L19,12 L14,12 L11,7 L2,5 L-3,7 L-7,12 L-8,21 L-5,30 L1,33 L9,32 L13,28 L15,22 L4,22 L3,18 L19,18 L19,37 L16,37 L14,34 L10,37 L7,38 L-2,38 L-10,33 L-13,27 L-14,17 L-11,8 L-7,3 Z "
     fill="#000000"
     transform="translate(890,236)"
     id="path44035" />
  <path
     d="m 925,252 h 9 l 6,5 1,8 -4,6 -13,8 -2,4 h 19 v 4 h -24 l 1,-8 5,-5 9,-6 h 2 l 1,-8 -3,-3 h -6 l -3,3 -1,4 h -5 l 2,-8 3,-3 z"
     fill="#000000"
     id="path44037" />
  <path
     d="M0,0 L7,0 L12,3 L15,8 L16,13 L16,22 L13,31 L9,35 L7,36 L0,36 L-6,31 L-8,26 L-8,10 L-5,4 Z M1,4 L-3,9 L-4,22 L-2,29 L1,32 L6,32 L10,28 L11,24 L11,11 L8,5 L7,4 Z "
     fill="#000000"
     transform="translate(1488,280)"
     id="path44039" />
  <path
     d="M0,0 L19,0 L25,4 L26,11 L23,17 L27,21 L27,30 L22,35 L19,36 L0,36 Z M5,4 L4,5 L4,15 L18,15 L21,12 L20,6 L17,4 Z M5,19 L4,20 L4,31 L5,32 L18,32 L22,29 L23,25 L20,20 L18,19 Z "
     fill="#000000"
     transform="translate(431,283)"
     id="path44041" />
  <path
     d="m 476,302.5 h 4 v 35 h -5 v -25 h -8 v -3 l 7,-3 z"
     fill="#000000"
     id="path44043" />
  <path
     d="M0,0 L7,0 L14,3 L18,8 L19,12 L14,12 L11,7 L2,5 L-3,7 L-7,12 L-8,21 L-5,30 L1,33 L9,32 L13,28 L15,22 L4,22 L3,18 L19,18 L19,37 L16,37 L14,34 L10,37 L7,38 L-2,38 L-10,33 L-13,27 L-14,17 L-11,8 L-7,3 Z "
     fill="#000000"
     transform="translate(1200,290)"
     id="path44045" />
  <path
     d="M0,0 L19,0 L25,4 L26,11 L23,17 L27,21 L27,30 L22,35 L19,36 L0,36 Z M5,4 L4,5 L4,15 L18,15 L21,12 L20,6 L17,4 Z M5,19 L4,20 L4,31 L5,32 L18,32 L22,29 L23,25 L20,20 L18,19 Z "
     fill="#000000"
     transform="translate(1127,291)"
     id="path44047" />
  <path
     d="m 1172.5,315.5 h 4 v 35 h -5 v -25 h -8 v -3 l 7,-3 z"
     fill="#000000"
     id="path44049" />
  <path
     d="m 1235.5,315.5 h 9 l 6,5 v 10 l -5,5 -11,7 -2,4 h 18 v 4 h -23 l 1,-8 5,-5 9,-6 h 2 l 1,-8 -3,-3 h -6 l -3,3 -1,4 h -5 l 2,-8 3,-3 z"
     fill="#000000"
     id="path44051" />
  <path
     d="M0,0 L7,0 L14,3 L18,8 L19,12 L14,12 L11,7 L2,5 L-3,7 L-7,12 L-8,21 L-5,30 L1,33 L9,32 L13,28 L15,22 L4,22 L3,18 L19,18 L19,37 L16,37 L14,34 L10,37 L7,38 L-2,38 L-10,33 L-13,27 L-14,17 L-11,8 L-7,3 Z "
     fill="#000000"
     transform="translate(890,349)"
     id="path44053" />
  <path
     d="m 924,365 h 9 l 5,3 1,2 v 8 l -3,3 4,4 1,7 -3,6 -6,3 h -8 l -6,-4 -2,-5 v -3 h 5 l 2,6 2,1 h 6 l 4,-3 -1,-7 -8,-2 v -4 l 7,-2 1,-5 -3,-3 h -6 l -2,2 -1,4 h -5 l 1,-6 4,-4 z"
     fill="#000000"
     id="path44055" />
  <path
     d="M0,0 L7,0 L12,3 L15,8 L16,13 L16,22 L13,31 L9,35 L7,36 L0,36 L-6,31 L-8,26 L-8,10 L-5,4 Z M1,4 L-3,9 L-4,22 L-2,29 L1,32 L6,32 L10,28 L11,24 L11,11 L8,5 L7,4 Z "
     fill="#000000"
     transform="translate(1488,372)"
     id="path44057" />
  <path
     d="M0,0 L7,0 L14,3 L18,8 L19,12 L14,12 L11,7 L2,5 L-3,7 L-7,12 L-8,21 L-5,30 L1,33 L9,32 L13,28 L15,22 L4,22 L3,18 L19,18 L19,37 L16,37 L14,34 L10,37 L7,38 L-2,38 L-10,33 L-13,27 L-14,17 L-11,8 L-7,3 Z "
     fill="#000000"
     transform="translate(1200,395)"
     id="path44059" />
  <path
     d="M0,0 L19,0 L25,4 L26,11 L23,17 L27,21 L27,30 L22,35 L19,36 L0,36 Z M5,4 L4,5 L4,15 L18,15 L21,12 L20,6 L17,4 Z M5,19 L4,20 L4,31 L5,32 L18,32 L22,29 L23,25 L20,20 L18,19 Z "
     fill="#000000"
     transform="translate(1127,396)"
     id="path44061" />
  <path
     d="m 1172.5,420.5 h 4 v 35 h -5 v -25 h -8 v -3 l 7,-3 z"
     fill="#000000"
     id="path44063" />
  <path
     d="m 1234.5,420.5 h 9 l 5,3 1,2 v 8 l -3,3 4,4 v 10 l -5,5 -3,1 h -8 l -6,-4 -2,-5 v -3 h 5 l 2,6 2,1 h 6 l 4,-3 -1,-7 -8,-2 v -4 l 7,-2 1,-5 -3,-3 h -6 l -2,2 -1,4 h -5 l 1,-6 4,-4 z"
     fill="#000000"
     id="path44065" />
  <path
     d="M0,0 L7,0 L14,3 L18,8 L19,12 L14,12 L11,7 L2,5 L-3,7 L-7,12 L-8,21 L-5,30 L1,33 L9,32 L13,28 L15,22 L4,22 L3,18 L19,18 L19,37 L16,37 L14,34 L10,37 L7,38 L-2,38 L-10,33 L-13,27 L-14,17 L-11,8 L-7,3 Z "
     fill="#000000"
     transform="translate(890,453)"
     id="path44067" />
  <path
     d="m 932,469 h 4 v 23 h 5 v 3 h -5 v 9 h -4 l -1,-8 -15,-1 1,-6 12,-16 z m -2,8 -9,13 v 2 h 10 l 1,-1 v -14 z"
     fill="#000000"
     id="path44069" />
  <path
     d="M0,0 L7,0 L14,3 L18,8 L19,12 L14,12 L11,7 L2,5 L-3,7 L-7,12 L-8,21 L-5,30 L1,33 L9,32 L13,28 L15,22 L4,22 L3,18 L19,18 L19,37 L16,37 L14,34 L10,37 L7,38 L-2,38 L-10,33 L-13,27 L-14,17 L-11,8 L-7,3 Z "
     fill="#000000"
     transform="translate(1200,491)"
     id="path44071" />
  <path
     d="M0,0 L19,0 L25,4 L26,11 L23,17 L27,21 L27,30 L22,35 L19,36 L0,36 Z M5,4 L4,5 L4,15 L18,15 L21,12 L20,6 L17,4 Z M5,19 L4,20 L4,31 L5,32 L18,32 L22,29 L23,25 L20,20 L18,19 Z "
     fill="#000000"
     transform="translate(1127,492)"
     id="path44073" />
  <path
     d="m 1172.5,516.5 h 4 v 35 h -5 v -25 h -8 v -3 l 7,-3 z"
     fill="#000000"
     id="path44075" />
  <path
     d="m 1242.5,516.5 h 4 v 23 h 4 v 3 h -4 v 9 h -4 l -1,-8 -15,-1 1,-6 12,-16 z m -2,8 -9,13 v 2 h 10 l 1,-1 v -14 z"
     fill="#000000"
     id="path44077" />
  <path
     d="M0,0 L4,0 L4,35 L-1,35 L-1,10 L-9,10 L-9,7 L-2,4 Z "
     fill="#000000"
     transform="translate(1464,493)"
     id="path44079" />
  <path
     d="M0,0 L7,0 L12,3 L15,8 L16,13 L16,22 L13,31 L9,35 L7,36 L0,36 L-6,31 L-8,26 L-8,10 L-5,4 Z M1,4 L-3,9 L-4,22 L-2,29 L1,32 L6,32 L10,28 L11,24 L11,11 L8,5 L7,4 Z "
     fill="#000000"
     transform="translate(1488,493)"
     id="path44081" />
  <path
     d="M0,0 L7,0 L12,3 L15,8 L16,13 L16,22 L13,31 L9,35 L7,36 L0,36 L-6,31 L-8,26 L-8,10 L-5,4 Z M1,4 L-3,9 L-4,22 L-2,29 L1,32 L6,32 L10,28 L11,24 L11,11 L8,5 L7,4 Z "
     fill="#000000"
     transform="translate(1516,493)"
     id="path44083" />
  <path
     d="M0,0 L7,0 L14,3 L18,8 L19,12 L14,12 L11,7 L2,5 L-3,7 L-7,12 L-8,21 L-5,30 L1,33 L9,32 L13,28 L15,22 L4,22 L3,18 L19,18 L19,37 L16,37 L14,34 L10,37 L7,38 L-2,38 L-10,33 L-13,27 L-14,17 L-11,8 L-7,3 Z "
     fill="#000000"
     transform="translate(890,575)"
     id="path44085" />
  <path
     d="m 930,590.5 h 4 v 35 h -5 v -25 h -8 v -3 l 7,-3 z"
     fill="#000000"
     id="path44087" />
  <path
     d="M0,0 L7,0 L12,3 L15,8 L16,13 L16,22 L13,31 L9,35 L7,36 L0,36 L-6,31 L-8,26 L-8,10 L-5,4 Z M1,4 L-3,9 L-4,22 L-2,29 L1,32 L6,32 L10,28 L11,24 L11,11 L8,5 L7,4 Z "
     fill="#000000"
     transform="translate(1488,635)"
     id="path44089" />
  <path
     d="M0,0 L7,0 L14,3 L18,8 L19,12 L14,12 L11,7 L2,5 L-3,7 L-7,12 L-8,21 L-5,30 L1,33 L9,32 L13,28 L15,22 L4,22 L3,18 L19,18 L19,37 L16,37 L14,34 L10,37 L7,38 L-2,38 L-10,33 L-13,27 L-14,17 L-11,8 L-7,3 Z "
     fill="#000000"
     transform="translate(1200,637)"
     id="path44091" />
  <path
     d="M0,0 L19,0 L25,4 L26,11 L23,17 L27,21 L27,30 L22,35 L19,36 L0,36 Z M5,4 L4,5 L4,15 L18,15 L21,12 L20,6 L17,4 Z M5,19 L4,20 L4,31 L5,32 L18,32 L22,29 L23,25 L20,20 L18,19 Z "
     fill="#000000"
     transform="translate(1127,638)"
     id="path44093" />
  <path
     d="m 1167.5,658.5 h 9 l 6,5 1,8 -4,6 -13,8 -2,4 h 19 v 4 h -24 l 1,-8 5,-5 9,-6 h 2 l 1,-8 -3,-3 h -6 l -3,3 -1,4 h -5 l 2,-8 3,-3 z"
     fill="#000000"
     id="path44095" />
  <path
     d="m 1238.5,658.5 h 4 v 35 h -5 v -25 h -8 v -3 l 7,-3 z"
     fill="#000000"
     id="path44097" />
  <path
     d="M0,0 L7,0 L14,3 L18,8 L19,12 L14,12 L11,7 L2,5 L-3,7 L-7,12 L-8,21 L-5,30 L1,33 L9,32 L13,28 L15,22 L4,22 L3,18 L19,18 L19,37 L16,37 L14,34 L10,37 L7,38 L-2,38 L-10,33 L-13,27 L-14,17 L-11,8 L-7,3 Z "
     fill="#000000"
     transform="translate(890,687)"
     id="path44099" />
  <path
     d="m 926,702.5 h 9 l 6,5 1,8 -4,6 -13,8 -2,4 h 19 v 4 h -24 l 1,-8 5,-5 9,-6 h 2 l 1,-8 -3,-3 h -6 l -3,3 -1,4 h -5 l 2,-8 3,-3 z"
     fill="#000000"
     id="path44101" />
  <path
     d="M0,0 L7,0 L12,3 L15,8 L16,13 L16,22 L13,31 L9,35 L7,36 L0,36 L-6,31 L-8,26 L-8,10 L-5,4 Z M1,4 L-3,9 L-4,22 L-2,29 L1,32 L6,32 L10,28 L11,24 L11,11 L8,5 L7,4 Z "
     fill="#000000"
     transform="translate(1488,727)"
     id="path44103" />
  <path
     d="M0,0 L19,0 L25,4 L26,11 L23,17 L27,21 L27,30 L22,35 L19,36 L0,36 Z M5,4 L4,5 L4,15 L18,15 L21,12 L20,6 L17,4 Z M5,19 L4,20 L4,31 L5,32 L18,32 L22,29 L23,25 L20,20 L18,19 Z "
     fill="#000000"
     transform="translate(427,734)"
     id="path44105" />
  <path
     d="m 468,753.5 h 9 l 6,5 1,8 -4,6 -13,8 -2,4 h 19 v 4 h -24 l 1,-8 5,-5 9,-6 h 2 l 1,-8 -3,-3 h -6 l -3,3 -1,4 h -5 l 2,-8 3,-3 z"
     fill="#000000"
     id="path44107" />
  <path
     d="M0,0 L7,0 L14,3 L18,8 L19,12 L14,12 L11,7 L2,5 L-3,7 L-7,12 L-8,21 L-5,30 L1,33 L9,32 L13,28 L15,22 L4,22 L3,18 L19,18 L19,37 L16,37 L14,34 L10,37 L7,38 L-2,38 L-10,33 L-13,27 L-14,17 L-11,8 L-7,3 Z "
     fill="#000000"
     transform="translate(1200,742)"
     id="path44109" />
  <path
     d="M0,0 L19,0 L25,4 L26,11 L23,17 L27,21 L27,30 L22,35 L19,36 L0,36 Z M5,4 L4,5 L4,15 L18,15 L21,12 L20,6 L17,4 Z M5,19 L4,20 L4,31 L5,32 L18,32 L22,29 L23,25 L20,20 L18,19 Z "
     fill="#000000"
     transform="translate(1127,743)"
     id="path44111" />
  <path
     d="m 1167.5,763.5 h 9 l 6,5 1,8 -4,6 -13,8 -2,4 h 19 v 4 h -24 l 1,-8 5,-5 9,-6 h 2 l 1,-8 -3,-3 h -6 l -3,3 -1,4 h -5 l 2,-8 3,-3 z"
     fill="#000000"
     id="path44113" />
  <path
     d="m 1234.5,763.5 h 9 l 6,5 v 10 l -5,5 -11,7 -2,4 h 18 v 4 h -23 l 1,-8 5,-5 9,-6 h 2 l 1,-8 -3,-3 h -6 l -3,3 -1,4 h -5 l 2,-8 3,-3 z"
     fill="#000000"
     id="path44115" />
  <path
     d="M0,0 L7,0 L14,3 L18,8 L19,12 L14,12 L11,7 L2,5 L-3,7 L-7,12 L-8,21 L-5,30 L1,33 L9,32 L13,28 L15,22 L4,22 L3,18 L19,18 L19,37 L16,37 L14,34 L10,37 L7,38 L-2,38 L-10,33 L-13,27 L-14,17 L-11,8 L-7,3 Z "
     fill="#000000"
     transform="translate(890,800)"
     id="path44117" />
  <path
     d="m 925,815.5 h 9 l 5,3 1,2 v 8 l -3,3 4,4 1,7 -3,6 -6,3 h -8 l -6,-4 -2,-5 v -3 h 5 l 2,6 2,1 h 6 l 4,-3 -1,-7 -8,-2 v -4 l 7,-2 1,-5 -3,-3 h -6 l -2,2 -1,4 h -5 l 1,-6 4,-4 z"
     fill="#000000"
     id="path44119" />
  <path
     d="M0,0 L7,0 L12,3 L15,8 L16,13 L16,22 L13,31 L9,35 L7,36 L0,36 L-6,31 L-8,26 L-8,10 L-5,4 Z M1,4 L-3,9 L-4,22 L-2,29 L1,32 L6,32 L10,28 L11,24 L11,11 L8,5 L7,4 Z "
     fill="#000000"
     transform="translate(1488,840)"
     id="path44121" />
  <path
     d="M0,0 L7,0 L14,3 L18,8 L19,12 L14,12 L11,7 L2,5 L-3,7 L-7,12 L-8,21 L-5,30 L1,33 L9,32 L13,28 L15,22 L4,22 L3,18 L19,18 L19,37 L16,37 L14,34 L10,37 L7,38 L-2,38 L-10,33 L-13,27 L-14,17 L-11,8 L-7,3 Z "
     fill="#000000"
     transform="translate(1200,846)"
     id="path44123" />
  <path
     d="M0,0 L19,0 L25,4 L26,11 L23,17 L27,21 L27,30 L22,35 L19,36 L0,36 Z M5,4 L4,5 L4,15 L18,15 L21,12 L20,6 L17,4 Z M5,19 L4,20 L4,31 L5,32 L18,32 L22,29 L23,25 L20,20 L18,19 Z "
     fill="#000000"
     transform="translate(1127,847)"
     id="path44125" />
  <path
     d="m 1167.5,867.5 h 9 l 6,5 1,8 -4,6 -13,8 -2,4 h 19 v 4 h -24 l 1,-8 5,-5 9,-6 h 2 l 1,-8 -3,-3 h -6 l -3,3 -1,4 h -5 l 2,-8 3,-3 z"
     fill="#000000"
     id="path44127" />
  <path
     d="m 1233.5,867.5 h 9 l 5,3 1,2 v 8 l -3,3 4,4 v 10 l -5,5 -3,1 h -8 l -6,-4 -2,-5 v -3 h 5 l 2,6 2,1 h 6 l 4,-3 -1,-7 -8,-2 v -4 l 7,-2 1,-5 -3,-3 h -6 l -2,2 -1,4 h -5 l 1,-6 4,-4 z"
     fill="#000000"
     id="path44129" />
  <path
     d="M0,0 L7,0 L14,3 L18,8 L19,12 L14,12 L11,7 L2,5 L-3,7 L-7,12 L-8,21 L-5,30 L1,33 L9,32 L13,28 L15,22 L4,22 L3,18 L19,18 L19,37 L16,37 L14,34 L10,37 L7,38 L-2,38 L-10,33 L-13,27 L-14,17 L-11,8 L-7,3 Z "
     fill="#000000"
     transform="translate(890,905)"
     id="path44131" />
  <path
     d="m 933,920.5 h 4 v 23 h 5 v 3 h -5 v 9 h -4 l -1,-8 -15,-1 1,-6 12,-16 z m -2,8 -9,13 v 2 h 10 l 1,-1 v -14 z"
     fill="#000000"
     id="path44133" />
  <path
     d="M0,0 L7,0 L12,3 L15,8 L16,13 L16,22 L13,31 L9,35 L7,36 L0,36 L-6,31 L-8,26 L-8,10 L-5,4 Z M1,4 L-3,9 L-4,22 L-2,29 L1,32 L6,32 L10,28 L11,24 L11,11 L8,5 L7,4 Z "
     fill="#000000"
     transform="translate(1488,936)"
     id="path44135" />
  <path
     d="M0,0 L7,0 L14,3 L18,8 L19,12 L14,12 L11,7 L2,5 L-3,7 L-7,12 L-8,21 L-5,30 L1,33 L9,32 L13,28 L15,22 L4,22 L3,18 L19,18 L19,37 L16,37 L14,34 L10,37 L7,38 L-2,38 L-10,33 L-13,27 L-14,17 L-11,8 L-7,3 Z "
     fill="#000000"
     transform="translate(1200,942)"
     id="path44137" />
  <path
     d="M0,0 L19,0 L25,4 L26,11 L23,17 L27,21 L27,30 L22,35 L19,36 L0,36 Z M5,4 L4,5 L4,15 L18,15 L21,12 L20,6 L17,4 Z M5,19 L4,20 L4,31 L5,32 L18,32 L22,29 L23,25 L20,20 L18,19 Z "
     fill="#000000"
     transform="translate(1127,943)"
     id="path44139" />
  <path
     d="m 1167.5,963.5 h 9 l 6,5 1,8 -4,6 -13,8 -2,4 h 19 v 4 h -24 l 1,-8 5,-5 9,-6 h 2 l 1,-8 -3,-3 h -6 l -3,3 -1,4 h -5 l 2,-8 3,-3 z"
     fill="#000000"
     id="path44141" />
  <path
     d="m 1241.5,963.5 h 4 v 23 h 4 v 3 h -4 v 9 h -4 l -1,-8 -15,-1 1,-6 12,-16 z m -2,8 -9,13 v 2 h 10 l 1,-1 v -14 z"
     fill="#000000"
     id="path44143" />
  <path
     d="M0,0 L7,0 L14,3 L18,8 L19,12 L14,12 L11,7 L2,5 L-3,7 L-7,12 L-8,21 L-5,30 L1,33 L9,32 L13,28 L15,22 L4,22 L3,18 L19,18 L19,37 L16,37 L14,34 L10,37 L7,38 L-2,38 L-10,33 L-13,27 L-14,17 L-11,8 L-7,3 Z "
     fill="#000000"
     transform="translate(890,1026)"
     id="path44145" />
  <path
     d="m 929,1042.5 h 4 v 35 h -5 v -25 h -8 v -3 l 7,-3 z"
     fill="#000000"
     id="path44147" />
  <path
     d="M0,0 L7,0 L14,3 L18,8 L19,12 L14,12 L11,7 L2,5 L-3,7 L-7,12 L-8,21 L-5,30 L1,33 L9,32 L13,28 L15,22 L4,22 L3,18 L19,18 L19,37 L16,37 L14,34 L10,37 L7,38 L-2,38 L-10,33 L-13,27 L-14,17 L-11,8 L-7,3 Z "
     fill="#000000"
     transform="translate(1200,1093)"
     id="path44149" />
  <path
     d="M0,0 L19,0 L25,4 L26,11 L23,17 L27,21 L27,30 L22,35 L19,36 L0,36 Z M5,4 L4,5 L4,15 L18,15 L21,12 L20,6 L17,4 Z M5,19 L4,20 L4,31 L5,32 L18,32 L22,29 L23,25 L20,20 L18,19 Z "
     fill="#000000"
     transform="translate(1127,1094)"
     id="path44151" />
  <path
     d="m 1166,1116 h 9 l 5,3 1,2 v 8 l -3,3 4,4 1,7 -3,6 -6,3 h -8 l -6,-4 -2,-5 v -3 h 5 l 2,6 2,1 h 6 l 4,-3 -1,-7 -8,-2 v -4 l 7,-2 1,-5 -3,-3 h -6 l -2,2 -1,4 h -5 l 1,-6 4,-4 z"
     fill="#000000"
     id="path44153" />
  <path
     d="m 1238,1116 h 4 v 35 h -5 v -25 h -8 v -3 l 7,-3 z"
     fill="#000000"
     id="path44155" />
  <path
     d="M0,0 L9,0 L14,3 L15,5 L15,13 L12,16 L16,20 L17,27 L14,33 L8,36 L0,36 L-6,32 L-8,27 L-8,24 L-3,24 L-1,30 L1,31 L7,31 L11,28 L10,21 L2,19 L2,15 L9,13 L10,8 L7,5 L1,5 L-1,7 L-2,11 L-7,11 L-6,5 L-2,1 Z "
     fill="#000000"
     transform="translate(1459,1095)"
     id="path44157" />
  <path
     d="M0,0 L7,0 L12,3 L15,8 L16,13 L16,22 L13,31 L9,35 L7,36 L0,36 L-6,31 L-8,26 L-8,10 L-5,4 Z M1,4 L-3,9 L-4,22 L-2,29 L1,32 L6,32 L10,28 L11,24 L11,11 L8,5 L7,4 Z "
     fill="#000000"
     transform="translate(1488,1095)"
     id="path44159" />
  <path
     d="M0,0 L7,0 L12,3 L15,8 L16,13 L16,22 L13,31 L9,35 L7,36 L0,36 L-6,31 L-8,26 L-8,10 L-5,4 Z M1,4 L-3,9 L-4,22 L-2,29 L1,32 L6,32 L10,28 L11,24 L11,11 L8,5 L7,4 Z "
     fill="#000000"
     transform="translate(1516,1095)"
     id="path44161" />
  <path
     d="M0,0 L7,0 L14,3 L18,8 L19,12 L14,12 L11,7 L2,5 L-3,7 L-7,12 L-8,21 L-5,30 L1,33 L9,32 L13,28 L15,22 L4,22 L3,18 L19,18 L19,37 L16,37 L14,34 L10,37 L7,38 L-2,38 L-10,33 L-13,27 L-14,17 L-11,8 L-7,3 Z "
     fill="#000000"
     transform="translate(890,1139)"
     id="path44163" />
  <path
     d="m 925,1155.5 h 9 l 6,5 1,8 -4,6 -13,8 -2,4 h 19 v 4 h -24 l 1,-8 5,-5 9,-6 h 2 l 1,-8 -3,-3 h -6 l -3,3 -1,4 h -5 l 2,-8 3,-3 z"
     fill="#000000"
     id="path44165" />
  <path
     d="M0,0 L9,0 L15,5 L16,13 L12,19 L-1,27 L-3,31 L16,31 L16,35 L-8,35 L-7,27 L-2,22 L7,16 L9,16 L10,8 L7,5 L1,5 L-2,8 L-3,12 L-8,12 L-6,4 L-3,1 Z "
     fill="#000000"
     transform="translate(1460,1187)"
     id="path44167" />
  <path
     d="M0,0 L7,0 L12,3 L15,8 L16,13 L16,22 L13,31 L9,35 L7,36 L0,36 L-6,31 L-8,26 L-8,10 L-5,4 Z M1,4 L-3,9 L-4,22 L-2,29 L1,32 L6,32 L10,28 L11,24 L11,11 L8,5 L7,4 Z "
     fill="#000000"
     transform="translate(1488,1187)"
     id="path44169" />
  <path
     d="M0,0 L7,0 L12,3 L15,8 L16,13 L16,22 L13,31 L9,35 L7,36 L0,36 L-6,31 L-8,26 L-8,10 L-5,4 Z M1,4 L-3,9 L-4,22 L-2,29 L1,32 L6,32 L10,28 L11,24 L11,11 L8,5 L7,4 Z "
     fill="#000000"
     transform="translate(1516,1187)"
     id="path44171" />
  <path
     d="M0,0 L7,0 L14,3 L18,8 L19,12 L14,12 L11,7 L2,5 L-3,7 L-7,12 L-8,21 L-5,30 L1,33 L9,32 L13,28 L15,22 L4,22 L3,18 L19,18 L19,37 L16,37 L14,34 L10,37 L7,38 L-2,38 L-10,33 L-13,27 L-14,17 L-11,8 L-7,3 Z "
     fill="#000000"
     transform="translate(1200,1189)"
     id="path44173" />
  <path
     d="M0,0 L19,0 L25,4 L26,11 L23,17 L27,21 L27,30 L22,35 L19,36 L0,36 Z M5,4 L4,5 L4,15 L18,15 L21,12 L20,6 L17,4 Z M5,19 L4,20 L4,31 L5,32 L18,32 L22,29 L23,25 L20,20 L18,19 Z "
     fill="#000000"
     transform="translate(431,1190)"
     id="path44175" />
  <path
     d="M0,0 L19,0 L25,4 L26,11 L23,17 L27,21 L27,30 L22,35 L19,36 L0,36 Z M5,4 L4,5 L4,15 L18,15 L21,12 L20,6 L17,4 Z M5,19 L4,20 L4,31 L5,32 L18,32 L22,29 L23,25 L20,20 L18,19 Z "
     fill="#000000"
     transform="translate(1127,1190)"
     id="path44177" />
  <path
     d="m 471,1209.5 h 9 l 5,3 1,2 v 8 l -3,3 4,4 1,7 -3,6 -6,3 h -8 l -6,-4 -2,-5 v -3 h 5 l 2,6 2,1 h 6 l 4,-3 -1,-7 -8,-2 v -4 l 7,-2 1,-5 -3,-3 h -6 l -2,2 -1,4 h -5 l 1,-6 4,-4 z"
     fill="#000000"
     id="path44179" />
  <path
     d="m 1166,1212 h 9 l 5,3 1,2 v 8 l -3,3 4,4 1,7 -3,6 -6,3 h -8 l -6,-4 -2,-5 v -3 h 5 l 2,6 2,1 h 6 l 4,-3 -1,-7 -8,-2 v -4 l 7,-2 1,-5 -3,-3 h -6 l -2,2 -1,4 h -5 l 1,-6 4,-4 z"
     fill="#000000"
     id="path44181" />
  <path
     d="m 1234,1212 h 9 l 6,5 v 10 l -5,5 -11,7 -2,4 h 18 v 4 h -23 l 1,-8 5,-5 9,-6 h 2 l 1,-8 -3,-3 h -6 l -3,3 -1,4 h -5 l 2,-8 3,-3 z"
     fill="#000000"
     id="path44183" />
  <path
     d="M0,0 L7,0 L14,3 L18,8 L19,12 L14,12 L11,7 L2,5 L-3,7 L-7,12 L-8,21 L-5,30 L1,33 L9,32 L13,28 L15,22 L4,22 L3,18 L19,18 L19,37 L16,37 L14,34 L10,37 L7,38 L-2,38 L-10,33 L-13,27 L-14,17 L-11,8 L-7,3 Z "
     fill="#000000"
     transform="translate(890,1251)"
     id="path44185" />
  <path
     d="m 924,1267.5 h 9 l 5,3 1,2 v 8 l -3,3 4,4 1,7 -3,6 -6,3 h -8 l -6,-4 -2,-5 v -3 h 5 l 2,6 2,1 h 6 l 4,-3 -1,-7 -8,-2 v -4 l 7,-2 1,-5 -3,-3 h -6 l -2,2 -1,4 h -5 l 1,-6 4,-4 z"
     fill="#000000"
     id="path44187" />
  <path
     d="M0,0 L7,0 L14,3 L18,8 L19,12 L14,12 L11,7 L2,5 L-3,7 L-7,12 L-8,21 L-5,30 L1,33 L9,32 L13,28 L15,22 L4,22 L3,18 L19,18 L19,37 L16,37 L14,34 L10,37 L7,38 L-2,38 L-10,33 L-13,27 L-14,17 L-11,8 L-7,3 Z "
     fill="#000000"
     transform="translate(1200,1289)"
     id="path44189" />
  <path
     d="M0,0 L19,0 L25,4 L26,11 L23,17 L27,21 L27,30 L22,35 L19,36 L0,36 Z M5,4 L4,5 L4,15 L18,15 L21,12 L20,6 L17,4 Z M5,19 L4,20 L4,31 L5,32 L18,32 L22,29 L23,25 L20,20 L18,19 Z "
     fill="#000000"
     transform="translate(1127,1290)"
     id="path44191" />
  <path
     d="m 1166,1312 h 9 l 5,3 1,2 v 8 l -3,3 4,4 1,7 -3,6 -6,3 h -8 l -6,-4 -2,-5 v -3 h 5 l 2,6 2,1 h 6 l 4,-3 -1,-7 -8,-2 v -4 l 7,-2 1,-5 -3,-3 h -6 l -2,2 -1,4 h -5 l 1,-6 4,-4 z"
     fill="#000000"
     id="path44193" />
  <path
     d="m 1233,1312 h 9 l 5,3 1,2 v 8 l -3,3 4,4 v 10 l -5,5 -3,1 h -8 l -6,-4 -2,-5 v -3 h 5 l 2,6 2,1 h 6 l 4,-3 -1,-7 -8,-2 v -4 l 7,-2 1,-5 -3,-3 h -6 l -2,2 -1,4 h -5 l 1,-6 4,-4 z"
     fill="#000000"
     id="path44195" />
  <path
     d="M0,0 L9,0 L15,5 L16,13 L12,19 L-1,27 L-3,31 L16,31 L16,35 L-8,35 L-7,27 L-2,22 L7,16 L9,16 L10,8 L7,5 L1,5 L-2,8 L-3,12 L-8,12 L-6,4 L-3,1 Z "
     fill="#000000"
     transform="translate(1460,1291)"
     id="path44197" />
  <path
     d="M0,0 L7,0 L12,3 L15,8 L16,13 L16,22 L13,31 L9,35 L7,36 L0,36 L-6,31 L-8,26 L-8,10 L-5,4 Z M1,4 L-3,9 L-4,22 L-2,29 L1,32 L6,32 L10,28 L11,24 L11,11 L8,5 L7,4 Z "
     fill="#000000"
     transform="translate(1488,1291)"
     id="path44199" />
  <path
     d="M0,0 L7,0 L12,3 L15,8 L16,13 L16,22 L13,31 L9,35 L7,36 L0,36 L-6,31 L-8,26 L-8,10 L-5,4 Z M1,4 L-3,9 L-4,22 L-2,29 L1,32 L6,32 L10,28 L11,24 L11,11 L8,5 L7,4 Z "
     fill="#000000"
     transform="translate(1516,1291)"
     id="path44201" />
  <path
     d="M0,0 L12,0 L12,4 L0,4 Z "
     fill="#000000"
     transform="translate(1435,1310)"
     id="path44203" />
  <path
     d="M0,0 L7,0 L14,3 L18,8 L19,12 L14,12 L11,7 L2,5 L-3,7 L-7,12 L-8,21 L-5,30 L1,33 L9,32 L13,28 L15,22 L4,22 L3,18 L19,18 L19,37 L16,37 L14,34 L10,37 L7,38 L-2,38 L-10,33 L-13,27 L-14,17 L-11,8 L-7,3 Z "
     fill="#000000"
     transform="translate(890,1356)"
     id="path44205" />
  <path
     d="m 932,1372.5 h 4 v 23 h 5 v 3 h -5 v 9 h -4 l -1,-8 -15,-1 1,-6 12,-16 z m -2,8 -9,13 v 2 h 10 l 1,-1 v -14 z"
     fill="#000000"
     id="path44207" />
  <path
     d="M0,0 L7,0 L14,3 L18,8 L19,12 L14,12 L11,7 L2,5 L-3,7 L-7,12 L-8,21 L-5,30 L1,33 L9,32 L13,28 L15,22 L4,22 L3,18 L19,18 L19,37 L16,37 L14,34 L10,37 L7,38 L-2,38 L-10,33 L-13,27 L-14,17 L-11,8 L-7,3 Z "
     fill="#000000"
     transform="translate(1200,1394)"
     id="path44209" />
  <path
     d="M0,0 L19,0 L25,4 L26,11 L23,17 L27,21 L27,30 L22,35 L19,36 L0,36 Z M5,4 L4,5 L4,15 L18,15 L21,12 L20,6 L17,4 Z M5,19 L4,20 L4,31 L5,32 L18,32 L22,29 L23,25 L20,20 L18,19 Z "
     fill="#000000"
     transform="translate(1127,1395)"
     id="path44211" />
  <path
     d="m 1166,1417 h 9 l 5,3 1,2 v 8 l -3,3 4,4 1,7 -3,6 -6,3 h -8 l -6,-4 -2,-5 v -3 h 5 l 2,6 2,1 h 6 l 4,-3 -1,-7 -8,-2 v -4 l 7,-2 1,-5 -3,-3 h -6 l -2,2 -1,4 h -5 l 1,-6 4,-4 z"
     fill="#000000"
     id="path44213" />
  <path
     d="m 1241,1417 h 4 v 23 h 4 v 3 h -4 v 9 h -4 l -1,-8 -15,-1 1,-6 12,-16 z m -2,8 -9,13 v 2 h 10 l 1,-1 v -14 z"
     fill="#000000"
     id="path44215" />
  <path
     d="M0,0 L9,0 L14,3 L15,5 L15,13 L12,16 L16,20 L17,27 L14,33 L8,36 L0,36 L-6,32 L-8,27 L-8,24 L-3,24 L-1,30 L1,31 L7,31 L11,28 L10,21 L2,19 L2,15 L9,13 L10,8 L7,5 L1,5 L-1,7 L-2,11 L-7,11 L-6,5 L-2,1 Z "
     fill="#000000"
     transform="translate(1459,1396)"
     id="path44217" />
  <path
     d="M0,0 L7,0 L12,3 L15,8 L16,13 L16,22 L13,31 L9,35 L7,36 L0,36 L-6,31 L-8,26 L-8,10 L-5,4 Z M1,4 L-3,9 L-4,22 L-2,29 L1,32 L6,32 L10,28 L11,24 L11,11 L8,5 L7,4 Z "
     fill="#000000"
     transform="translate(1488,1396)"
     id="path44219" />
  <path
     d="M0,0 L7,0 L12,3 L15,8 L16,13 L16,22 L13,31 L9,35 L7,36 L0,36 L-6,31 L-8,26 L-8,10 L-5,4 Z M1,4 L-3,9 L-4,22 L-2,29 L1,32 L6,32 L10,28 L11,24 L11,11 L8,5 L7,4 Z "
     fill="#000000"
     transform="translate(1516,1396)"
     id="path44221" />
  <path
     d="M0,0 L12,0 L12,4 L0,4 Z "
     fill="#000000"
     transform="translate(1435,1415)"
     id="path44223" />
</svg>
