<?xml version="1.0" encoding="UTF-8" standalone="no"?>
<!-- Generator: visioncortex VTracer 0.6.12 -->

<svg
   version="1.1"
   width="1876"
   height="1105"
   id="svg63619"
   xmlns="http://www.w3.org/2000/svg"
   xmlns:svg="http://www.w3.org/2000/svg">
  <defs
     id="defs63623" />
  <path
     d="M0,0 L9,0 L15,3 L19,8 L20,12 L15,12 L12,7 L3,5 L-4,7 L-6,12 L-7,21 L-4,30 L2,33 L10,32 L14,28 L16,22 L5,22 L4,18 L20,18 L20,37 L17,37 L15,34 L11,37 L8,38 L0,38 L-8,34 L-12,27 L-13,17 L-10,8 L-5,2 Z "
     fill="#000000"
     transform="translate(1070,22)"
     id="path63507" />
  <path
     d="M0,0 L8,0 L13,4 L16,13 L16,22 L13,31 L9,35 L7,36 L0,36 L-6,31 L-8,26 L-8,10 L-4,2 Z M1,4 L-3,9 L-4,22 L-2,29 L1,32 L6,32 L10,28 L11,24 L11,11 L8,5 L7,4 Z "
     fill="#000000"
     transform="translate(830,91)"
     id="path63509" />
  <path
     d="M0,0 L10,0 L16,5 L17,13 L13,19 L0,27 L-2,31 L17,31 L17,35 L-7,35 L-6,27 L-1,22 L8,16 L10,16 L11,8 L8,5 L2,5 L-1,8 L-2,12 L-7,12 L-5,4 Z "
     fill="#000000"
     transform="translate(871,91)"
     id="path63511" />
  <path
     d="M0,0 L9,0 L15,3 L19,8 L20,12 L15,12 L12,7 L3,5 L-4,7 L-6,12 L-7,21 L-4,30 L2,33 L10,32 L14,28 L16,22 L5,22 L4,18 L20,18 L20,37 L17,37 L15,34 L11,37 L8,38 L0,38 L-8,34 L-12,27 L-13,17 L-10,8 L-5,2 Z "
     fill="#000000"
     transform="translate(1340,93)"
     id="path63513" />
  <path
     d="M0,0 L19,0 L24,3 L26,7 L25,13 L23,17 L27,21 L27,30 L22,35 L19,36 L0,36 Z M5,4 L4,5 L4,15 L18,15 L21,12 L20,6 L17,4 Z M5,19 L4,20 L4,31 L5,32 L18,32 L22,29 L23,25 L20,20 L18,19 Z "
     fill="#000000"
     transform="translate(1295,94)"
     id="path63515" />
  <path
     d="M0,0 L8,0 L13,4 L16,13 L16,22 L13,31 L9,35 L7,36 L0,36 L-6,31 L-8,26 L-8,10 L-4,2 Z M1,4 L-3,9 L-4,22 L-2,29 L1,32 L6,32 L10,28 L11,24 L11,11 L8,5 L7,4 Z "
     fill="#000000"
     transform="translate(1503,95)"
     id="path63517" />
  <path
     d="M0,0 L8,0 L13,4 L16,13 L16,22 L13,31 L9,35 L7,36 L0,36 L-6,31 L-8,26 L-8,10 L-4,2 Z M1,4 L-3,9 L-4,22 L-2,29 L1,32 L6,32 L10,28 L11,24 L11,11 L8,5 L7,4 Z "
     fill="#000000"
     transform="translate(1544,95)"
     id="path63519" />
  <path
     d="M0,0 L4,0 L4,23 L9,23 L9,26 L4,26 L4,35 L0,35 L-1,27 L-16,26 L-15,20 L-3,4 Z M-2,8 L-11,21 L-11,23 L-1,23 L0,22 L0,8 Z "
     fill="#000000"
     transform="translate(1579,95)"
     id="path63521" />
  <path
     d="M0,0 L306,0 L306,4 L5,5 L-121,131 L-119,137 L-116,145 L-116,156 L-120,166 L-123,170 L-121,174 L5,300 L306,301 L306,305 L0,305 L-129,176 L-141,180 L-149,180 L-159,177 L-167,171 L-173,161 L-174,155 L-447,155 L-449,161 L-493,249 L-504,272 L-581,426 L-575,431 L-570,438 L-567,448 L-567,455 L-570,465 L-576,473 L-581,477 L-583,477 L-572,500 L-446,752 L-175,752 L-173,742 L-167,733 L-160,727 L-152,724 L-139,724 L-129,728 L-125,728 L1,602 L306,602 L306,607 L4,608 L-121,733 L-120,737 L-116,748 L-116,759 L-120,769 L-123,773 L-121,777 L5,903 L306,904 L306,908 L1,908 L-128,779 L-133,780 L-138,782 L-152,782 L-160,779 L-169,771 L-174,761 L-174,757 L-451,757 L-579,501 L-588,482 L-588,480 L-591,481 L-602,481 L-611,478 L-621,469 L-625,460 L-626,456 L-626,447 L-622,436 L-616,429 L-607,424 L-595,422 L-587,423 L-451,151 L-450,150 L-174,150 L-174,143 L-168,131 L-159,124 L-150,121 L-141,121 L-130,125 L-126,126 Z M-148,125 L-157,128 L-165,134 L-170,144 L-170,157 L-165,167 L-157,173 L-153,175 L-143,176 L-133,173 L-124,165 L-120,155 L-120,146 L-124,136 L-131,129 L-138,126 Z M-603,427 L-613,432 L-619,440 L-622,449 L-621,459 L-617,467 L-609,474 L-601,477 L-592,477 L-582,473 L-574,464 L-572,459 L-572,445 L-577,435 L-585,429 L-590,427 Z M-150,728 L-160,732 L-168,741 L-170,747 L-170,759 L-166,768 L-157,776 L-151,778 L-139,778 L-129,773 L-122,764 L-120,757 L-120,749 L-124,739 L-128,734 L-134,730 L-140,728 Z "
     fill="#000000"
     transform="translate(919,109)"
     id="path63523" />
  <path
     d="M0,0 L5,0 L5,5 L0,5 Z "
     fill="#000000"
     transform="translate(852,121)"
     id="path63525" />
  <path
     d="M0,0 L5,0 L5,5 L0,5 Z "
     fill="#000000"
     transform="translate(1524,125)"
     id="path63527" />
  <path
     d="M0,0 L19,0 L24,3 L26,7 L25,13 L23,17 L27,21 L27,30 L22,35 L19,36 L0,36 Z M5,4 L4,5 L4,15 L18,15 L21,12 L20,6 L17,4 Z M5,19 L4,20 L4,31 L5,32 L18,32 L22,29 L23,25 L20,20 L18,19 Z "
     fill="#000000"
     transform="translate(625,186)"
     id="path63529" />
  <path
     d="M0,0 L8,0 L13,4 L16,13 L16,22 L13,31 L9,35 L7,36 L0,36 L-6,31 L-8,26 L-8,10 L-4,2 Z M1,4 L-3,9 L-4,22 L-2,29 L1,32 L6,32 L10,28 L11,24 L11,11 L8,5 L7,4 Z "
     fill="#000000"
     transform="translate(366,270)"
     id="path63531" />
  <path
     d="M0,0 L10,0 L16,5 L17,13 L13,19 L0,27 L-2,31 L17,31 L17,35 L-7,35 L-6,27 L-1,22 L8,16 L10,16 L11,8 L8,5 L2,5 L-1,8 L-2,12 L-7,12 L-5,4 Z "
     fill="#000000"
     transform="translate(407,270)"
     id="path63533" />
  <path
     d="M0,0 L5,0 L5,5 L0,5 Z "
     fill="#000000"
     transform="translate(388,300)"
     id="path63535" />
  <path
     d="M0,0 L9,0 L15,3 L19,8 L20,12 L15,12 L12,7 L3,5 L-4,7 L-6,12 L-7,21 L-4,30 L2,33 L10,32 L14,28 L16,22 L5,22 L4,18 L20,18 L20,37 L17,37 L15,34 L11,37 L8,38 L0,38 L-8,34 L-12,27 L-13,17 L-10,8 L-5,2 Z "
     fill="#000000"
     transform="translate(1070,340)"
     id="path63537" />
  <path
     d="M0,0 L9,0 L15,3 L19,8 L20,12 L15,12 L12,7 L3,5 L-4,7 L-6,12 L-7,21 L-4,30 L2,33 L10,32 L14,28 L16,22 L5,22 L4,18 L20,18 L20,37 L17,37 L15,34 L11,37 L8,38 L0,38 L-8,34 L-12,27 L-13,17 L-10,8 L-5,2 Z "
     fill="#000000"
     transform="translate(1339,390)"
     id="path63541" />
  <path
     d="M0,0 L19,0 L24,3 L26,7 L25,13 L23,17 L27,21 L27,30 L22,35 L19,36 L0,36 Z M5,4 L4,5 L4,15 L18,15 L21,12 L20,6 L17,4 Z M5,19 L4,20 L4,31 L5,32 L18,32 L22,29 L23,25 L20,20 L18,19 Z "
     fill="#000000"
     transform="translate(1295,391)"
     id="path63543" />
  <path
     d="M0,0 L8,0 L13,4 L16,13 L16,22 L13,31 L9,35 L7,36 L0,36 L-6,31 L-8,26 L-8,10 L-4,2 Z M1,4 L-3,9 L-4,22 L-2,29 L1,32 L6,32 L10,28 L11,24 L11,11 L8,5 L7,4 Z "
     fill="#000000"
     transform="translate(1503,392)"
     id="path63547" />
  <path
     d="M0,0 L4,0 L4,35 L-1,35 L-1,10 L-9,10 L-9,7 L-2,4 Z "
     fill="#000000"
     transform="translate(1548,392)"
     id="path63549" />
  <path
     d="M0,0 L10,0 L14,4 L15,9 L10,8 L8,5 L1,5 L-2,10 L-2,15 L0,13 L10,13 L15,18 L16,20 L16,27 L13,33 L7,36 L1,36 L-5,32 L-8,26 L-8,12 L-5,4 Z M0,17 L-3,21 L-3,27 L2,32 L9,31 L11,28 L11,20 L8,17 Z "
     fill="#000000"
     transform="translate(1572,392)"
     id="path63551" />
  <path
     d="M0,0 L8,0 L13,4 L16,13 L16,22 L13,31 L9,35 L7,36 L0,36 L-6,31 L-8,26 L-8,10 L-4,2 Z M1,4 L-3,9 L-4,22 L-2,29 L1,32 L6,32 L10,28 L11,24 L11,11 L8,5 L7,4 Z "
     fill="#000000"
     transform="translate(830,396)"
     id="path63553" />
  <path
     d="M0,0 L9,0 L14,3 L15,5 L15,13 L12,16 L16,20 L17,27 L14,33 L9,36 L1,36 L-5,33 L-7,30 L-7,21 L-3,16 L-6,13 L-6,6 L-2,1 Z M1,4 L-2,9 L1,14 L6,15 L10,13 L11,7 L8,4 Z M4,18 L-1,20 L-3,26 L0,31 L2,32 L8,32 L12,28 L11,21 L9,19 Z "
     fill="#000000"
     transform="translate(871,396)"
     id="path63555" />
  <path
     d="M0,0 L5,0 L5,5 L0,5 Z "
     fill="#000000"
     transform="translate(1524,422)"
     id="path63557" />
  <path
     d="M0,0 L5,0 L5,5 L0,5 Z "
     fill="#000000"
     transform="translate(852,426)"
     id="path63559" />
  <path
     d="M0,0 L9,0 L15,3 L19,8 L20,12 L15,12 L12,7 L3,5 L-4,7 L-6,12 L-7,21 L-4,30 L2,33 L10,32 L14,28 L16,22 L5,22 L4,18 L20,18 L20,37 L17,37 L15,34 L11,37 L8,38 L0,38 L-8,34 L-12,27 L-13,17 L-10,8 L-5,2 Z "
     fill="#000000"
     transform="translate(1070,633)"
     id="path63561" />
  <path
     d="M0,0 L8,0 L13,4 L16,13 L16,22 L13,31 L9,35 L7,36 L0,36 L-6,31 L-8,26 L-8,10 L-4,2 Z M1,4 L-3,9 L-4,22 L-2,29 L1,32 L6,32 L10,28 L11,24 L11,11 L8,5 L7,4 Z "
     fill="#000000"
     transform="translate(830,693)"
     id="path63563" />
  <path
     d="M0,0 L24,0 L24,5 L17,15 L12,27 L10,35 L5,35 L7,25 L14,11 L18,6 L0,5 Z "
     fill="#000000"
     transform="translate(864,693)"
     id="path63565" />
  <path
     d="m 1367,695 h 9 l 6,3 4,5 1,4 h -5 l -3,-5 -9,-2 -7,2 -2,5 -1,9 3,9 6,3 8,-1 4,-4 2,-6 h -11 l -1,-4 h 16 v 19 h -3 l -2,-3 -4,3 -3,1 h -8 l -8,-4 -4,-7 -1,-10 3,-9 5,-6 z"
     fill="#000000"
     id="path63567" />
  <path
     d="M0,0 L19,0 L24,3 L26,7 L25,13 L23,17 L27,21 L27,30 L22,35 L19,36 L0,36 Z M5,4 L4,5 L4,15 L18,15 L21,12 L20,6 L17,4 Z M5,19 L4,20 L4,31 L5,32 L18,32 L22,29 L23,25 L20,20 L18,19 Z "
     fill="#000000"
     transform="translate(1295,696)"
     id="path63569" />
  <path
     d="M0,0 L8,0 L13,4 L16,13 L16,22 L13,31 L9,35 L7,36 L0,36 L-6,31 L-8,26 L-8,10 L-4,2 Z M1,4 L-3,9 L-4,22 L-2,29 L1,32 L6,32 L10,28 L11,24 L11,11 L8,5 L7,4 Z "
     fill="#000000"
     transform="translate(1503,697)"
     id="path63573" />
  <path
     d="M0,0 L17,0 L18,5 L3,5 L3,13 L10,12 L15,14 L19,18 L20,26 L17,32 L11,36 L4,36 L-2,33 L-4,30 L-4,26 L1,27 L4,31 L10,31 L14,27 L14,21 L12,18 L5,17 L1,20 L-3,19 L-1,1 Z "
     fill="#000000"
     transform="translate(1540,697)"
     id="path63575" />
  <path
     d="M0,0 L10,0 L14,4 L15,9 L10,8 L8,5 L1,5 L-2,10 L-2,15 L0,13 L10,13 L15,18 L16,20 L16,27 L13,33 L7,36 L1,36 L-5,32 L-8,26 L-8,12 L-5,4 Z M0,17 L-3,21 L-3,27 L2,32 L9,31 L11,28 L11,20 L8,17 Z "
     fill="#000000"
     transform="translate(1572,697)"
     id="path63577" />
  <path
     d="M0,0 L5,0 L5,5 L0,5 Z "
     fill="#000000"
     transform="translate(852,723)"
     id="path63579" />
  <path
     d="M0,0 L5,0 L5,5 L0,5 Z "
     fill="#000000"
     transform="translate(1524,727)"
     id="path63581" />
  <path
     d="M0,0 L19,0 L24,3 L26,7 L25,13 L23,17 L27,21 L27,30 L22,35 L19,36 L0,36 Z M5,4 L4,5 L4,15 L18,15 L21,12 L20,6 L17,4 Z M5,19 L4,20 L4,31 L5,32 L18,32 L22,29 L23,25 L20,20 L18,19 Z "
     fill="#000000"
     transform="translate(625,788)"
     id="path63583" />
  <path
     d="M0,0 L8,0 L13,4 L16,13 L16,22 L13,31 L9,35 L7,36 L0,36 L-6,31 L-8,26 L-8,10 L-4,2 Z M1,4 L-3,9 L-4,22 L-2,29 L1,32 L6,32 L10,28 L11,24 L11,11 L8,5 L7,4 Z "
     fill="#000000"
     transform="translate(366,827)"
     id="path63587" />
  <path
     d="M0,0 L9,0 L14,3 L15,5 L15,13 L12,16 L16,20 L17,27 L14,33 L9,36 L1,36 L-5,33 L-7,30 L-7,21 L-3,16 L-6,13 L-6,6 L-2,1 Z M1,4 L-2,9 L1,14 L6,15 L10,13 L11,7 L8,4 Z M4,18 L-1,20 L-3,26 L0,31 L2,32 L8,32 L12,28 L11,21 L9,19 Z "
     fill="#000000"
     transform="translate(407,827)"
     id="path63589" />
  <path
     d="M0,0 L5,0 L5,5 L0,5 Z "
     fill="#000000"
     transform="translate(388,857)"
     id="path63591" />
  <path
     d="M0,0 L9,0 L15,3 L19,8 L20,12 L15,12 L12,7 L3,5 L-4,7 L-6,12 L-7,21 L-4,30 L2,33 L10,32 L14,28 L16,22 L5,22 L4,18 L20,18 L20,37 L17,37 L15,34 L11,37 L8,38 L0,38 L-8,34 L-12,27 L-13,17 L-10,8 L-5,2 Z "
     fill="#000000"
     transform="translate(1070,942)"
     id="path63593" />
  <path
     d="m 1366,997 h 9 l 6,3 4,5 1,4 h -5 l -3,-5 -9,-2 -7,2 -2,5 -1,9 3,9 6,3 8,-1 4,-4 2,-6 h -11 l -1,-4 h 16 v 19 h -3 l -2,-3 -4,3 -3,1 h -8 l -8,-4 -4,-7 -1,-10 3,-9 5,-6 z"
     fill="#000000"
     id="path63597" />
  <path
     d="M0,0 L19,0 L24,3 L26,7 L25,13 L23,17 L27,21 L27,30 L22,35 L19,36 L0,36 Z M5,4 L4,5 L4,15 L18,15 L21,12 L20,6 L17,4 Z M5,19 L4,20 L4,31 L5,32 L18,32 L22,29 L23,25 L20,20 L18,19 Z "
     fill="#000000"
     transform="translate(1294,998)"
     id="path63599" />
  <path
     d="M0,0 L8,0 L13,4 L16,13 L16,22 L13,31 L9,35 L7,36 L0,36 L-6,31 L-8,26 L-8,10 L-4,2 Z M1,4 L-3,9 L-4,22 L-2,29 L1,32 L6,32 L10,28 L11,24 L11,11 L8,5 L7,4 Z "
     fill="#000000"
     transform="translate(830,999)"
     id="path63605" />
  <path
     d="M0,0 L9,0 L14,3 L15,5 L15,13 L12,16 L16,20 L17,27 L14,33 L8,36 L0,36 L-6,32 L-8,27 L-8,24 L-3,24 L-1,30 L1,31 L7,31 L11,28 L10,21 L2,19 L2,15 L9,13 L10,8 L8,5 L1,5 L-1,7 L-2,11 L-7,11 L-6,5 L-2,1 Z "
     fill="#000000"
     transform="translate(871,999)"
     id="path63607" />
  <path
     d="M0,0 L8,0 L13,4 L16,13 L16,22 L13,31 L9,35 L7,36 L0,36 L-6,31 L-8,26 L-8,10 L-4,2 Z M1,4 L-3,9 L-4,22 L-2,29 L1,32 L6,32 L10,28 L11,24 L11,11 L8,5 L7,4 Z "
     fill="#000000"
     transform="translate(1503,999)"
     id="path63609" />
  <path
     d="M0,0 L10,0 L16,5 L17,13 L13,19 L0,27 L-2,31 L17,31 L17,35 L-7,35 L-6,27 L-1,22 L8,16 L10,16 L11,8 L8,5 L2,5 L-1,8 L-2,12 L-7,12 L-5,4 Z "
     fill="#000000"
     transform="translate(1543,999)"
     id="path63611" />
  <path
     d="M0,0 L4,0 L4,23 L9,23 L9,26 L4,26 L4,35 L0,35 L-1,27 L-16,26 L-15,20 L-3,4 Z M-2,8 L-11,21 L-11,23 L-1,23 L0,22 L0,8 Z "
     fill="#000000"
     transform="translate(1579,999)"
     id="path63613" />
  <path
     d="M0,0 L5,0 L5,5 L0,5 Z "
     fill="#000000"
     transform="translate(852,1029)"
     id="path63615" />
  <path
     d="M0,0 L5,0 L5,5 L0,5 Z "
     fill="#000000"
     transform="translate(1524,1029)"
     id="path63617" />
  <text
     xml:space="preserve"
     style="font-size:32px;font-family:'Arial Black';-inkscape-font-specification:'Arial Black, Normal';fill:#333333;stroke:#f6f6ff;stroke-width:3.425"
     x="1094.3438"
     y="356.44531"
     id="text6687-32"><tspan
       id="tspan6685-8"
       x="1094.3438"
       y="356.44531">C</tspan></text>
  <text
     xml:space="preserve"
     style="font-size:32px;font-family:'Arial Black';-inkscape-font-specification:'Arial Black, Normal';fill:#333333;stroke:#f6f6ff;stroke-width:3.425"
     x="1364.3438"
     y="403.44531"
     id="text6687-32-6"><tspan
       id="tspan6685-8-2"
       x="1364.3438"
       y="403.44531">C</tspan></text>
  <text
     xml:space="preserve"
     style="font-size:32px;font-family:'Arial Black';-inkscape-font-specification:'Arial Black, Normal';fill:#333333;stroke:#f6f6ff;stroke-width:3.425"
     x="1094.3438"
     y="959.44531"
     id="text6687-32-7"><tspan
       id="tspan6685-8-1"
       x="1094.3438"
       y="959.44531">C</tspan></text>
  <text
     xml:space="preserve"
     style="font-size:32px;font-family:'Arial Black';-inkscape-font-specification:'Arial Black, Normal';fill:#333333;stroke:#f6f6ff;stroke-width:3.425"
     x="652.34375"
     y="800.44531"
     id="text6687-32-0"><tspan
       id="tspan6685-8-7"
       x="652.34375"
       y="800.44531">C</tspan></text>
  <text
     xml:space="preserve"
     style="font-size:32px;font-family:'Arial Black';-inkscape-font-specification:'Arial Black, Normal';fill:#333333;stroke:#f6f6ff;stroke-width:3.425"
     x="1390.3438"
     y="1011.4453"
     id="text6687-32-2"><tspan
       id="tspan6685-8-27"
       x="1390.3438"
       y="1011.4453">C</tspan></text>
  <text
     xml:space="preserve"
     style="font-size:32px;font-family:'Arial Black';-inkscape-font-specification:'Arial Black, Normal';fill:#333333;stroke:#f6f6ff;stroke-width:3.425"
     x="1323.3438"
     y="707.44531"
     id="text6687-32-5"><tspan
       id="tspan6685-8-73"
       x="1323.3438"
       y="707.44531">C</tspan></text>
  <text
     xml:space="preserve"
     style="font-size:32px;font-family:'Arial Black';-inkscape-font-specification:'Arial Black, Normal';fill:#333333;stroke:#f6f6ff;stroke-width:3.425"
     x="1323.3438"
     y="1010.4453"
     id="text6687-32-3"><tspan
       id="tspan6685-8-71"
       x="1323.3438"
       y="1010.4453">C</tspan></text>
</svg>
