<?xml version="1.0" encoding="UTF-8" standalone="no"?>
<!-- Generator: visioncortex VTracer 0.6.12 -->

<svg
   version="1.1"
   width="1876"
   height="464"
   id="svg60936"
   xmlns="http://www.w3.org/2000/svg"
   xmlns:svg="http://www.w3.org/2000/svg">
  <defs
     id="defs60940" />
  <path
     d="M0,0 L11,0 L17,3 L20,7 L21,12 L16,12 L12,6 L9,5 L2,5 L-3,8 L-5,12 L-5,26 L-2,31 L3,33 L11,32 L15,28 L17,22 L6,22 L6,18 L22,18 L22,37 L18,37 L16,34 L12,37 L9,38 L0,38 L-8,33 L-11,27 L-12,17 L-9,7 L-2,1 Z "
     fill="#000000"
     transform="translate(1537,34)"
     id="path60418" />
  <path
     d="m 1578.9661,53.694915 h 4 v 35 h -5 v -25 h -8 v -4 l 7,-2 z"
     fill="#000000"
     id="path60420" />
  <path
     d="M0,0 L9,0 L15,5 L17,12 L17,23 L14,31 L10,35 L8,36 L1,36 L-5,31 L-7,26 L-7,10 L-3,2 Z M2,4 L-1,7 L-3,15 L-2,27 L2,32 L9,31 L12,25 L12,11 L10,6 L8,4 Z "
     fill="#000000"
     transform="translate(1387,44)"
     id="path60450" />
  <path
     d="M0,0 L4,0 L4,35 L-1,35 L-1,10 L-9,10 L-9,6 L-2,4 Z "
     fill="#000000"
     transform="translate(1435,44)"
     id="path60452" />
  <path
     d="M0,0 L5,0 L5,5 L0,5 Z "
     fill="#000000"
     transform="translate(1410,74)"
     id="path60458" />
  <path
     d="M0,0 L307,1 L307,5 L4,6 L-125,135 L-123,140 L-121,141 L-77,125 L-30,108 L0,97 L307,98 L307,102 L2,103 L-56,124 L-114,145 L-119,146 L-118,150 L-118,164 L-108,167 L-57,187 L-8,206 L2,210 L307,211 L307,216 L0,216 L-49,197 L-90,181 L-121,169 L-123,176 L4,303 L307,304 L307,308 L-1,308 L-128,181 L-132,182 L-143,186 L-156,186 L-166,182 L-173,177 L-179,168 L-181,161 L-181,152 L-178,143 L-169,133 L-159,128 L-155,127 L-144,127 L-134,130 L-130,130 Z M-153,131 L-163,134 L-173,143 L-176,149 L-177,159 L-174,168 L-169,175 L-161,180 L-154,182 L-145,182 L-136,179 L-130,175 L-125,169 L-122,162 L-122,151 L-127,141 L-134,135 L-141,132 L-146,131 Z "
     fill="#000000"
     transform="translate(1370,104)"
     id="path60460" />
  <path
     d="M0,0 L11,0 L17,3 L20,7 L21,12 L16,12 L12,6 L9,5 L2,5 L-3,8 L-5,12 L-5,26 L-2,31 L3,33 L11,32 L15,28 L17,22 L6,22 L6,18 L22,18 L22,37 L18,37 L16,34 L12,37 L9,38 L0,38 L-8,33 L-11,27 L-12,17 L-9,7 L-2,1 Z "
     fill="#000000"
     transform="translate(1537,139)"
     id="path60480" />
  <path
     d="m 1573.9661,158.69492 h 11 l 5,5 1,2 v 6 l -4,6 -13,8 -2,4 h 19 v 4 h -24 l 1,-8 4,-5 10,-6 3,-3 v -6 l -2,-2 h -8 l -3,7 h -5 l 2,-8 z"
     fill="#000000"
     id="path60490" />
  <path
     d="M0,0 L9,0 L15,5 L17,12 L17,23 L14,31 L10,35 L8,36 L1,36 L-5,31 L-7,26 L-7,10 L-3,2 Z M2,4 L-1,7 L-3,15 L-2,27 L2,32 L9,31 L12,25 L12,11 L10,6 L8,4 Z "
     fill="#000000"
     transform="translate(1387,150)"
     id="path60518" />
  <path
     d="M0,0 L11,0 L16,4 L16,13 L13,17 L16,18 L18,22 L18,28 L14,34 L9,36 L1,36 L-5,32 L-7,27 L-7,24 L-2,24 L0,30 L8,31 L12,28 L12,22 L10,20 L3,19 L3,15 L10,13 L11,7 L9,5 L0,5 L-1,11 L-6,11 L-5,5 Z "
     fill="#000000"
     transform="translate(1429,150)"
     id="path60520" />
  <path
     d="M0,0 L5,0 L5,5 L0,5 Z "
     fill="#000000"
     transform="translate(1410,180)"
     id="path60528" />
  <path
     d="M0,0 L11,0 L17,3 L20,7 L21,12 L16,12 L12,6 L9,5 L2,5 L-3,8 L-5,12 L-5,26 L-2,31 L3,33 L11,32 L15,28 L17,22 L6,22 L6,18 L22,18 L22,37 L18,37 L16,34 L12,37 L9,38 L0,38 L-8,33 L-11,27 L-12,17 L-9,7 L-2,1 Z "
     fill="#000000"
     transform="translate(1537,245)"
     id="path60608" />
  <path
     d="m 1572.9661,264.69492 h 11 l 5,4 v 9 l -3,4 3,1 2,4 v 6 l -4,6 -5,2 h -8 l -6,-4 -2,-5 v -3 h 5 l 2,6 8,1 4,-3 v -6 l -2,-2 -7,-1 v -4 l 7,-2 1,-6 -2,-2 h -9 l -1,6 h -5 l 1,-6 z"
     fill="#000000"
     id="path60618" />
  <path
     d="M0,0 L9,0 L15,5 L17,12 L17,23 L14,31 L10,35 L8,36 L1,36 L-5,31 L-7,26 L-7,10 L-3,2 Z M2,4 L-1,7 L-3,15 L-2,27 L2,32 L9,31 L12,25 L12,11 L10,6 L8,4 Z "
     fill="#000000"
     transform="translate(1387,264)"
     id="path60674" />
  <path
     d="M0,0 L18,0 L18,5 L3,5 L3,13 L5,12 L14,13 L19,18 L20,20 L20,27 L16,33 L11,36 L4,36 L-2,33 L-4,30 L-4,26 L1,27 L5,31 L12,30 L14,27 L14,21 L10,17 L3,18 L2,19 L-3,19 L-1,1 Z "
     fill="#000000"
     transform="translate(1427,264)"
     id="path60676" />
  <path
     d="M0,0 L5,0 L5,5 L0,5 Z "
     fill="#000000"
     transform="translate(1410,294)"
     id="path60678" />
  <path
     d="M0,0 L11,0 L17,3 L20,7 L21,12 L16,12 L12,6 L9,5 L2,5 L-3,8 L-5,12 L-5,26 L-2,31 L3,33 L11,32 L15,28 L17,22 L6,22 L6,18 L22,18 L22,37 L18,37 L16,34 L12,37 L9,38 L0,38 L-8,33 L-11,27 L-12,17 L-9,7 L-2,1 Z "
     fill="#000000"
     transform="translate(1537,342)"
     id="path60766" />
  <path
     d="m 1581.9661,361.69492 h 4 v 22 h 5 v 4 h -5 v 9 h -4 l -1,-8 -15,-1 1,-6 12,-16 z m -1,7 -10,14 v 1 h 11 v -15 z"
     fill="#000000"
     id="path60768" />
  <path
     d="M0,0 L9,0 L15,5 L17,12 L17,23 L14,31 L10,35 L8,36 L1,36 L-5,31 L-7,26 L-7,10 L-3,2 Z M2,4 L-1,7 L-3,15 L-2,27 L2,32 L9,31 L12,25 L12,11 L10,6 L8,4 Z "
     fill="#000000"
     transform="translate(1387,360)"
     id="path60804" />
  <path
     d="M0,0 L4,0 L4,35 L-1,35 L-1,10 L-9,10 L-9,6 L-2,4 Z "
     fill="#000000"
     transform="translate(1435,360)"
     id="path60806" />
  <path
     d="M0,0 L5,0 L5,5 L0,5 Z "
     fill="#000000"
     transform="translate(1410,390)"
     id="path60850" />
  <path
     d="M0,0 L5,0 L5,3 L-3,2 Z "
     fill="#000000"
     transform="translate(235,461)"
     id="path60924" />
  <path
     d="M0,0 L10,1 L11,3 L-4,3 L-3,1 Z "
     fill="#000000"
     transform="translate(579,461)"
     id="path60926" />
  <path
     d="M0,0 L8,0 L15,2 L15,3 L-6,3 L-4,1 Z "
     fill="#000000"
     transform="translate(719,461)"
     id="path60928" />
  <path
     d="M0,0 L22,0 L22,2 L3,2 Z "
     fill="#000000"
     transform="translate(309,462)"
     id="path60930" />
  <path
     d="M0,0 L8,0 L10,2 L-2,2 Z "
     fill="#000000"
     transform="translate(519,462)"
     id="path60932" />
  <path
     d="M0,0 L8,0 L9,2 L-2,2 Z "
     fill="#000000"
     transform="translate(745,462)"
     id="path60934" />
</svg>
