<?xml version="1.0" encoding="UTF-8" standalone="no"?>
<!-- Generator: visioncortex VTracer 0.6.12 -->

<svg
   version="1.1"
   width="648"
   height="480"
   id="svg52761"
   xmlns="http://www.w3.org/2000/svg"
   xmlns:svg="http://www.w3.org/2000/svg">
  <defs
     id="defs52765" />
  <path
     d="M 94,0 98,1 97,5 93,4 Z"
     fill="#000000"
     id="path52185" />
  <path
     d="m 160,0 3,1 -1,4 h -3 l -1,-3 z"
     fill="#000000"
     id="path52189" />
  <path
     d="m 427.86441,41.033898 h 20 l 5,4 1,7 -3,6 4,4 1,6 -3,6 -6,3 h -19 z m 5,4 v 11 h 13 l 3,-3 v -5 l -3,-3 z m 0,15 v 13 h 13 l 5,-5 -1,-5 -4,-3 z"
     fill="#000000"
     id="path52273" />
  <path
     d="m 476.96611,52.20339 h 4 v 35 h -5 v -25 h -8 v -4 l 7,-2 z"
     fill="#000000"
     id="path52275" />
  <path
     d="m 298.86441,67.033898 h 9 l 6,5 2,7 v 11 l -3,8 -4,4.000002 -2,1 h -7 l -6,-5.000002 -2,-5 v -16 l 4,-8 z m 2,4 -4,5 -1,12 2,8 3,3 7,-1 3,-6 v -14 l -2,-5 -2,-2 z"
     fill="#000000"
     id="path52341" />
  <path
     d="m 334.86441,67.033898 h 24 v 5 l -6,9 -5,10 -3,11.000002 h -5 l 2,-10.000002 7,-14 4,-5 -18,-1 z"
     fill="#000000"
     id="path52343" />
  <path
     d="m 321.86441,97.033898 h 5 v 5.000002 h -5 z"
     fill="#000000"
     id="path52349" />
  <path
     d="m 281.86441,123.0339 h 307 v 4 l -303,1 -129,129 1,4 5,8 1,6 h 425 v 4 h -425 v 7 l -5,10 2,4 57,57 7,8 60,60 304,1 v 5 h -307 l -128,-128 -5,2 -8,3 h -16 l -10,-4 -8,-7 -5,-10 -1,-4 v -8 l 4,-11 7,-8 12,-6 10,-1 10,2 7,3 z m -156,131 -9,4 -7,6 -4,8 -1,9 3,10 7,8 8,4 3,1 h 13 l 10,-4 7,-7 4,-9 v -10 l -3,-8 -8,-8 -9,-4 z"
     fill="#000000"
     id="path52413" />
  <path
     d="m 427.86441,209.0339 h 20 l 5,4 1,7 -3,6 4,4 1,6 -3,6 -6,3 h -19 z m 5,4 v 11 h 13 l 3,-3 v -5 l -3,-3 z m 0,15 v 13 h 13 l 5,-5 -1,-5 -4,-3 z"
     fill="#000000"
     id="path52503" />
  <path
     d="m 471.96611,220.20339 h 11 l 5,5 1,2 v 6 l -4,6 -13,8 -2,4 h 19 v 4 h -24 l 1,-8 4,-5 10,-6 3,-3 v -6 l -2,-2 h -7 l -3,3 -1,4 h -5 l 2,-8 z"
     fill="#000000"
     id="path52505" />
  <path
     d="m 298.86441,219.0339 h 9 l 6,5 2,7 v 11 l -3,8 -4,4 -2,1 h -7 l -6,-5 -2,-5 v -16 l 4,-8 z m 2,4 -4,5 -1,12 2,8 3,3 7,-1 3,-6 v -14 l -2,-5 -2,-2 z"
     fill="#000000"
     id="path52529" />
  <path
     d="m 341.86441,219.0339 h 11 l 5,5 1,2 v 6 l -4,6 -13,8 -2,4 h 19 v 4 h -24 l 1,-8 4,-5 10,-6 3,-3 v -6 l -2,-2 h -7 l -3,3 -1,4 h -5 l 2,-8 z"
     fill="#000000"
     id="path52531" />
  <path
     d="m 321.86441,249.0339 h 5 v 5 h -5 z"
     fill="#000000"
     id="path52591" />
  <path
     d="m 427.86441,361.0339 h 20 l 5,4 1,7 -3,6 4,4 1,6 -3,6 -6,3 h -19 z m 5,4 v 11 h 13 l 3,-3 v -5 l -3,-3 z m 0,15 v 13 h 13 l 5,-5 -1,-5 -4,-3 z"
     fill="#000000"
     id="path52599" />
  <path
     d="m 470.96611,372.20339 h 11 l 5,4 v 9 l -1,2 h -2 v 2 l 3,1 2,4 v 6 l -4,6 -5,2 h -8 l -6,-4 -2,-5 v -3 h 5 l 2,6 8,1 4,-3 v -6 l -2,-2 -7,-1 v -4 l 7,-2 1,-6 -2,-2 h -9 l -1,6 h -5 l 1,-6 z"
     fill="#000000"
     id="path52601" />
  <path
     d="m 298.86441,370.0339 h 9 l 6,5 2,7 v 11 l -3,8 -4,4 -2,1 h -7 l -6,-5 -2,-5 v -16 l 4,-8 z m 2,4 -4,5 -1,12 2,8 3,3 7,-1 3,-6 v -14 l -2,-5 -2,-2 z"
     fill="#000000"
     id="path52603" />
  <path
     d="m 346.86441,370.0339 h 4 v 35 h -5 v -25 h -8 v -4 l 7,-2 z"
     fill="#000000"
     id="path52605" />
  <path
     d="m 321.86441,400.0339 h 5 v 5 h -5 z"
     fill="#000000"
     id="path52681" />
</svg>
