<?xml version="1.0" encoding="UTF-8" standalone="no"?>
<!-- Generator: visioncortex VTracer 0.6.12 -->

<svg
   version="1.1"
   width="1876"
   height="1097"
   id="svg69461"
   xmlns="http://www.w3.org/2000/svg"
   xmlns:svg="http://www.w3.org/2000/svg">
  <defs
     id="defs69465" />
  <path
     d="M0,0 L19,0 L24,3 L26,7 L25,13 L23,17 L27,21 L27,30 L22,35 L19,36 L0,36 Z M4,4 L4,15 L18,15 L21,12 L20,6 L17,4 Z M5,19 L4,20 L4,31 L5,32 L18,32 L22,29 L23,25 L20,20 L18,19 Z "
     fill="#000000"
     transform="translate(1014,23)"
     id="path69301" />
  <path
     d="M0,0 L9,0 L15,3 L19,8 L20,12 L15,12 L12,7 L7,5 L-1,6 L-4,7 L-6,12 L-7,21 L-4,30 L2,33 L10,32 L14,28 L16,22 L5,22 L5,18 L20,18 L20,37 L17,37 L15,34 L11,37 L8,38 L0,38 L-8,34 L-12,27 L-13,17 L-10,8 L-5,2 Z "
     fill="#000000"
     transform="translate(1259,89)"
     id="path69303" />
  <path
     d="M0,0 L9,0 L15,3 L19,8 L20,12 L15,12 L12,7 L7,5 L-1,6 L-4,7 L-6,12 L-7,21 L-4,30 L2,33 L10,32 L14,28 L16,22 L5,22 L5,18 L20,18 L20,37 L17,37 L15,34 L11,37 L8,38 L0,38 L-8,34 L-12,27 L-13,17 L-10,8 L-5,2 Z "
     fill="#000000"
     transform="translate(1422,89)"
     id="path69305" />
  <path
     d="M0,0 L19,0 L24,3 L26,7 L25,13 L23,17 L27,21 L27,30 L22,35 L19,36 L0,36 Z M4,4 L4,15 L18,15 L21,12 L20,6 L17,4 Z M5,19 L4,20 L4,31 L5,32 L18,32 L22,29 L23,25 L20,20 L18,19 Z "
     fill="#000000"
     transform="translate(1287,90)"
     id="path69307" />
  <path
     d="M0,0 L19,0 L24,3 L26,7 L25,13 L23,17 L27,21 L27,30 L22,35 L19,36 L0,36 Z M4,4 L4,15 L18,15 L21,12 L20,6 L17,4 Z M5,19 L4,20 L4,31 L5,32 L18,32 L22,29 L23,25 L20,20 L18,19 Z "
     fill="#000000"
     transform="translate(1377,90)"
     id="path69309" />
  <path
     d="M0,0 L8,0 L13,4 L16,13 L16,22 L13,31 L9,35 L7,36 L0,36 L-6,31 L-8,26 L-8,10 L-4,2 Z M1,4 L-3,9 L-4,22 L-2,29 L1,32 L8,31 L11,25 L11,11 L8,5 L7,4 Z "
     fill="#000000"
     transform="translate(713,91)"
     id="path69311" />
  <path
     d="M0,0 L8,0 L13,4 L16,13 L16,22 L13,31 L9,35 L7,36 L0,36 L-6,31 L-8,26 L-8,10 L-4,2 Z M1,4 L-3,9 L-4,22 L-2,29 L1,32 L8,31 L11,25 L11,11 L8,5 L7,4 Z "
     fill="#000000"
     transform="translate(755,91)"
     id="path69313" />
  <path
     d="M0,0 L10,0 L14,4 L15,9 L10,8 L8,5 L1,5 L-2,10 L-2,15 L0,13 L10,13 L15,18 L16,20 L16,27 L13,33 L7,36 L1,36 L-5,32 L-8,26 L-8,12 L-5,4 Z M0,17 L-3,21 L-3,27 L2,32 L9,31 L11,28 L11,20 L8,17 Z "
     fill="#000000"
     transform="translate(783,91)"
     id="path69315" />
  <path
     d="M0,0 L24,0 L24,5 L17,15 L12,27 L10,35 L5,35 L7,25 L14,11 L18,6 L0,5 Z "
     fill="#000000"
     transform="translate(803,91)"
     id="path69317" />
  <path
     d="M0,0 L8,0 L13,4 L16,13 L16,22 L13,31 L9,35 L7,36 L0,36 L-6,31 L-8,26 L-8,10 L-4,2 Z M1,4 L-3,9 L-4,22 L-2,29 L1,32 L8,31 L11,25 L11,11 L8,5 L7,4 Z "
     fill="#000000"
     transform="translate(1558,91)"
     id="path69319" />
  <path
     d="M0,0 L8,0 L13,4 L16,13 L16,22 L13,31 L9,35 L7,36 L0,36 L-6,31 L-8,26 L-8,10 L-4,2 Z M1,4 L-3,9 L-4,22 L-2,29 L1,32 L8,31 L11,25 L11,11 L8,5 L7,4 Z "
     fill="#000000"
     transform="translate(1599,91)"
     id="path69321" />
  <path
     d="M0,0 L4,0 L4,23 L9,23 L9,26 L4,26 L4,35 L0,35 L-1,27 L-16,26 L-15,20 L-3,4 Z M-2,8 L-11,21 L-11,23 L-1,23 L0,22 L0,8 Z "
     fill="#000000"
     transform="translate(1634,91)"
     id="path69323" />
  <path
     d="M0,0 L25,0 L25,4 L0,4 Z "
     fill="#000000"
     transform="translate(1332,106)"
     id="path69325" />
  <path
     d="M0,0 L305,0 L305,4 L4,5 L-122,131 L-121,135 L-117,144 L-117,157 L-121,166 L-124,170 L-122,174 L4,300 L305,301 L305,305 L1,306 L-7,299 L-33,273 L-40,265 L-129,176 L-134,177 L-143,180 L-153,180 L-163,177 L-172,170 L-178,161 L-179,155 L-447,156 L-582,426 L-577,431 L-572,437 L-568,447 L-568,456 L-572,467 L-578,474 L-583,477 L-582,482 L-447,752 L-179,753 L-179,746 L-174,736 L-165,728 L-154,724 L-142,724 L-131,728 L-127,730 L-85,688 L-78,680 L0,602 L305,603 L305,607 L4,608 L-122,734 L-120,739 L-117,747 L-117,760 L-122,770 L-124,775 L4,903 L305,904 L305,908 L0,908 L-129,779 L-134,780 L-140,782 L-156,782 L-166,778 L-173,772 L-178,763 L-179,757 L-451,758 L-461,739 L-487,687 L-498,664 L-589,482 L-589,480 L-593,481 L-606,481 L-615,478 L-624,471 L-629,463 L-631,456 L-631,448 L-628,439 L-622,431 L-613,425 L-607,423 L-592,423 L-587,424 L-585,418 L-520,288 L-509,265 L-452,151 L-451,150 L-179,150 L-178,140 L-172,131 L-163,124 L-152,121 L-144,121 L-134,124 L-129,127 L-125,125 Z M-151,125 L-161,128 L-169,134 L-174,142 L-175,145 L-175,156 L-170,166 L-163,172 L-156,175 L-145,176 L-135,173 L-127,167 L-122,159 L-121,156 L-121,145 L-126,135 L-133,129 L-140,126 Z M-606,427 L-615,431 L-622,437 L-626,445 L-627,454 L-624,464 L-618,471 L-609,476 L-605,477 L-594,477 L-584,473 L-577,467 L-573,459 L-572,449 L-575,440 L-582,432 L-590,428 L-593,427 Z M-153,728 L-162,731 L-171,739 L-174,744 L-175,748 L-175,759 L-170,769 L-161,776 L-155,778 L-141,778 L-129,772 L-123,764 L-121,759 L-121,748 L-125,739 L-134,731 L-143,728 Z "
     fill="#000000"
     transform="translate(870,109)"
     id="path69327" />
  <path
     d="M0,0 L25,0 L25,5 L0,5 Z "
     fill="#000000"
     transform="translate(1332,116)"
     id="path69329" />
  <path
     d="M0,0 L5,0 L5,5 L0,5 Z "
     fill="#000000"
     transform="translate(735,121)"
     id="path69331" />
  <path
     d="M0,0 L5,0 L5,5 L0,5 Z "
     fill="#000000"
     transform="translate(1579,121)"
     id="path69333" />
  <path
     d="M0,0 L9,0 L15,3 L19,8 L20,12 L15,12 L12,7 L7,5 L-1,6 L-4,7 L-6,12 L-7,21 L-4,30 L2,33 L10,32 L14,28 L16,22 L5,22 L5,18 L20,18 L20,37 L17,37 L15,34 L11,37 L8,38 L0,38 L-8,34 L-12,27 L-13,17 L-10,8 L-5,2 Z "
     fill="#000000"
     transform="translate(577,185)"
     id="path69335" />
  <path
     d="M0,0 L8,0 L13,4 L16,13 L16,22 L13,31 L9,35 L7,36 L0,36 L-6,31 L-8,26 L-8,10 L-4,2 Z M1,4 L-3,9 L-4,22 L-2,29 L1,32 L8,31 L11,25 L11,11 L8,5 L7,4 Z "
     fill="#000000"
     transform="translate(320,245)"
     id="path69337" />
  <path
     d="M0,0 L10,0 L14,4 L15,9 L10,8 L8,5 L1,5 L-2,10 L-2,15 L0,13 L10,13 L15,18 L16,20 L16,27 L13,33 L7,36 L1,36 L-5,32 L-8,26 L-8,12 L-5,4 Z M0,17 L-3,21 L-3,27 L2,32 L9,31 L11,28 L11,20 L8,17 Z "
     fill="#000000"
     transform="translate(362,245)"
     id="path69339" />
  <path
     d="M0,0 L5,0 L5,5 L0,5 Z "
     fill="#000000"
     transform="translate(342,275)"
     id="path69341" />
  <path
     d="M0,0 L19,0 L24,3 L26,7 L25,13 L23,17 L27,21 L27,30 L22,35 L19,36 L0,36 Z M4,4 L4,15 L18,15 L21,12 L20,6 L17,4 Z M5,19 L4,20 L4,31 L5,32 L18,32 L22,29 L23,25 L20,20 L18,19 Z "
     fill="#000000"
     transform="translate(1014,341)"
     id="path69343" />
  <path
     d="M0,0 L9,0 L15,3 L19,8 L20,12 L15,12 L12,7 L7,5 L-1,6 L-4,7 L-6,12 L-7,21 L-4,30 L2,33 L10,32 L14,28 L16,22 L5,22 L5,18 L20,18 L20,37 L17,37 L15,34 L11,37 L8,38 L0,38 L-8,34 L-12,27 L-13,17 L-10,8 L-5,2 Z "
     fill="#000000"
     transform="translate(1258,390)"
     id="path69347" />
  <path
     d="m 1454,390 h 9 l 6,3 4,5 1,4 h -5 l -3,-5 -5,-2 -8,1 -3,1 -2,5 -1,9 3,9 6,3 8,-1 4,-4 2,-6 h -11 v -4 h 15 v 19 h -3 l -2,-3 -4,3 -3,1 h -8 l -8,-4 -4,-7 -1,-10 3,-9 5,-6 z"
     fill="#000000"
     id="path69349" />
  <path
     d="M0,0 L19,0 L24,3 L26,7 L25,13 L23,17 L27,21 L27,30 L22,35 L19,36 L0,36 Z M4,4 L4,15 L18,15 L21,12 L20,6 L17,4 Z M5,19 L4,20 L4,31 L5,32 L18,32 L22,29 L23,25 L20,20 L18,19 Z "
     fill="#000000"
     transform="translate(1286,391)"
     id="path69351" />
  <path
     d="M0,0 L19,0 L24,3 L26,7 L25,13 L23,17 L27,21 L27,30 L22,35 L19,36 L0,36 Z M4,4 L4,15 L18,15 L21,12 L20,6 L17,4 Z M5,19 L4,20 L4,31 L5,32 L18,32 L22,29 L23,25 L20,20 L18,19 Z "
     fill="#000000"
     transform="translate(1386,391)"
     id="path69355" />
  <path
     d="M0,0 L8,0 L13,4 L16,13 L16,22 L13,31 L9,35 L7,36 L0,36 L-6,31 L-8,26 L-8,10 L-4,2 Z M1,4 L-3,9 L-4,22 L-2,29 L1,32 L8,31 L11,25 L11,11 L8,5 L7,4 Z "
     fill="#000000"
     transform="translate(1558,392)"
     id="path69359" />
  <path
     d="M0,0 L17,0 L18,5 L3,5 L3,13 L10,12 L15,14 L19,18 L20,26 L17,32 L11,36 L4,36 L-2,33 L-4,30 L-4,26 L1,27 L4,31 L10,31 L14,27 L14,21 L12,18 L5,17 L1,20 L-3,19 L-1,1 Z "
     fill="#000000"
     transform="translate(1595,392)"
     id="path69361" />
  <path
     d="M0,0 L10,0 L14,4 L15,9 L10,8 L8,5 L1,5 L-2,10 L-2,15 L0,13 L10,13 L15,18 L16,20 L16,27 L13,33 L7,36 L1,36 L-5,32 L-8,26 L-8,12 L-5,4 Z M0,17 L-3,21 L-3,27 L2,32 L9,31 L11,28 L11,20 L8,17 Z "
     fill="#000000"
     transform="translate(1627,392)"
     id="path69363" />
  <path
     d="M0,0 L8,0 L13,4 L16,13 L16,22 L13,31 L9,35 L7,36 L0,36 L-6,31 L-8,26 L-8,10 L-4,2 Z M1,4 L-3,9 L-4,22 L-2,29 L1,32 L8,31 L11,25 L11,11 L8,5 L7,4 Z "
     fill="#000000"
     transform="translate(713,396)"
     id="path69365" />
  <path
     d="M0,0 L8,0 L13,3 L16,9 L16,25 L12,33 L7,36 L0,36 L-5,33 L-7,27 L-2,27 L0,31 L7,31 L10,27 L11,21 L8,23 L0,23 L-5,20 L-7,16 L-7,7 L-2,1 Z M1,4 L-2,7 L-3,13 L-1,18 L1,19 L8,19 L11,16 L11,7 L7,4 Z "
     fill="#000000"
     transform="translate(754,396)"
     id="path69367" />
  <path
     d="M0,0 L9,0 L14,3 L15,5 L15,13 L12,16 L16,20 L17,27 L14,33 L8,36 L0,36 L-6,32 L-8,27 L-8,24 L-3,24 L-1,30 L1,31 L7,31 L11,28 L11,22 L8,20 L2,19 L2,15 L9,13 L10,8 L8,5 L1,5 L-1,7 L-2,11 L-7,11 L-6,5 L-2,1 Z "
     fill="#000000"
     transform="translate(782,396)"
     id="path69369" />
  <path
     d="M0,0 L9,0 L14,3 L15,5 L15,13 L12,16 L16,20 L17,27 L14,33 L8,36 L0,36 L-6,32 L-8,27 L-8,24 L-3,24 L-1,30 L1,31 L7,31 L11,28 L11,22 L8,20 L2,19 L2,15 L9,13 L10,8 L8,5 L1,5 L-1,7 L-2,11 L-7,11 L-6,5 L-2,1 Z "
     fill="#000000"
     transform="translate(810,396)"
     id="path69371" />
  <path
     d="M0,0 L25,0 L25,4 L0,4 Z "
     fill="#000000"
     transform="translate(1341,407)"
     id="path69373" />
  <path
     d="M0,0 L25,0 L25,5 L0,5 Z "
     fill="#000000"
     transform="translate(1341,417)"
     id="path69375" />
  <path
     d="M0,0 L5,0 L5,5 L0,5 Z "
     fill="#000000"
     transform="translate(1579,422)"
     id="path69377" />
  <path
     d="M0,0 L5,0 L5,5 L0,5 Z "
     fill="#000000"
     transform="translate(735,426)"
     id="path69379" />
  <path
     d="M0,0 L19,0 L24,3 L26,7 L25,13 L23,17 L27,21 L27,30 L22,35 L19,36 L0,36 Z M4,4 L4,15 L18,15 L21,12 L20,6 L17,4 Z M5,19 L4,20 L4,31 L5,32 L18,32 L22,29 L23,25 L20,20 L18,19 Z "
     fill="#000000"
     transform="translate(1014,634)"
     id="path69381" />
  <path
     d="M0,0 L9,0 L15,3 L19,8 L20,12 L15,12 L12,7 L7,5 L-1,6 L-4,7 L-6,12 L-7,21 L-4,30 L2,33 L10,32 L14,28 L16,22 L5,22 L5,18 L20,18 L20,37 L17,37 L15,34 L11,37 L8,38 L0,38 L-8,34 L-12,27 L-13,17 L-10,8 L-5,2 Z "
     fill="#000000"
     transform="translate(1258,691)"
     id="path69383" />
  <path
     d="m 1446.6667,691.66667 h 9 l 6,3 4,5 1,4 h -5 l -3,-5 -5,-2 -8,1 -3,1 -2,5 -1,9 3,9 6,3 8,-1 4,-4 2,-6 h -11 v -4 h 15 v 19 h -3 l -2,-3 -4,3 -3,1 h -8 l -8,-4 -4,-7 -1,-10 3,-9 5,-6 z"
     fill="#000000"
     id="path69385" />
  <path
     d="m 1311.6667,692.66667 h 19 l 5,3 2,4 -1,6 -2,4 4,4 v 9 l -5,5 -3,1 h -19 z m 4,4 v 11 h 14 l 3,-3 -1,-6 -3,-2 z m 1,15 -1,1 v 11 l 1,1 h 13 l 4,-3 1,-4 -3,-5 -2,-1 z"
     fill="#000000"
     id="path69389" />
  <path
     d="m 1402.6667,692.66667 h 19 l 5,3 2,4 -1,6 -2,4 4,4 v 9 l -5,5 -3,1 h -19 z m 4,4 v 11 h 14 l 3,-3 -1,-6 -3,-2 z m 1,15 -1,1 v 11 l 1,1 h 13 l 4,-3 1,-4 -3,-5 -2,-1 z"
     fill="#000000"
     id="path69391" />
  <path
     d="M0,0 L8,0 L13,4 L16,13 L16,22 L13,31 L9,35 L7,36 L0,36 L-6,31 L-8,26 L-8,10 L-4,2 Z M1,4 L-3,9 L-4,22 L-2,29 L1,32 L8,31 L11,25 L11,11 L8,5 L7,4 Z "
     fill="#000000"
     transform="translate(747,693)"
     id="path69395" />
  <path
     d="M0,0 L4,0 L4,23 L9,23 L9,26 L4,26 L4,35 L0,35 L-1,27 L-16,26 L-15,20 L-3,4 Z M-2,8 L-11,21 L-11,23 L-1,23 L0,22 L0,8 Z "
     fill="#000000"
     transform="translate(795,693)"
     id="path69397" />
  <path
     d="M0,0 L8,0 L13,4 L16,13 L16,22 L13,31 L9,35 L7,36 L0,36 L-6,31 L-8,26 L-8,10 L-4,2 Z M1,4 L-3,9 L-4,22 L-2,29 L1,32 L8,31 L11,25 L11,11 L8,5 L7,4 Z "
     fill="#000000"
     transform="translate(1558,693)"
     id="path69399" />
  <path
     d="M0,0 L4,0 L4,35 L-1,35 L-1,10 L-9,10 L-9,7 L-2,4 Z "
     fill="#000000"
     transform="translate(1603,693)"
     id="path69401" />
  <path
     d="M0,0 L10,0 L14,4 L15,9 L10,8 L8,5 L1,5 L-2,10 L-2,15 L0,13 L10,13 L15,18 L16,20 L16,27 L13,33 L7,36 L1,36 L-5,32 L-8,26 L-8,12 L-5,4 Z M0,17 L-3,21 L-3,27 L2,32 L9,31 L11,28 L11,20 L8,17 Z "
     fill="#000000"
     transform="translate(1627,693)"
     id="path69403" />
  <path
     d="m 1357.6667,708.66667 h 25 v 4 h -25 z"
     fill="#000000"
     id="path69405" />
  <path
     d="m 1357.6667,718.66667 h 25 v 5 h -25 z"
     fill="#000000"
     id="path69407" />
  <path
     d="M0,0 L5,0 L5,5 L0,5 Z "
     fill="#000000"
     transform="translate(768,723)"
     id="path69409" />
  <path
     d="M0,0 L5,0 L5,5 L0,5 Z "
     fill="#000000"
     transform="translate(1579,723)"
     id="path69411" />
  <path
     d="M0,0 L9,0 L15,3 L19,8 L20,12 L15,12 L12,7 L7,5 L-1,6 L-4,7 L-6,12 L-7,21 L-4,30 L2,33 L10,32 L14,28 L16,22 L5,22 L5,18 L20,18 L20,37 L17,37 L15,34 L11,37 L8,38 L0,38 L-8,34 L-12,27 L-13,17 L-10,8 L-5,2 Z "
     fill="#000000"
     transform="translate(577,788)"
     id="path69413" />
  <path
     d="M0,0 L8,0 L13,4 L16,13 L16,22 L13,31 L9,35 L7,36 L0,36 L-6,31 L-8,26 L-8,10 L-4,2 Z M1,4 L-3,9 L-4,22 L-2,29 L1,32 L8,31 L11,25 L11,11 L8,5 L7,4 Z "
     fill="#000000"
     transform="translate(324,844)"
     id="path69417" />
  <path
     d="M0,0 L4,0 L4,23 L9,23 L9,26 L4,26 L4,35 L0,35 L-1,27 L-16,26 L-15,20 L-3,4 Z M-2,8 L-11,21 L-11,23 L-1,23 L0,22 L0,8 Z "
     fill="#000000"
     transform="translate(373,844)"
     id="path69419" />
  <path
     d="M0,0 L5,0 L5,5 L0,5 Z "
     fill="#000000"
     transform="translate(346,874)"
     id="path69421" />
  <path
     d="M0,0 L19,0 L24,3 L26,7 L25,13 L23,17 L27,21 L27,30 L22,35 L19,36 L0,36 Z M4,4 L4,15 L18,15 L21,12 L20,6 L17,4 Z M5,19 L4,20 L4,31 L5,32 L18,32 L22,29 L23,25 L20,20 L18,19 Z "
     fill="#000000"
     transform="translate(1014,943)"
     id="path69423" />
  <path
     d="M0,0 L9,0 L15,3 L19,8 L20,12 L15,12 L12,7 L7,5 L-1,6 L-4,7 L-6,12 L-7,21 L-4,30 L2,33 L10,32 L14,28 L16,22 L5,22 L5,18 L20,18 L20,37 L17,37 L15,34 L11,37 L8,38 L0,38 L-8,34 L-12,27 L-13,17 L-10,8 L-5,2 Z "
     fill="#000000"
     transform="translate(1256,997)"
     id="path69427" />
  <path
     d="m 1466.6667,997.66667 h 9 l 6,3.00003 4,5 1,4 h -5 l -3,-5 -5,-2 -8,1 -3,1 -2,5 -1,9 3,9 6,3 8,-1 4,-4 2,-6 h -11 v -4 h 15 v 19 h -3 l -2,-3 -4,3 -3,1 h -8 l -8,-4 -4,-7 -1,-10 3,-9 5,-6.00003 z"
     fill="#000000"
     id="path69429" />
  <path
     d="m 1307.3333,998.66667 h 19 l 5,3.00003 2,4 -1,6 -2,4 4,4 v 9 l -5,5 -3,1 h -19 z m 4,4.00003 v 11 h 14 l 3,-3 -1,-6 -3,-2 z m 1,15 -1,1 v 11 l 1,1 h 13 l 4,-3 1,-4 -3,-5 -2,-1 z"
     fill="#000000"
     id="path69433" />
  <path
     d="M0,0 L19,0 L24,3 L26,7 L25,13 L23,17 L27,21 L27,30 L22,35 L19,36 L0,36 Z M4,4 L4,15 L18,15 L21,12 L20,6 L17,4 Z M5,19 L4,20 L4,31 L5,32 L18,32 L22,29 L23,25 L20,20 L18,19 Z "
     fill="#000000"
     transform="translate(1394,998)"
     id="path69437" />
  <path
     d="M0,0 L8,0 L13,4 L16,13 L16,22 L13,31 L9,35 L7,36 L0,36 L-6,31 L-8,26 L-8,10 L-4,2 Z M1,4 L-3,9 L-4,22 L-2,29 L1,32 L8,31 L11,25 L11,11 L8,5 L7,4 Z "
     fill="#000000"
     transform="translate(747,999)"
     id="path69443" />
  <path
     d="M0,0 L10,0 L14,4 L15,9 L10,8 L8,5 L1,5 L-2,10 L-2,15 L0,13 L10,13 L15,18 L16,20 L16,27 L13,33 L7,36 L1,36 L-5,32 L-8,26 L-8,12 L-5,4 Z M0,17 L-3,21 L-3,27 L2,32 L9,31 L11,28 L11,20 L8,17 Z "
     fill="#000000"
     transform="translate(788,999)"
     id="path69445" />
  <path
     d="M0,0 L8,0 L13,4 L16,13 L16,22 L13,31 L9,35 L7,36 L0,36 L-6,31 L-8,26 L-8,10 L-4,2 Z M1,4 L-3,9 L-4,22 L-2,29 L1,32 L8,31 L11,25 L11,11 L8,5 L7,4 Z "
     fill="#000000"
     transform="translate(1558,999)"
     id="path69447" />
  <path
     d="M0,0 L10,0 L16,5 L17,13 L13,19 L0,27 L-2,31 L17,31 L17,35 L-7,35 L-6,27 L-1,22 L8,16 L10,16 L11,8 L8,5 L2,5 L-1,8 L-2,12 L-7,12 L-5,4 Z "
     fill="#000000"
     transform="translate(1598,999)"
     id="path69449" />
  <path
     d="M0,0 L4,0 L4,23 L9,23 L9,26 L4,26 L4,35 L0,35 L-1,27 L-16,26 L-15,20 L-3,4 Z M-2,8 L-11,21 L-11,23 L-1,23 L0,22 L0,8 Z "
     fill="#000000"
     transform="translate(1634,999)"
     id="path69451" />
  <path
     d="M0,0 L25,0 L25,4 L0,4 Z "
     fill="#000000"
     transform="translate(1349,1014)"
     id="path69453" />
  <path
     d="M0,0 L25,0 L25,5 L0,5 Z "
     fill="#000000"
     transform="translate(1349,1024)"
     id="path69455" />
  <path
     d="M0,0 L5,0 L5,5 L0,5 Z "
     fill="#000000"
     transform="translate(768,1029)"
     id="path69457" />
  <path
     d="M0,0 L5,0 L5,5 L0,5 Z "
     fill="#000000"
     transform="translate(1579,1029)"
     id="path69459" />
  <text
     xml:space="preserve"
     style="font-size:32px;font-family:'Arial Black';-inkscape-font-specification:'Arial Black, Normal';fill:#333333;stroke:#f6f6ff;stroke-width:3.425"
     x="597.34375"
     y="803.44531"
     id="text6687-32"><tspan
       id="tspan6685-8"
       x="597.34375"
       y="803.44531">C</tspan></text>
  <text
     xml:space="preserve"
     style="font-size:32px;font-family:'Arial Black';-inkscape-font-specification:'Arial Black, Normal';fill:#333333;stroke:#f6f6ff;stroke-width:3.425"
     x="1042.0104"
     y="354.11197"
     id="text6687-32-1"><tspan
       id="tspan6685-8-0"
       x="1042.0104"
       y="354.11197">C</tspan></text>
  <text
     xml:space="preserve"
     style="font-size:32px;font-family:'Arial Black';-inkscape-font-specification:'Arial Black, Normal';fill:#333333;stroke:#f6f6ff;stroke-width:3.425"
     x="1042.6771"
     y="956.77863"
     id="text6687-32-3"><tspan
       id="tspan6685-8-7"
       x="1042.6771"
       y="956.77863">C</tspan></text>
  <text
     xml:space="preserve"
     style="font-size:32px;font-family:'Arial Black';-inkscape-font-specification:'Arial Black, Normal';fill:#333333;stroke:#f6f6ff;stroke-width:3.425"
     x="1282.6771"
     y="706.77869"
     id="text6687-32-7"><tspan
       id="tspan6685-8-9"
       x="1282.6771"
       y="706.77869">C</tspan></text>
  <text
     xml:space="preserve"
     style="font-size:32px;font-family:'Arial Black';-inkscape-font-specification:'Arial Black, Normal';fill:#333333;stroke:#f6f6ff;stroke-width:3.425"
     x="1412.6771"
     y="407.44531"
     id="text6687-32-36"><tspan
       id="tspan6685-8-08"
       x="1412.6771"
       y="407.44531">C</tspan></text>
  <text
     xml:space="preserve"
     style="font-size:32px;font-family:'Arial Black';-inkscape-font-specification:'Arial Black, Normal';fill:#333333;stroke:#f6f6ff;stroke-width:3.425"
     x="1312.6771"
     y="406.77863"
     id="text6687-32-4"><tspan
       id="tspan6685-8-5"
       x="1312.6771"
       y="406.77863">C</tspan></text>
  <text
     xml:space="preserve"
     style="font-size:32px;font-family:'Arial Black';-inkscape-font-specification:'Arial Black, Normal';fill:#333333;stroke:#f6f6ff;stroke-width:3.425"
     x="1470.6771"
     y="710.11194"
     id="text6687-32-5"><tspan
       id="tspan6685-8-74"
       x="1470.6771"
       y="710.11194">C</tspan></text>
  <text
     xml:space="preserve"
     style="font-size:32px;font-family:'Arial Black';-inkscape-font-specification:'Arial Black, Normal';fill:#333333;stroke:#f6f6ff;stroke-width:3.425"
     x="1333.3438"
     y="1011.4453"
     id="text6687-32-59"><tspan
       id="tspan6685-8-6"
       x="1333.3438"
       y="1011.4453">C</tspan></text>
  <text
     xml:space="preserve"
     style="font-size:32px;font-family:'Arial Black';-inkscape-font-specification:'Arial Black, Normal';fill:#333333;stroke:#f6f6ff;stroke-width:3.425"
     x="1486.0104"
     y="1014.112"
     id="text6687-32-6"><tspan
       id="tspan6685-8-8"
       x="1486.0104"
       y="1014.112">C</tspan></text>
  <text
     xml:space="preserve"
     style="font-size:32px;font-family:'Arial Black';-inkscape-font-specification:'Arial Black, Normal';fill:#333333;stroke:#f6f6ff;stroke-width:3.425"
     x="1422.0104"
     y="1012.112"
     id="text6687-32-8"><tspan
       id="tspan6685-8-3"
       x="1422.0104"
       y="1012.112">C</tspan></text>
  <text
     xml:space="preserve"
     style="font-size:32px;font-family:'Arial Black';-inkscape-font-specification:'Arial Black, Normal';fill:#333333;stroke:#f6f6ff;stroke-width:3.425"
     x="1277.3438"
     y="1012.7786"
     id="text6687-32-33"><tspan
       id="tspan6685-8-91"
       x="1277.3438"
       y="1012.7786">C</tspan></text>
</svg>
